<mxfile host="app.diagrams.net" modified="2022-05-15T16:17:42.996Z" agent="5.0 (X11; Linux x86_64) AppleWebKit/537.36 (KHTML, like Gecko) Chrome/96.0.4664.110 Safari/537.36" etag="PL92E_kX5x-z8HtL3K2Y" version="17.4.5" type="github" pages="3">
  <diagram id="8KKIZeUhTTSI-cBXTdRV" name="Base Figures">
    <mxGraphModel dx="677" dy="352" grid="1" gridSize="10" guides="1" tooltips="1" connect="1" arrows="1" fold="1" page="1" pageScale="1" pageWidth="1100" pageHeight="850" math="0" shadow="0">
      <root>
        <mxCell id="0" />
        <mxCell id="1" parent="0" />
        <mxCell id="4G4CeqeVtHvaFFHId8Y4-1" value="" style="whiteSpace=wrap;html=1;aspect=fixed;strokeColor=#7D7D7D;" vertex="1" parent="1">
          <mxGeometry x="676" y="418" width="70" height="70" as="geometry" />
        </mxCell>
        <mxCell id="4G4CeqeVtHvaFFHId8Y4-2" value="" style="endArrow=none;html=1;rounded=0;strokeColor=#7D7D7D;entryX=0.25;entryY=0;entryDx=0;entryDy=0;exitX=0.25;exitY=1;exitDx=0;exitDy=0;" edge="1" parent="1" source="4G4CeqeVtHvaFFHId8Y4-1" target="4G4CeqeVtHvaFFHId8Y4-1">
          <mxGeometry width="50" height="50" relative="1" as="geometry">
            <mxPoint x="686" y="468" as="sourcePoint" />
            <mxPoint x="736" y="418" as="targetPoint" />
          </mxGeometry>
        </mxCell>
        <mxCell id="4G4CeqeVtHvaFFHId8Y4-3" value="" style="endArrow=none;html=1;rounded=0;strokeColor=#7D7D7D;entryX=0.75;entryY=0;entryDx=0;entryDy=0;exitX=0.75;exitY=1;exitDx=0;exitDy=0;" edge="1" parent="1" source="4G4CeqeVtHvaFFHId8Y4-1" target="4G4CeqeVtHvaFFHId8Y4-1">
          <mxGeometry width="50" height="50" relative="1" as="geometry">
            <mxPoint x="786" y="488" as="sourcePoint" />
            <mxPoint x="786" y="408" as="targetPoint" />
          </mxGeometry>
        </mxCell>
        <mxCell id="4G4CeqeVtHvaFFHId8Y4-4" value="" style="endArrow=none;html=1;rounded=0;strokeColor=#7D7D7D;entryX=0.75;entryY=0;entryDx=0;entryDy=0;exitX=0.75;exitY=1;exitDx=0;exitDy=0;" edge="1" parent="1">
          <mxGeometry width="50" height="50" relative="1" as="geometry">
            <mxPoint x="685" y="488" as="sourcePoint" />
            <mxPoint x="685" y="418" as="targetPoint" />
          </mxGeometry>
        </mxCell>
        <mxCell id="4G4CeqeVtHvaFFHId8Y4-5" value="" style="endArrow=none;html=1;rounded=0;strokeColor=#7D7D7D;entryX=0.75;entryY=0;entryDx=0;entryDy=0;exitX=0.75;exitY=1;exitDx=0;exitDy=0;" edge="1" parent="1">
          <mxGeometry width="50" height="50" relative="1" as="geometry">
            <mxPoint x="737" y="488" as="sourcePoint" />
            <mxPoint x="737" y="418" as="targetPoint" />
          </mxGeometry>
        </mxCell>
        <mxCell id="4G4CeqeVtHvaFFHId8Y4-6" value="" style="endArrow=none;html=1;rounded=0;strokeColor=#7D7D7D;exitX=0;exitY=0.25;exitDx=0;exitDy=0;entryX=1;entryY=0.25;entryDx=0;entryDy=0;" edge="1" parent="1" source="4G4CeqeVtHvaFFHId8Y4-1" target="4G4CeqeVtHvaFFHId8Y4-1">
          <mxGeometry width="50" height="50" relative="1" as="geometry">
            <mxPoint x="686" y="448" as="sourcePoint" />
            <mxPoint x="736" y="398" as="targetPoint" />
          </mxGeometry>
        </mxCell>
        <mxCell id="4G4CeqeVtHvaFFHId8Y4-7" value="" style="endArrow=none;html=1;rounded=0;strokeColor=#7D7D7D;exitX=0;exitY=0.25;exitDx=0;exitDy=0;entryX=1;entryY=0.25;entryDx=0;entryDy=0;" edge="1" parent="1">
          <mxGeometry width="50" height="50" relative="1" as="geometry">
            <mxPoint x="676" y="427" as="sourcePoint" />
            <mxPoint x="746" y="427" as="targetPoint" />
          </mxGeometry>
        </mxCell>
        <mxCell id="4G4CeqeVtHvaFFHId8Y4-8" value="" style="endArrow=none;html=1;rounded=0;strokeColor=#7D7D7D;exitX=0;exitY=0.75;exitDx=0;exitDy=0;entryX=1;entryY=0.75;entryDx=0;entryDy=0;" edge="1" parent="1" source="4G4CeqeVtHvaFFHId8Y4-1" target="4G4CeqeVtHvaFFHId8Y4-1">
          <mxGeometry width="50" height="50" relative="1" as="geometry">
            <mxPoint x="676" y="478" as="sourcePoint" />
            <mxPoint x="746" y="478" as="targetPoint" />
          </mxGeometry>
        </mxCell>
        <mxCell id="4G4CeqeVtHvaFFHId8Y4-9" value="" style="endArrow=none;html=1;rounded=0;strokeColor=#7D7D7D;exitX=0;exitY=0.75;exitDx=0;exitDy=0;entryX=1;entryY=0.75;entryDx=0;entryDy=0;" edge="1" parent="1">
          <mxGeometry width="50" height="50" relative="1" as="geometry">
            <mxPoint x="676" y="479" as="sourcePoint" />
            <mxPoint x="746" y="479" as="targetPoint" />
          </mxGeometry>
        </mxCell>
        <mxCell id="4G4CeqeVtHvaFFHId8Y4-10" value="" style="endArrow=none;html=1;rounded=0;strokeColor=#7D7D7D;entryX=0.75;entryY=0;entryDx=0;entryDy=0;exitX=0.75;exitY=1;exitDx=0;exitDy=0;" edge="1" parent="1">
          <mxGeometry width="50" height="50" relative="1" as="geometry">
            <mxPoint x="710.8899999999999" y="488" as="sourcePoint" />
            <mxPoint x="710.8899999999999" y="418" as="targetPoint" />
          </mxGeometry>
        </mxCell>
        <mxCell id="4G4CeqeVtHvaFFHId8Y4-11" value="" style="endArrow=none;html=1;rounded=0;strokeColor=#7D7D7D;entryX=0.75;entryY=0;entryDx=0;entryDy=0;exitX=0.75;exitY=1;exitDx=0;exitDy=0;" edge="1" parent="1">
          <mxGeometry width="50" height="50" relative="1" as="geometry">
            <mxPoint x="719.8899999999999" y="488" as="sourcePoint" />
            <mxPoint x="719.8899999999999" y="418" as="targetPoint" />
          </mxGeometry>
        </mxCell>
        <mxCell id="4G4CeqeVtHvaFFHId8Y4-12" value="" style="endArrow=none;html=1;rounded=0;strokeColor=#7D7D7D;entryX=0.75;entryY=0;entryDx=0;entryDy=0;exitX=0.75;exitY=1;exitDx=0;exitDy=0;" edge="1" parent="1">
          <mxGeometry width="50" height="50" relative="1" as="geometry">
            <mxPoint x="702" y="488" as="sourcePoint" />
            <mxPoint x="702" y="418" as="targetPoint" />
          </mxGeometry>
        </mxCell>
        <mxCell id="4G4CeqeVtHvaFFHId8Y4-13" value="" style="endArrow=none;html=1;rounded=0;strokeColor=#7D7D7D;exitX=0;exitY=0.25;exitDx=0;exitDy=0;entryX=1;entryY=0.25;entryDx=0;entryDy=0;" edge="1" parent="1">
          <mxGeometry width="50" height="50" relative="1" as="geometry">
            <mxPoint x="676" y="444.5" as="sourcePoint" />
            <mxPoint x="746" y="444.5" as="targetPoint" />
          </mxGeometry>
        </mxCell>
        <mxCell id="4G4CeqeVtHvaFFHId8Y4-14" value="" style="endArrow=none;html=1;rounded=0;strokeColor=#7D7D7D;exitX=0;exitY=0.25;exitDx=0;exitDy=0;entryX=1;entryY=0.25;entryDx=0;entryDy=0;" edge="1" parent="1">
          <mxGeometry width="50" height="50" relative="1" as="geometry">
            <mxPoint x="676" y="453.5" as="sourcePoint" />
            <mxPoint x="746" y="453.5" as="targetPoint" />
          </mxGeometry>
        </mxCell>
        <mxCell id="4G4CeqeVtHvaFFHId8Y4-15" value="" style="endArrow=none;html=1;rounded=0;strokeColor=#7D7D7D;exitX=0;exitY=0.25;exitDx=0;exitDy=0;entryX=1;entryY=0.25;entryDx=0;entryDy=0;" edge="1" parent="1">
          <mxGeometry width="50" height="50" relative="1" as="geometry">
            <mxPoint x="676" y="461.5" as="sourcePoint" />
            <mxPoint x="746" y="461.5" as="targetPoint" />
          </mxGeometry>
        </mxCell>
        <mxCell id="4G4CeqeVtHvaFFHId8Y4-16" value="" style="whiteSpace=wrap;html=1;aspect=fixed;strokeColor=#7D7D7D;" vertex="1" parent="1">
          <mxGeometry x="671" y="422" width="70" height="70" as="geometry" />
        </mxCell>
        <mxCell id="4G4CeqeVtHvaFFHId8Y4-17" value="" style="endArrow=none;html=1;rounded=0;strokeColor=#7D7D7D;entryX=0.25;entryY=0;entryDx=0;entryDy=0;exitX=0.25;exitY=1;exitDx=0;exitDy=0;" edge="1" parent="1" source="4G4CeqeVtHvaFFHId8Y4-16" target="4G4CeqeVtHvaFFHId8Y4-16">
          <mxGeometry width="50" height="50" relative="1" as="geometry">
            <mxPoint x="681" y="472" as="sourcePoint" />
            <mxPoint x="731" y="422" as="targetPoint" />
          </mxGeometry>
        </mxCell>
        <mxCell id="4G4CeqeVtHvaFFHId8Y4-18" value="" style="endArrow=none;html=1;rounded=0;strokeColor=#7D7D7D;entryX=0.75;entryY=0;entryDx=0;entryDy=0;exitX=0.75;exitY=1;exitDx=0;exitDy=0;" edge="1" parent="1" source="4G4CeqeVtHvaFFHId8Y4-16" target="4G4CeqeVtHvaFFHId8Y4-16">
          <mxGeometry width="50" height="50" relative="1" as="geometry">
            <mxPoint x="781" y="492" as="sourcePoint" />
            <mxPoint x="781" y="412" as="targetPoint" />
          </mxGeometry>
        </mxCell>
        <mxCell id="4G4CeqeVtHvaFFHId8Y4-19" value="" style="endArrow=none;html=1;rounded=0;strokeColor=#7D7D7D;entryX=0.75;entryY=0;entryDx=0;entryDy=0;exitX=0.75;exitY=1;exitDx=0;exitDy=0;" edge="1" parent="1">
          <mxGeometry width="50" height="50" relative="1" as="geometry">
            <mxPoint x="680" y="492" as="sourcePoint" />
            <mxPoint x="680" y="422" as="targetPoint" />
          </mxGeometry>
        </mxCell>
        <mxCell id="4G4CeqeVtHvaFFHId8Y4-20" value="" style="endArrow=none;html=1;rounded=0;strokeColor=#7D7D7D;entryX=0.75;entryY=0;entryDx=0;entryDy=0;exitX=0.75;exitY=1;exitDx=0;exitDy=0;" edge="1" parent="1">
          <mxGeometry width="50" height="50" relative="1" as="geometry">
            <mxPoint x="732" y="492" as="sourcePoint" />
            <mxPoint x="732" y="422" as="targetPoint" />
          </mxGeometry>
        </mxCell>
        <mxCell id="4G4CeqeVtHvaFFHId8Y4-21" value="" style="endArrow=none;html=1;rounded=0;strokeColor=#7D7D7D;exitX=0;exitY=0.25;exitDx=0;exitDy=0;entryX=1;entryY=0.25;entryDx=0;entryDy=0;" edge="1" parent="1" source="4G4CeqeVtHvaFFHId8Y4-16" target="4G4CeqeVtHvaFFHId8Y4-16">
          <mxGeometry width="50" height="50" relative="1" as="geometry">
            <mxPoint x="681" y="452" as="sourcePoint" />
            <mxPoint x="731" y="402" as="targetPoint" />
          </mxGeometry>
        </mxCell>
        <mxCell id="4G4CeqeVtHvaFFHId8Y4-22" value="" style="endArrow=none;html=1;rounded=0;strokeColor=#7D7D7D;exitX=0;exitY=0.25;exitDx=0;exitDy=0;entryX=1;entryY=0.25;entryDx=0;entryDy=0;" edge="1" parent="1">
          <mxGeometry width="50" height="50" relative="1" as="geometry">
            <mxPoint x="671" y="431" as="sourcePoint" />
            <mxPoint x="741" y="431" as="targetPoint" />
          </mxGeometry>
        </mxCell>
        <mxCell id="4G4CeqeVtHvaFFHId8Y4-23" value="" style="endArrow=none;html=1;rounded=0;strokeColor=#7D7D7D;exitX=0;exitY=0.75;exitDx=0;exitDy=0;entryX=1;entryY=0.75;entryDx=0;entryDy=0;" edge="1" parent="1" source="4G4CeqeVtHvaFFHId8Y4-16" target="4G4CeqeVtHvaFFHId8Y4-16">
          <mxGeometry width="50" height="50" relative="1" as="geometry">
            <mxPoint x="671" y="482" as="sourcePoint" />
            <mxPoint x="741" y="482" as="targetPoint" />
          </mxGeometry>
        </mxCell>
        <mxCell id="4G4CeqeVtHvaFFHId8Y4-24" value="" style="endArrow=none;html=1;rounded=0;strokeColor=#7D7D7D;exitX=0;exitY=0.75;exitDx=0;exitDy=0;entryX=1;entryY=0.75;entryDx=0;entryDy=0;" edge="1" parent="1">
          <mxGeometry width="50" height="50" relative="1" as="geometry">
            <mxPoint x="671" y="483" as="sourcePoint" />
            <mxPoint x="741" y="483" as="targetPoint" />
          </mxGeometry>
        </mxCell>
        <mxCell id="4G4CeqeVtHvaFFHId8Y4-25" value="" style="endArrow=none;html=1;rounded=0;strokeColor=#7D7D7D;entryX=0.75;entryY=0;entryDx=0;entryDy=0;exitX=0.75;exitY=1;exitDx=0;exitDy=0;" edge="1" parent="1">
          <mxGeometry width="50" height="50" relative="1" as="geometry">
            <mxPoint x="705.8899999999999" y="492" as="sourcePoint" />
            <mxPoint x="705.8899999999999" y="422" as="targetPoint" />
          </mxGeometry>
        </mxCell>
        <mxCell id="4G4CeqeVtHvaFFHId8Y4-26" value="" style="endArrow=none;html=1;rounded=0;strokeColor=#7D7D7D;entryX=0.75;entryY=0;entryDx=0;entryDy=0;exitX=0.75;exitY=1;exitDx=0;exitDy=0;" edge="1" parent="1">
          <mxGeometry width="50" height="50" relative="1" as="geometry">
            <mxPoint x="714.8899999999999" y="492" as="sourcePoint" />
            <mxPoint x="714.8899999999999" y="422" as="targetPoint" />
          </mxGeometry>
        </mxCell>
        <mxCell id="4G4CeqeVtHvaFFHId8Y4-27" value="" style="endArrow=none;html=1;rounded=0;strokeColor=#7D7D7D;entryX=0.75;entryY=0;entryDx=0;entryDy=0;exitX=0.75;exitY=1;exitDx=0;exitDy=0;" edge="1" parent="1">
          <mxGeometry width="50" height="50" relative="1" as="geometry">
            <mxPoint x="697" y="492" as="sourcePoint" />
            <mxPoint x="697" y="422" as="targetPoint" />
          </mxGeometry>
        </mxCell>
        <mxCell id="4G4CeqeVtHvaFFHId8Y4-28" value="" style="endArrow=none;html=1;rounded=0;strokeColor=#7D7D7D;exitX=0;exitY=0.25;exitDx=0;exitDy=0;entryX=1;entryY=0.25;entryDx=0;entryDy=0;" edge="1" parent="1">
          <mxGeometry width="50" height="50" relative="1" as="geometry">
            <mxPoint x="671" y="448.5" as="sourcePoint" />
            <mxPoint x="741" y="448.5" as="targetPoint" />
          </mxGeometry>
        </mxCell>
        <mxCell id="4G4CeqeVtHvaFFHId8Y4-29" value="" style="endArrow=none;html=1;rounded=0;strokeColor=#7D7D7D;exitX=0;exitY=0.25;exitDx=0;exitDy=0;entryX=1;entryY=0.25;entryDx=0;entryDy=0;" edge="1" parent="1">
          <mxGeometry width="50" height="50" relative="1" as="geometry">
            <mxPoint x="671" y="457.5" as="sourcePoint" />
            <mxPoint x="741" y="457.5" as="targetPoint" />
          </mxGeometry>
        </mxCell>
        <mxCell id="4G4CeqeVtHvaFFHId8Y4-30" value="" style="endArrow=none;html=1;rounded=0;strokeColor=#7D7D7D;exitX=0;exitY=0.25;exitDx=0;exitDy=0;entryX=1;entryY=0.25;entryDx=0;entryDy=0;" edge="1" parent="1">
          <mxGeometry width="50" height="50" relative="1" as="geometry">
            <mxPoint x="671" y="465.5" as="sourcePoint" />
            <mxPoint x="741" y="465.5" as="targetPoint" />
          </mxGeometry>
        </mxCell>
        <mxCell id="4G4CeqeVtHvaFFHId8Y4-31" value="" style="rounded=0;whiteSpace=wrap;html=1;strokeColor=#7D7D7D;" vertex="1" parent="1">
          <mxGeometry x="253.34" y="62" width="21.25" height="70" as="geometry" />
        </mxCell>
        <mxCell id="4G4CeqeVtHvaFFHId8Y4-32" value="" style="endArrow=none;html=1;rounded=0;entryX=1;entryY=0.25;entryDx=0;entryDy=0;exitX=0;exitY=0.25;exitDx=0;exitDy=0;strokeColor=#7D7D7D;" edge="1" parent="1" source="4G4CeqeVtHvaFFHId8Y4-31" target="4G4CeqeVtHvaFFHId8Y4-31">
          <mxGeometry width="50" height="50" relative="1" as="geometry">
            <mxPoint x="263.34" y="82" as="sourcePoint" />
            <mxPoint x="313.34" y="82" as="targetPoint" />
          </mxGeometry>
        </mxCell>
        <mxCell id="4G4CeqeVtHvaFFHId8Y4-33" value="" style="endArrow=none;html=1;rounded=0;entryX=1;entryY=0.75;entryDx=0;entryDy=0;exitX=0;exitY=0.75;exitDx=0;exitDy=0;strokeColor=#7D7D7D;" edge="1" parent="1" source="4G4CeqeVtHvaFFHId8Y4-31" target="4G4CeqeVtHvaFFHId8Y4-31">
          <mxGeometry width="50" height="50" relative="1" as="geometry">
            <mxPoint x="263.34" y="122" as="sourcePoint" />
            <mxPoint x="313.34" y="72" as="targetPoint" />
          </mxGeometry>
        </mxCell>
        <mxCell id="4G4CeqeVtHvaFFHId8Y4-34" value="" style="endArrow=none;html=1;rounded=0;exitX=-0.002;exitY=0.119;exitDx=0;exitDy=0;exitPerimeter=0;entryX=1.005;entryY=0.119;entryDx=0;entryDy=0;entryPerimeter=0;strokeColor=#7D7D7D;" edge="1" parent="1" source="4G4CeqeVtHvaFFHId8Y4-31" target="4G4CeqeVtHvaFFHId8Y4-31">
          <mxGeometry width="50" height="50" relative="1" as="geometry">
            <mxPoint x="273.34" y="122" as="sourcePoint" />
            <mxPoint x="323.34" y="72" as="targetPoint" />
          </mxGeometry>
        </mxCell>
        <mxCell id="4G4CeqeVtHvaFFHId8Y4-35" value="" style="endArrow=none;html=1;rounded=0;exitX=0.003;exitY=0.878;exitDx=0;exitDy=0;exitPerimeter=0;entryX=1.001;entryY=0.877;entryDx=0;entryDy=0;entryPerimeter=0;strokeColor=#7D7D7D;" edge="1" parent="1" source="4G4CeqeVtHvaFFHId8Y4-31" target="4G4CeqeVtHvaFFHId8Y4-31">
          <mxGeometry width="50" height="50" relative="1" as="geometry">
            <mxPoint x="253.34" y="122.00000000000006" as="sourcePoint" />
            <mxPoint x="303.68999999999994" y="122.00000000000006" as="targetPoint" />
          </mxGeometry>
        </mxCell>
        <mxCell id="4G4CeqeVtHvaFFHId8Y4-36" value="" style="endArrow=none;dashed=1;html=1;dashPattern=1 3;strokeWidth=2;rounded=0;strokeColor=#7D7D7D;" edge="1" parent="1">
          <mxGeometry width="50" height="50" relative="1" as="geometry">
            <mxPoint x="263.77" y="107" as="sourcePoint" />
            <mxPoint x="263.77" y="87" as="targetPoint" />
            <Array as="points">
              <mxPoint x="263.77" y="107" />
            </Array>
          </mxGeometry>
        </mxCell>
        <mxCell id="4G4CeqeVtHvaFFHId8Y4-37" value="" style="rounded=0;whiteSpace=wrap;html=1;strokeColor=#7D7D7D;" vertex="1" parent="1">
          <mxGeometry x="246.39" y="67.72" width="21.25" height="70" as="geometry" />
        </mxCell>
        <mxCell id="4G4CeqeVtHvaFFHId8Y4-38" value="" style="endArrow=none;html=1;rounded=0;entryX=1;entryY=0.25;entryDx=0;entryDy=0;exitX=0;exitY=0.25;exitDx=0;exitDy=0;strokeColor=#7D7D7D;" edge="1" parent="1" source="4G4CeqeVtHvaFFHId8Y4-37" target="4G4CeqeVtHvaFFHId8Y4-37">
          <mxGeometry width="50" height="50" relative="1" as="geometry">
            <mxPoint x="256.39" y="87.72" as="sourcePoint" />
            <mxPoint x="306.39" y="87.72" as="targetPoint" />
          </mxGeometry>
        </mxCell>
        <mxCell id="4G4CeqeVtHvaFFHId8Y4-39" value="" style="endArrow=none;html=1;rounded=0;entryX=1;entryY=0.75;entryDx=0;entryDy=0;exitX=0;exitY=0.75;exitDx=0;exitDy=0;strokeColor=#7D7D7D;" edge="1" parent="1" source="4G4CeqeVtHvaFFHId8Y4-37" target="4G4CeqeVtHvaFFHId8Y4-37">
          <mxGeometry width="50" height="50" relative="1" as="geometry">
            <mxPoint x="256.39" y="127.72" as="sourcePoint" />
            <mxPoint x="306.39" y="77.72" as="targetPoint" />
          </mxGeometry>
        </mxCell>
        <mxCell id="4G4CeqeVtHvaFFHId8Y4-40" value="" style="endArrow=none;html=1;rounded=0;exitX=-0.002;exitY=0.119;exitDx=0;exitDy=0;exitPerimeter=0;entryX=1.005;entryY=0.119;entryDx=0;entryDy=0;entryPerimeter=0;strokeColor=#7D7D7D;" edge="1" parent="1" source="4G4CeqeVtHvaFFHId8Y4-37" target="4G4CeqeVtHvaFFHId8Y4-37">
          <mxGeometry width="50" height="50" relative="1" as="geometry">
            <mxPoint x="266.39" y="127.72" as="sourcePoint" />
            <mxPoint x="316.39" y="77.72" as="targetPoint" />
          </mxGeometry>
        </mxCell>
        <mxCell id="4G4CeqeVtHvaFFHId8Y4-41" value="" style="endArrow=none;html=1;rounded=0;exitX=0.003;exitY=0.878;exitDx=0;exitDy=0;exitPerimeter=0;entryX=1.001;entryY=0.877;entryDx=0;entryDy=0;entryPerimeter=0;strokeColor=#7D7D7D;" edge="1" parent="1" source="4G4CeqeVtHvaFFHId8Y4-37" target="4G4CeqeVtHvaFFHId8Y4-37">
          <mxGeometry width="50" height="50" relative="1" as="geometry">
            <mxPoint x="246.38999999999996" y="127.72000000000006" as="sourcePoint" />
            <mxPoint x="296.73999999999995" y="127.72000000000006" as="targetPoint" />
          </mxGeometry>
        </mxCell>
        <mxCell id="4G4CeqeVtHvaFFHId8Y4-42" value="" style="endArrow=none;dashed=1;html=1;dashPattern=1 3;strokeWidth=2;rounded=0;strokeColor=#7D7D7D;" edge="1" parent="1">
          <mxGeometry width="50" height="50" relative="1" as="geometry">
            <mxPoint x="256.82000000000016" y="112.72000000000003" as="sourcePoint" />
            <mxPoint x="256.82000000000016" y="92.72000000000003" as="targetPoint" />
            <Array as="points">
              <mxPoint x="256.82" y="112.72" />
            </Array>
          </mxGeometry>
        </mxCell>
        <mxCell id="4G4CeqeVtHvaFFHId8Y4-43" value="" style="rounded=0;whiteSpace=wrap;html=1;strokeColor=#d79b00;fillColor=#ffe6cc;" vertex="1" parent="1">
          <mxGeometry x="406" y="654" width="26" height="50" as="geometry" />
        </mxCell>
        <mxCell id="4G4CeqeVtHvaFFHId8Y4-44" value="" style="endArrow=none;html=1;rounded=0;entryX=1;entryY=0.5;entryDx=0;entryDy=0;exitX=0;exitY=0.5;exitDx=0;exitDy=0;strokeColor=#d79b00;fillColor=#ffe6cc;" edge="1" parent="1" source="4G4CeqeVtHvaFFHId8Y4-43" target="4G4CeqeVtHvaFFHId8Y4-43">
          <mxGeometry width="50" height="50" relative="1" as="geometry">
            <mxPoint x="436" y="684" as="sourcePoint" />
            <mxPoint x="486" y="684" as="targetPoint" />
          </mxGeometry>
        </mxCell>
        <mxCell id="4G4CeqeVtHvaFFHId8Y4-45" value="" style="endArrow=none;html=1;rounded=0;entryX=1;entryY=0.75;entryDx=0;entryDy=0;exitX=0;exitY=0.75;exitDx=0;exitDy=0;strokeColor=#d79b00;fillColor=#ffe6cc;" edge="1" parent="1" source="4G4CeqeVtHvaFFHId8Y4-43" target="4G4CeqeVtHvaFFHId8Y4-43">
          <mxGeometry width="50" height="50" relative="1" as="geometry">
            <mxPoint x="406" y="694" as="sourcePoint" />
            <mxPoint x="456" y="694" as="targetPoint" />
          </mxGeometry>
        </mxCell>
        <mxCell id="4G4CeqeVtHvaFFHId8Y4-46" value="" style="endArrow=none;html=1;rounded=0;entryX=1;entryY=0.25;entryDx=0;entryDy=0;exitX=0;exitY=0.25;exitDx=0;exitDy=0;strokeColor=#d79b00;fillColor=#ffe6cc;" edge="1" parent="1" source="4G4CeqeVtHvaFFHId8Y4-43" target="4G4CeqeVtHvaFFHId8Y4-43">
          <mxGeometry width="50" height="50" relative="1" as="geometry">
            <mxPoint x="406" y="674" as="sourcePoint" />
            <mxPoint x="456" y="674" as="targetPoint" />
          </mxGeometry>
        </mxCell>
        <mxCell id="4G4CeqeVtHvaFFHId8Y4-47" value="" style="endArrow=none;html=1;rounded=0;entryX=0.5;entryY=1;entryDx=0;entryDy=0;strokeColor=#d79b00;fillColor=#ffe6cc;exitX=0.5;exitY=0;exitDx=0;exitDy=0;" edge="1" parent="1" source="4G4CeqeVtHvaFFHId8Y4-43" target="4G4CeqeVtHvaFFHId8Y4-43">
          <mxGeometry width="50" height="50" relative="1" as="geometry">
            <mxPoint x="432" y="654" as="sourcePoint" />
            <mxPoint x="430.8899999999999" y="704" as="targetPoint" />
          </mxGeometry>
        </mxCell>
        <mxCell id="4G4CeqeVtHvaFFHId8Y4-48" value="" style="rounded=0;whiteSpace=wrap;html=1;strokeColor=#d79b00;fillColor=#ffe6cc;" vertex="1" parent="1">
          <mxGeometry x="400" y="659" width="26" height="50" as="geometry" />
        </mxCell>
        <mxCell id="4G4CeqeVtHvaFFHId8Y4-49" value="" style="endArrow=none;html=1;rounded=0;entryX=1;entryY=0.5;entryDx=0;entryDy=0;exitX=0;exitY=0.5;exitDx=0;exitDy=0;strokeColor=#d79b00;fillColor=#ffe6cc;" edge="1" parent="1" source="4G4CeqeVtHvaFFHId8Y4-48" target="4G4CeqeVtHvaFFHId8Y4-48">
          <mxGeometry width="50" height="50" relative="1" as="geometry">
            <mxPoint x="430" y="689" as="sourcePoint" />
            <mxPoint x="480" y="689" as="targetPoint" />
          </mxGeometry>
        </mxCell>
        <mxCell id="4G4CeqeVtHvaFFHId8Y4-50" value="" style="endArrow=none;html=1;rounded=0;entryX=1;entryY=0.75;entryDx=0;entryDy=0;exitX=0;exitY=0.75;exitDx=0;exitDy=0;strokeColor=#d79b00;fillColor=#ffe6cc;" edge="1" parent="1" source="4G4CeqeVtHvaFFHId8Y4-48" target="4G4CeqeVtHvaFFHId8Y4-48">
          <mxGeometry width="50" height="50" relative="1" as="geometry">
            <mxPoint x="400" y="699" as="sourcePoint" />
            <mxPoint x="450" y="699" as="targetPoint" />
          </mxGeometry>
        </mxCell>
        <mxCell id="4G4CeqeVtHvaFFHId8Y4-51" value="" style="endArrow=none;html=1;rounded=0;entryX=1;entryY=0.25;entryDx=0;entryDy=0;exitX=0;exitY=0.25;exitDx=0;exitDy=0;strokeColor=#d79b00;fillColor=#ffe6cc;" edge="1" parent="1" source="4G4CeqeVtHvaFFHId8Y4-48" target="4G4CeqeVtHvaFFHId8Y4-48">
          <mxGeometry width="50" height="50" relative="1" as="geometry">
            <mxPoint x="400" y="679" as="sourcePoint" />
            <mxPoint x="450" y="679" as="targetPoint" />
          </mxGeometry>
        </mxCell>
        <mxCell id="4G4CeqeVtHvaFFHId8Y4-52" value="" style="endArrow=none;html=1;rounded=0;entryX=0.5;entryY=1;entryDx=0;entryDy=0;strokeColor=#d79b00;fillColor=#ffe6cc;exitX=0.5;exitY=0;exitDx=0;exitDy=0;" edge="1" parent="1" source="4G4CeqeVtHvaFFHId8Y4-48" target="4G4CeqeVtHvaFFHId8Y4-48">
          <mxGeometry width="50" height="50" relative="1" as="geometry">
            <mxPoint x="426" y="659" as="sourcePoint" />
            <mxPoint x="424.8899999999999" y="709" as="targetPoint" />
          </mxGeometry>
        </mxCell>
        <mxCell id="4G4CeqeVtHvaFFHId8Y4-53" value="" style="rounded=0;whiteSpace=wrap;html=1;strokeColor=#d79b00;fillColor=#ffe6cc;" vertex="1" parent="1">
          <mxGeometry x="260" y="644" width="50" height="50" as="geometry" />
        </mxCell>
        <mxCell id="4G4CeqeVtHvaFFHId8Y4-54" value="" style="endArrow=none;html=1;rounded=0;entryX=1;entryY=0.5;entryDx=0;entryDy=0;exitX=0;exitY=0.5;exitDx=0;exitDy=0;strokeColor=#d79b00;fillColor=#ffe6cc;" edge="1" parent="1" source="4G4CeqeVtHvaFFHId8Y4-53" target="4G4CeqeVtHvaFFHId8Y4-53">
          <mxGeometry width="50" height="50" relative="1" as="geometry">
            <mxPoint x="290" y="674" as="sourcePoint" />
            <mxPoint x="340" y="674" as="targetPoint" />
          </mxGeometry>
        </mxCell>
        <mxCell id="4G4CeqeVtHvaFFHId8Y4-55" value="" style="endArrow=none;html=1;rounded=0;entryX=1;entryY=0.75;entryDx=0;entryDy=0;exitX=0;exitY=0.75;exitDx=0;exitDy=0;strokeColor=#d79b00;fillColor=#ffe6cc;" edge="1" parent="1" source="4G4CeqeVtHvaFFHId8Y4-53" target="4G4CeqeVtHvaFFHId8Y4-53">
          <mxGeometry width="50" height="50" relative="1" as="geometry">
            <mxPoint x="260" y="684" as="sourcePoint" />
            <mxPoint x="310" y="684" as="targetPoint" />
          </mxGeometry>
        </mxCell>
        <mxCell id="4G4CeqeVtHvaFFHId8Y4-56" value="" style="endArrow=none;html=1;rounded=0;entryX=1;entryY=0.25;entryDx=0;entryDy=0;exitX=0;exitY=0.25;exitDx=0;exitDy=0;strokeColor=#d79b00;fillColor=#ffe6cc;" edge="1" parent="1" source="4G4CeqeVtHvaFFHId8Y4-53" target="4G4CeqeVtHvaFFHId8Y4-53">
          <mxGeometry width="50" height="50" relative="1" as="geometry">
            <mxPoint x="260" y="664" as="sourcePoint" />
            <mxPoint x="310" y="664" as="targetPoint" />
          </mxGeometry>
        </mxCell>
        <mxCell id="4G4CeqeVtHvaFFHId8Y4-57" value="" style="endArrow=none;html=1;rounded=0;entryX=0.25;entryY=1;entryDx=0;entryDy=0;exitX=0.25;exitY=0;exitDx=0;exitDy=0;strokeColor=#d79b00;fillColor=#ffe6cc;" edge="1" parent="1" source="4G4CeqeVtHvaFFHId8Y4-53" target="4G4CeqeVtHvaFFHId8Y4-53">
          <mxGeometry width="50" height="50" relative="1" as="geometry">
            <mxPoint x="270" y="666.5" as="sourcePoint" />
            <mxPoint x="320" y="666.5" as="targetPoint" />
          </mxGeometry>
        </mxCell>
        <mxCell id="4G4CeqeVtHvaFFHId8Y4-58" value="" style="endArrow=none;html=1;rounded=0;entryX=0.25;entryY=1;entryDx=0;entryDy=0;exitX=0.25;exitY=0;exitDx=0;exitDy=0;strokeColor=#d79b00;fillColor=#ffe6cc;" edge="1" parent="1">
          <mxGeometry width="50" height="50" relative="1" as="geometry">
            <mxPoint x="284.8899999999999" y="644" as="sourcePoint" />
            <mxPoint x="284.8899999999999" y="694" as="targetPoint" />
          </mxGeometry>
        </mxCell>
        <mxCell id="4G4CeqeVtHvaFFHId8Y4-59" value="" style="endArrow=none;html=1;rounded=0;entryX=0.75;entryY=1;entryDx=0;entryDy=0;exitX=0.75;exitY=0;exitDx=0;exitDy=0;strokeColor=#d79b00;fillColor=#ffe6cc;" edge="1" parent="1" source="4G4CeqeVtHvaFFHId8Y4-53" target="4G4CeqeVtHvaFFHId8Y4-53">
          <mxGeometry width="50" height="50" relative="1" as="geometry">
            <mxPoint x="294.89" y="644" as="sourcePoint" />
            <mxPoint x="294.89" y="694" as="targetPoint" />
          </mxGeometry>
        </mxCell>
        <mxCell id="4G4CeqeVtHvaFFHId8Y4-60" value="" style="rounded=0;whiteSpace=wrap;html=1;strokeColor=#d79b00;fillColor=#ffe6cc;" vertex="1" parent="1">
          <mxGeometry x="254" y="649" width="50" height="50" as="geometry" />
        </mxCell>
        <mxCell id="4G4CeqeVtHvaFFHId8Y4-61" value="" style="endArrow=none;html=1;rounded=0;entryX=1;entryY=0.5;entryDx=0;entryDy=0;exitX=0;exitY=0.5;exitDx=0;exitDy=0;strokeColor=#d79b00;fillColor=#ffe6cc;" edge="1" parent="1" source="4G4CeqeVtHvaFFHId8Y4-60" target="4G4CeqeVtHvaFFHId8Y4-60">
          <mxGeometry width="50" height="50" relative="1" as="geometry">
            <mxPoint x="284" y="679" as="sourcePoint" />
            <mxPoint x="334" y="679" as="targetPoint" />
          </mxGeometry>
        </mxCell>
        <mxCell id="4G4CeqeVtHvaFFHId8Y4-62" value="" style="endArrow=none;html=1;rounded=0;entryX=1;entryY=0.75;entryDx=0;entryDy=0;exitX=0;exitY=0.75;exitDx=0;exitDy=0;strokeColor=#d79b00;fillColor=#ffe6cc;" edge="1" parent="1" source="4G4CeqeVtHvaFFHId8Y4-60" target="4G4CeqeVtHvaFFHId8Y4-60">
          <mxGeometry width="50" height="50" relative="1" as="geometry">
            <mxPoint x="254" y="689" as="sourcePoint" />
            <mxPoint x="304" y="689" as="targetPoint" />
          </mxGeometry>
        </mxCell>
        <mxCell id="4G4CeqeVtHvaFFHId8Y4-63" value="" style="endArrow=none;html=1;rounded=0;entryX=1;entryY=0.25;entryDx=0;entryDy=0;exitX=0;exitY=0.25;exitDx=0;exitDy=0;strokeColor=#d79b00;fillColor=#ffe6cc;" edge="1" parent="1" source="4G4CeqeVtHvaFFHId8Y4-60" target="4G4CeqeVtHvaFFHId8Y4-60">
          <mxGeometry width="50" height="50" relative="1" as="geometry">
            <mxPoint x="254" y="669" as="sourcePoint" />
            <mxPoint x="304" y="669" as="targetPoint" />
          </mxGeometry>
        </mxCell>
        <mxCell id="4G4CeqeVtHvaFFHId8Y4-64" value="" style="endArrow=none;html=1;rounded=0;entryX=0.25;entryY=1;entryDx=0;entryDy=0;exitX=0.25;exitY=0;exitDx=0;exitDy=0;strokeColor=#d79b00;fillColor=#ffe6cc;" edge="1" parent="1" source="4G4CeqeVtHvaFFHId8Y4-60" target="4G4CeqeVtHvaFFHId8Y4-60">
          <mxGeometry width="50" height="50" relative="1" as="geometry">
            <mxPoint x="264" y="671.5" as="sourcePoint" />
            <mxPoint x="314" y="671.5" as="targetPoint" />
          </mxGeometry>
        </mxCell>
        <mxCell id="4G4CeqeVtHvaFFHId8Y4-65" value="" style="endArrow=none;html=1;rounded=0;entryX=0.25;entryY=1;entryDx=0;entryDy=0;exitX=0.25;exitY=0;exitDx=0;exitDy=0;strokeColor=#d79b00;fillColor=#ffe6cc;" edge="1" parent="1">
          <mxGeometry width="50" height="50" relative="1" as="geometry">
            <mxPoint x="278.8899999999999" y="649" as="sourcePoint" />
            <mxPoint x="278.8899999999999" y="699" as="targetPoint" />
          </mxGeometry>
        </mxCell>
        <mxCell id="4G4CeqeVtHvaFFHId8Y4-66" value="" style="endArrow=none;html=1;rounded=0;entryX=0.75;entryY=1;entryDx=0;entryDy=0;exitX=0.75;exitY=0;exitDx=0;exitDy=0;strokeColor=#d79b00;fillColor=#ffe6cc;" edge="1" parent="1" source="4G4CeqeVtHvaFFHId8Y4-60" target="4G4CeqeVtHvaFFHId8Y4-60">
          <mxGeometry width="50" height="50" relative="1" as="geometry">
            <mxPoint x="288.89" y="649" as="sourcePoint" />
            <mxPoint x="288.89" y="699" as="targetPoint" />
          </mxGeometry>
        </mxCell>
        <mxCell id="4G4CeqeVtHvaFFHId8Y4-67" value="" style="rounded=0;whiteSpace=wrap;html=1;strokeColor=#d79b00;fillColor=#ffe6cc;rotation=-90;" vertex="1" parent="1">
          <mxGeometry x="468" y="127.57" width="45" height="15" as="geometry" />
        </mxCell>
        <mxCell id="4G4CeqeVtHvaFFHId8Y4-68" value="" style="endArrow=none;html=1;rounded=0;entryX=0.33;entryY=0.021;entryDx=0;entryDy=0;strokeColor=#d79b00;fillColor=#ffe6cc;entryPerimeter=0;exitX=0.33;exitY=1.005;exitDx=0;exitDy=0;exitPerimeter=0;" edge="1" parent="1" source="4G4CeqeVtHvaFFHId8Y4-67" target="4G4CeqeVtHvaFFHId8Y4-67">
          <mxGeometry width="50" height="50" relative="1" as="geometry">
            <mxPoint x="541" y="114.57" as="sourcePoint" />
            <mxPoint x="520.89" y="124.57" as="targetPoint" />
          </mxGeometry>
        </mxCell>
        <mxCell id="4G4CeqeVtHvaFFHId8Y4-69" value="" style="endArrow=none;html=1;rounded=0;strokeColor=#d79b00;fillColor=#ffe6cc;exitX=0.665;exitY=0.025;exitDx=0;exitDy=0;exitPerimeter=0;entryX=0.668;entryY=1.027;entryDx=0;entryDy=0;entryPerimeter=0;" edge="1" parent="1" source="4G4CeqeVtHvaFFHId8Y4-67" target="4G4CeqeVtHvaFFHId8Y4-67">
          <mxGeometry width="50" height="50" relative="1" as="geometry">
            <mxPoint x="481" y="114.57" as="sourcePoint" />
            <mxPoint x="511" y="134.57" as="targetPoint" />
          </mxGeometry>
        </mxCell>
        <mxCell id="4G4CeqeVtHvaFFHId8Y4-70" value="" style="rounded=0;whiteSpace=wrap;html=1;strokeColor=#d79b00;fillColor=#ffe6cc;rotation=-90;" vertex="1" parent="1">
          <mxGeometry x="462" y="132" width="45" height="15" as="geometry" />
        </mxCell>
        <mxCell id="4G4CeqeVtHvaFFHId8Y4-71" value="" style="endArrow=none;html=1;rounded=0;entryX=0.33;entryY=0.021;entryDx=0;entryDy=0;strokeColor=#d79b00;fillColor=#ffe6cc;entryPerimeter=0;exitX=0.33;exitY=1.005;exitDx=0;exitDy=0;exitPerimeter=0;" edge="1" parent="1" source="4G4CeqeVtHvaFFHId8Y4-70" target="4G4CeqeVtHvaFFHId8Y4-70">
          <mxGeometry width="50" height="50" relative="1" as="geometry">
            <mxPoint x="531" y="121.72" as="sourcePoint" />
            <mxPoint x="510.89" y="131.72" as="targetPoint" />
          </mxGeometry>
        </mxCell>
        <mxCell id="4G4CeqeVtHvaFFHId8Y4-72" value="" style="endArrow=none;html=1;rounded=0;strokeColor=#d79b00;fillColor=#ffe6cc;exitX=0.665;exitY=0.025;exitDx=0;exitDy=0;exitPerimeter=0;entryX=0.668;entryY=1.027;entryDx=0;entryDy=0;entryPerimeter=0;" edge="1" parent="1" source="4G4CeqeVtHvaFFHId8Y4-70" target="4G4CeqeVtHvaFFHId8Y4-70">
          <mxGeometry width="50" height="50" relative="1" as="geometry">
            <mxPoint x="471" y="121.72" as="sourcePoint" />
            <mxPoint x="501" y="141.72" as="targetPoint" />
          </mxGeometry>
        </mxCell>
        <mxCell id="4G4CeqeVtHvaFFHId8Y4-73" value="" style="rounded=0;whiteSpace=wrap;html=1;strokeColor=#d79b00;fillColor=#ffe6cc;rotation=-90;" vertex="1" parent="1">
          <mxGeometry x="456" y="137.72" width="45" height="15" as="geometry" />
        </mxCell>
        <mxCell id="4G4CeqeVtHvaFFHId8Y4-74" value="" style="endArrow=none;html=1;rounded=0;entryX=0.33;entryY=0.021;entryDx=0;entryDy=0;strokeColor=#d79b00;fillColor=#ffe6cc;entryPerimeter=0;exitX=0.33;exitY=1.005;exitDx=0;exitDy=0;exitPerimeter=0;" edge="1" parent="1" source="4G4CeqeVtHvaFFHId8Y4-73" target="4G4CeqeVtHvaFFHId8Y4-73">
          <mxGeometry width="50" height="50" relative="1" as="geometry">
            <mxPoint x="526" y="127.72" as="sourcePoint" />
            <mxPoint x="505.89" y="137.72" as="targetPoint" />
          </mxGeometry>
        </mxCell>
        <mxCell id="4G4CeqeVtHvaFFHId8Y4-75" value="" style="endArrow=none;html=1;rounded=0;strokeColor=#d79b00;fillColor=#ffe6cc;exitX=0.665;exitY=0.025;exitDx=0;exitDy=0;exitPerimeter=0;entryX=0.668;entryY=1.027;entryDx=0;entryDy=0;entryPerimeter=0;" edge="1" parent="1" source="4G4CeqeVtHvaFFHId8Y4-73" target="4G4CeqeVtHvaFFHId8Y4-73">
          <mxGeometry width="50" height="50" relative="1" as="geometry">
            <mxPoint x="466" y="127.72" as="sourcePoint" />
            <mxPoint x="496" y="147.72" as="targetPoint" />
          </mxGeometry>
        </mxCell>
        <mxCell id="4G4CeqeVtHvaFFHId8Y4-76" value="" style="rounded=0;whiteSpace=wrap;html=1;strokeColor=#7D7D7D;" vertex="1" parent="1">
          <mxGeometry x="363" y="390" width="50" height="50" as="geometry" />
        </mxCell>
        <mxCell id="4G4CeqeVtHvaFFHId8Y4-77" value="" style="endArrow=none;html=1;rounded=0;entryX=1;entryY=0.5;entryDx=0;entryDy=0;exitX=0;exitY=0.5;exitDx=0;exitDy=0;strokeColor=#7D7D7D;" edge="1" parent="1" source="4G4CeqeVtHvaFFHId8Y4-76" target="4G4CeqeVtHvaFFHId8Y4-76">
          <mxGeometry width="50" height="50" relative="1" as="geometry">
            <mxPoint x="393" y="419.99999999999994" as="sourcePoint" />
            <mxPoint x="443" y="419.99999999999994" as="targetPoint" />
          </mxGeometry>
        </mxCell>
        <mxCell id="4G4CeqeVtHvaFFHId8Y4-78" value="" style="endArrow=none;html=1;rounded=0;entryX=1;entryY=0.75;entryDx=0;entryDy=0;exitX=0;exitY=0.75;exitDx=0;exitDy=0;strokeColor=#7D7D7D;" edge="1" parent="1" source="4G4CeqeVtHvaFFHId8Y4-76" target="4G4CeqeVtHvaFFHId8Y4-76">
          <mxGeometry width="50" height="50" relative="1" as="geometry">
            <mxPoint x="363" y="430" as="sourcePoint" />
            <mxPoint x="413" y="430" as="targetPoint" />
          </mxGeometry>
        </mxCell>
        <mxCell id="4G4CeqeVtHvaFFHId8Y4-79" value="" style="endArrow=none;html=1;rounded=0;entryX=1;entryY=0.25;entryDx=0;entryDy=0;exitX=0;exitY=0.25;exitDx=0;exitDy=0;strokeColor=#7D7D7D;" edge="1" parent="1" source="4G4CeqeVtHvaFFHId8Y4-76" target="4G4CeqeVtHvaFFHId8Y4-76">
          <mxGeometry width="50" height="50" relative="1" as="geometry">
            <mxPoint x="363" y="410" as="sourcePoint" />
            <mxPoint x="413" y="410" as="targetPoint" />
          </mxGeometry>
        </mxCell>
        <mxCell id="4G4CeqeVtHvaFFHId8Y4-80" value="" style="endArrow=none;html=1;rounded=0;entryX=0.25;entryY=1;entryDx=0;entryDy=0;exitX=0.25;exitY=0;exitDx=0;exitDy=0;strokeColor=#7D7D7D;" edge="1" parent="1" source="4G4CeqeVtHvaFFHId8Y4-76" target="4G4CeqeVtHvaFFHId8Y4-76">
          <mxGeometry width="50" height="50" relative="1" as="geometry">
            <mxPoint x="373" y="412.5" as="sourcePoint" />
            <mxPoint x="423" y="412.5" as="targetPoint" />
          </mxGeometry>
        </mxCell>
        <mxCell id="4G4CeqeVtHvaFFHId8Y4-81" value="" style="endArrow=none;html=1;rounded=0;entryX=0.25;entryY=1;entryDx=0;entryDy=0;exitX=0.25;exitY=0;exitDx=0;exitDy=0;strokeColor=#7D7D7D;" edge="1" parent="1">
          <mxGeometry width="50" height="50" relative="1" as="geometry">
            <mxPoint x="387.8899999999999" y="390" as="sourcePoint" />
            <mxPoint x="387.8899999999999" y="440" as="targetPoint" />
          </mxGeometry>
        </mxCell>
        <mxCell id="4G4CeqeVtHvaFFHId8Y4-82" value="" style="endArrow=none;html=1;rounded=0;entryX=0.75;entryY=1;entryDx=0;entryDy=0;exitX=0.75;exitY=0;exitDx=0;exitDy=0;strokeColor=#7D7D7D;" edge="1" parent="1" source="4G4CeqeVtHvaFFHId8Y4-76" target="4G4CeqeVtHvaFFHId8Y4-76">
          <mxGeometry width="50" height="50" relative="1" as="geometry">
            <mxPoint x="397.89" y="390" as="sourcePoint" />
            <mxPoint x="397.89" y="440" as="targetPoint" />
          </mxGeometry>
        </mxCell>
        <mxCell id="4G4CeqeVtHvaFFHId8Y4-83" value="" style="rounded=0;whiteSpace=wrap;html=1;strokeColor=#7D7D7D;" vertex="1" parent="1">
          <mxGeometry x="357" y="396" width="50" height="50" as="geometry" />
        </mxCell>
        <mxCell id="4G4CeqeVtHvaFFHId8Y4-84" value="" style="endArrow=none;html=1;rounded=0;entryX=1;entryY=0.5;entryDx=0;entryDy=0;exitX=0;exitY=0.5;exitDx=0;exitDy=0;strokeColor=#7D7D7D;" edge="1" parent="1" source="4G4CeqeVtHvaFFHId8Y4-83" target="4G4CeqeVtHvaFFHId8Y4-83">
          <mxGeometry width="50" height="50" relative="1" as="geometry">
            <mxPoint x="387" y="425.99999999999994" as="sourcePoint" />
            <mxPoint x="437" y="425.99999999999994" as="targetPoint" />
          </mxGeometry>
        </mxCell>
        <mxCell id="4G4CeqeVtHvaFFHId8Y4-85" value="" style="endArrow=none;html=1;rounded=0;entryX=1;entryY=0.75;entryDx=0;entryDy=0;exitX=0;exitY=0.75;exitDx=0;exitDy=0;strokeColor=#7D7D7D;" edge="1" parent="1" source="4G4CeqeVtHvaFFHId8Y4-83" target="4G4CeqeVtHvaFFHId8Y4-83">
          <mxGeometry width="50" height="50" relative="1" as="geometry">
            <mxPoint x="357" y="436" as="sourcePoint" />
            <mxPoint x="407" y="436" as="targetPoint" />
          </mxGeometry>
        </mxCell>
        <mxCell id="4G4CeqeVtHvaFFHId8Y4-86" value="" style="endArrow=none;html=1;rounded=0;entryX=1;entryY=0.25;entryDx=0;entryDy=0;exitX=0;exitY=0.25;exitDx=0;exitDy=0;strokeColor=#7D7D7D;" edge="1" parent="1" source="4G4CeqeVtHvaFFHId8Y4-83" target="4G4CeqeVtHvaFFHId8Y4-83">
          <mxGeometry width="50" height="50" relative="1" as="geometry">
            <mxPoint x="357" y="416" as="sourcePoint" />
            <mxPoint x="407" y="416" as="targetPoint" />
          </mxGeometry>
        </mxCell>
        <mxCell id="4G4CeqeVtHvaFFHId8Y4-87" value="" style="endArrow=none;html=1;rounded=0;entryX=0.25;entryY=1;entryDx=0;entryDy=0;exitX=0.25;exitY=0;exitDx=0;exitDy=0;strokeColor=#7D7D7D;" edge="1" parent="1" source="4G4CeqeVtHvaFFHId8Y4-83" target="4G4CeqeVtHvaFFHId8Y4-83">
          <mxGeometry width="50" height="50" relative="1" as="geometry">
            <mxPoint x="367" y="418.5" as="sourcePoint" />
            <mxPoint x="417" y="418.5" as="targetPoint" />
          </mxGeometry>
        </mxCell>
        <mxCell id="4G4CeqeVtHvaFFHId8Y4-88" value="" style="endArrow=none;html=1;rounded=0;entryX=0.25;entryY=1;entryDx=0;entryDy=0;exitX=0.25;exitY=0;exitDx=0;exitDy=0;strokeColor=#7D7D7D;" edge="1" parent="1">
          <mxGeometry width="50" height="50" relative="1" as="geometry">
            <mxPoint x="381.8899999999999" y="396" as="sourcePoint" />
            <mxPoint x="381.8899999999999" y="446" as="targetPoint" />
          </mxGeometry>
        </mxCell>
        <mxCell id="4G4CeqeVtHvaFFHId8Y4-89" value="" style="endArrow=none;html=1;rounded=0;entryX=0.75;entryY=1;entryDx=0;entryDy=0;exitX=0.75;exitY=0;exitDx=0;exitDy=0;strokeColor=#7D7D7D;" edge="1" parent="1" source="4G4CeqeVtHvaFFHId8Y4-83" target="4G4CeqeVtHvaFFHId8Y4-83">
          <mxGeometry width="50" height="50" relative="1" as="geometry">
            <mxPoint x="391.89" y="396" as="sourcePoint" />
            <mxPoint x="391.89" y="446" as="targetPoint" />
          </mxGeometry>
        </mxCell>
        <mxCell id="4G4CeqeVtHvaFFHId8Y4-90" value="" style="rounded=0;whiteSpace=wrap;html=1;strokeColor=#7D7D7D;" vertex="1" parent="1">
          <mxGeometry x="240" y="260" width="50" height="70" as="geometry" />
        </mxCell>
        <mxCell id="4G4CeqeVtHvaFFHId8Y4-91" value="" style="endArrow=none;html=1;rounded=0;entryX=1;entryY=0.25;entryDx=0;entryDy=0;exitX=0;exitY=0.25;exitDx=0;exitDy=0;strokeColor=#7D7D7D;" edge="1" parent="1" source="4G4CeqeVtHvaFFHId8Y4-90" target="4G4CeqeVtHvaFFHId8Y4-90">
          <mxGeometry width="50" height="50" relative="1" as="geometry">
            <mxPoint x="250" y="280" as="sourcePoint" />
            <mxPoint x="300" y="280" as="targetPoint" />
          </mxGeometry>
        </mxCell>
        <mxCell id="4G4CeqeVtHvaFFHId8Y4-92" value="" style="endArrow=none;html=1;rounded=0;entryX=1;entryY=0.75;entryDx=0;entryDy=0;exitX=0;exitY=0.75;exitDx=0;exitDy=0;strokeColor=#7D7D7D;" edge="1" parent="1" source="4G4CeqeVtHvaFFHId8Y4-90" target="4G4CeqeVtHvaFFHId8Y4-90">
          <mxGeometry width="50" height="50" relative="1" as="geometry">
            <mxPoint x="250" y="320" as="sourcePoint" />
            <mxPoint x="300" y="270" as="targetPoint" />
          </mxGeometry>
        </mxCell>
        <mxCell id="4G4CeqeVtHvaFFHId8Y4-93" value="" style="endArrow=none;html=1;rounded=0;exitX=-0.002;exitY=0.119;exitDx=0;exitDy=0;exitPerimeter=0;entryX=1.005;entryY=0.119;entryDx=0;entryDy=0;entryPerimeter=0;strokeColor=#7D7D7D;" edge="1" parent="1" source="4G4CeqeVtHvaFFHId8Y4-90" target="4G4CeqeVtHvaFFHId8Y4-90">
          <mxGeometry width="50" height="50" relative="1" as="geometry">
            <mxPoint x="260" y="320" as="sourcePoint" />
            <mxPoint x="310" y="270" as="targetPoint" />
          </mxGeometry>
        </mxCell>
        <mxCell id="4G4CeqeVtHvaFFHId8Y4-94" value="" style="endArrow=none;html=1;rounded=0;exitX=0.003;exitY=0.878;exitDx=0;exitDy=0;exitPerimeter=0;entryX=1.001;entryY=0.877;entryDx=0;entryDy=0;entryPerimeter=0;strokeColor=#7D7D7D;" edge="1" parent="1" source="4G4CeqeVtHvaFFHId8Y4-90" target="4G4CeqeVtHvaFFHId8Y4-90">
          <mxGeometry width="50" height="50" relative="1" as="geometry">
            <mxPoint x="239.99999999999997" y="320.00000000000006" as="sourcePoint" />
            <mxPoint x="290.34999999999997" y="320.00000000000006" as="targetPoint" />
          </mxGeometry>
        </mxCell>
        <mxCell id="4G4CeqeVtHvaFFHId8Y4-95" value="" style="endArrow=none;dashed=1;html=1;dashPattern=1 3;strokeWidth=2;rounded=0;strokeColor=#7D7D7D;" edge="1" parent="1">
          <mxGeometry width="50" height="50" relative="1" as="geometry">
            <mxPoint x="264.9200000000001" y="305" as="sourcePoint" />
            <mxPoint x="264.9200000000001" y="285" as="targetPoint" />
            <Array as="points">
              <mxPoint x="264.92" y="305" />
            </Array>
          </mxGeometry>
        </mxCell>
        <mxCell id="4G4CeqeVtHvaFFHId8Y4-96" value="" style="endArrow=classic;html=1;rounded=0;strokeColor=#7D7D7D;" edge="1" parent="1">
          <mxGeometry width="50" height="50" relative="1" as="geometry">
            <mxPoint x="230" y="260" as="sourcePoint" />
            <mxPoint x="230" y="330" as="targetPoint" />
          </mxGeometry>
        </mxCell>
        <mxCell id="4G4CeqeVtHvaFFHId8Y4-97" value="" style="endArrow=classic;html=1;rounded=0;strokeColor=#7D7D7D;" edge="1" parent="1">
          <mxGeometry width="50" height="50" relative="1" as="geometry">
            <mxPoint x="240" y="340" as="sourcePoint" />
            <mxPoint x="290" y="340" as="targetPoint" />
          </mxGeometry>
        </mxCell>
        <mxCell id="4G4CeqeVtHvaFFHId8Y4-98" value="t" style="text;html=1;strokeColor=none;fillColor=none;align=center;verticalAlign=middle;whiteSpace=wrap;rounded=0;" vertex="1" parent="1">
          <mxGeometry x="219" y="280" width="10" height="30" as="geometry" />
        </mxCell>
        <mxCell id="4G4CeqeVtHvaFFHId8Y4-99" value="f" style="text;html=1;strokeColor=none;fillColor=none;align=center;verticalAlign=middle;whiteSpace=wrap;rounded=0;" vertex="1" parent="1">
          <mxGeometry x="259" y="340" width="10" height="20" as="geometry" />
        </mxCell>
        <mxCell id="4G4CeqeVtHvaFFHId8Y4-100" value="" style="whiteSpace=wrap;html=1;aspect=fixed;strokeColor=#7D7D7D;" vertex="1" parent="1">
          <mxGeometry x="325" y="260" width="70" height="70" as="geometry" />
        </mxCell>
        <mxCell id="4G4CeqeVtHvaFFHId8Y4-101" value="" style="endArrow=none;html=1;rounded=0;strokeColor=#7D7D7D;entryX=0.25;entryY=0;entryDx=0;entryDy=0;exitX=0.25;exitY=1;exitDx=0;exitDy=0;" edge="1" parent="1" source="4G4CeqeVtHvaFFHId8Y4-100" target="4G4CeqeVtHvaFFHId8Y4-100">
          <mxGeometry width="50" height="50" relative="1" as="geometry">
            <mxPoint x="335" y="310" as="sourcePoint" />
            <mxPoint x="385" y="260" as="targetPoint" />
          </mxGeometry>
        </mxCell>
        <mxCell id="4G4CeqeVtHvaFFHId8Y4-102" value="" style="endArrow=none;html=1;rounded=0;strokeColor=#7D7D7D;entryX=0.75;entryY=0;entryDx=0;entryDy=0;exitX=0.75;exitY=1;exitDx=0;exitDy=0;" edge="1" parent="1" source="4G4CeqeVtHvaFFHId8Y4-100" target="4G4CeqeVtHvaFFHId8Y4-100">
          <mxGeometry width="50" height="50" relative="1" as="geometry">
            <mxPoint x="435" y="330" as="sourcePoint" />
            <mxPoint x="435" y="250" as="targetPoint" />
          </mxGeometry>
        </mxCell>
        <mxCell id="4G4CeqeVtHvaFFHId8Y4-103" value="" style="endArrow=none;html=1;rounded=0;strokeColor=#7D7D7D;entryX=0.75;entryY=0;entryDx=0;entryDy=0;exitX=0.75;exitY=1;exitDx=0;exitDy=0;" edge="1" parent="1">
          <mxGeometry width="50" height="50" relative="1" as="geometry">
            <mxPoint x="334" y="330" as="sourcePoint" />
            <mxPoint x="334" y="260" as="targetPoint" />
          </mxGeometry>
        </mxCell>
        <mxCell id="4G4CeqeVtHvaFFHId8Y4-104" value="" style="endArrow=none;html=1;rounded=0;strokeColor=#7D7D7D;entryX=0.75;entryY=0;entryDx=0;entryDy=0;exitX=0.75;exitY=1;exitDx=0;exitDy=0;" edge="1" parent="1">
          <mxGeometry width="50" height="50" relative="1" as="geometry">
            <mxPoint x="386" y="330" as="sourcePoint" />
            <mxPoint x="386" y="260" as="targetPoint" />
          </mxGeometry>
        </mxCell>
        <mxCell id="4G4CeqeVtHvaFFHId8Y4-105" value="" style="endArrow=none;html=1;rounded=0;strokeColor=#7D7D7D;exitX=0;exitY=0.25;exitDx=0;exitDy=0;entryX=1;entryY=0.25;entryDx=0;entryDy=0;" edge="1" parent="1" source="4G4CeqeVtHvaFFHId8Y4-100" target="4G4CeqeVtHvaFFHId8Y4-100">
          <mxGeometry width="50" height="50" relative="1" as="geometry">
            <mxPoint x="335" y="290" as="sourcePoint" />
            <mxPoint x="385" y="240" as="targetPoint" />
          </mxGeometry>
        </mxCell>
        <mxCell id="4G4CeqeVtHvaFFHId8Y4-106" value="" style="endArrow=none;html=1;rounded=0;strokeColor=#7D7D7D;exitX=0;exitY=0.25;exitDx=0;exitDy=0;entryX=1;entryY=0.25;entryDx=0;entryDy=0;" edge="1" parent="1">
          <mxGeometry width="50" height="50" relative="1" as="geometry">
            <mxPoint x="325" y="269" as="sourcePoint" />
            <mxPoint x="395" y="269" as="targetPoint" />
          </mxGeometry>
        </mxCell>
        <mxCell id="4G4CeqeVtHvaFFHId8Y4-107" value="" style="endArrow=none;html=1;rounded=0;strokeColor=#7D7D7D;exitX=0;exitY=0.75;exitDx=0;exitDy=0;entryX=1;entryY=0.75;entryDx=0;entryDy=0;" edge="1" parent="1" source="4G4CeqeVtHvaFFHId8Y4-100" target="4G4CeqeVtHvaFFHId8Y4-100">
          <mxGeometry width="50" height="50" relative="1" as="geometry">
            <mxPoint x="325" y="320" as="sourcePoint" />
            <mxPoint x="395" y="320" as="targetPoint" />
          </mxGeometry>
        </mxCell>
        <mxCell id="4G4CeqeVtHvaFFHId8Y4-108" value="" style="endArrow=none;html=1;rounded=0;strokeColor=#7D7D7D;exitX=0;exitY=0.75;exitDx=0;exitDy=0;entryX=1;entryY=0.75;entryDx=0;entryDy=0;" edge="1" parent="1">
          <mxGeometry width="50" height="50" relative="1" as="geometry">
            <mxPoint x="325" y="321" as="sourcePoint" />
            <mxPoint x="395" y="321" as="targetPoint" />
          </mxGeometry>
        </mxCell>
        <mxCell id="4G4CeqeVtHvaFFHId8Y4-109" value="" style="rounded=0;whiteSpace=wrap;html=1;strokeColor=#7D7D7D;" vertex="1" parent="1">
          <mxGeometry x="191" y="260" width="9" height="70" as="geometry" />
        </mxCell>
        <mxCell id="4G4CeqeVtHvaFFHId8Y4-110" value="" style="endArrow=none;html=1;rounded=0;entryX=1;entryY=0.25;entryDx=0;entryDy=0;exitX=0;exitY=0.25;exitDx=0;exitDy=0;strokeColor=#7D7D7D;" edge="1" parent="1" source="4G4CeqeVtHvaFFHId8Y4-109" target="4G4CeqeVtHvaFFHId8Y4-109">
          <mxGeometry width="50" height="50" relative="1" as="geometry">
            <mxPoint x="201" y="280" as="sourcePoint" />
            <mxPoint x="251" y="280" as="targetPoint" />
          </mxGeometry>
        </mxCell>
        <mxCell id="4G4CeqeVtHvaFFHId8Y4-111" value="" style="endArrow=none;html=1;rounded=0;entryX=1;entryY=0.75;entryDx=0;entryDy=0;exitX=0;exitY=0.75;exitDx=0;exitDy=0;strokeColor=#7D7D7D;" edge="1" parent="1" source="4G4CeqeVtHvaFFHId8Y4-109" target="4G4CeqeVtHvaFFHId8Y4-109">
          <mxGeometry width="50" height="50" relative="1" as="geometry">
            <mxPoint x="201" y="320" as="sourcePoint" />
            <mxPoint x="251" y="270" as="targetPoint" />
          </mxGeometry>
        </mxCell>
        <mxCell id="4G4CeqeVtHvaFFHId8Y4-112" value="" style="endArrow=none;html=1;rounded=0;exitX=-0.002;exitY=0.119;exitDx=0;exitDy=0;exitPerimeter=0;entryX=1.005;entryY=0.119;entryDx=0;entryDy=0;entryPerimeter=0;strokeColor=#7D7D7D;" edge="1" parent="1" source="4G4CeqeVtHvaFFHId8Y4-109" target="4G4CeqeVtHvaFFHId8Y4-109">
          <mxGeometry width="50" height="50" relative="1" as="geometry">
            <mxPoint x="211" y="320" as="sourcePoint" />
            <mxPoint x="261" y="270" as="targetPoint" />
          </mxGeometry>
        </mxCell>
        <mxCell id="4G4CeqeVtHvaFFHId8Y4-113" value="" style="endArrow=none;html=1;rounded=0;exitX=0.003;exitY=0.878;exitDx=0;exitDy=0;exitPerimeter=0;entryX=1.001;entryY=0.877;entryDx=0;entryDy=0;entryPerimeter=0;strokeColor=#7D7D7D;" edge="1" parent="1" source="4G4CeqeVtHvaFFHId8Y4-109" target="4G4CeqeVtHvaFFHId8Y4-109">
          <mxGeometry width="50" height="50" relative="1" as="geometry">
            <mxPoint x="190.99999999999997" y="320.00000000000006" as="sourcePoint" />
            <mxPoint x="241.34999999999997" y="320.00000000000006" as="targetPoint" />
          </mxGeometry>
        </mxCell>
        <mxCell id="4G4CeqeVtHvaFFHId8Y4-114" value="" style="endArrow=classic;html=1;rounded=0;strokeColor=#7D7D7D;" edge="1" parent="1">
          <mxGeometry width="50" height="50" relative="1" as="geometry">
            <mxPoint x="181" y="260" as="sourcePoint" />
            <mxPoint x="181" y="330" as="targetPoint" />
          </mxGeometry>
        </mxCell>
        <mxCell id="4G4CeqeVtHvaFFHId8Y4-115" value="t" style="text;html=1;strokeColor=none;fillColor=none;align=center;verticalAlign=middle;whiteSpace=wrap;rounded=0;" vertex="1" parent="1">
          <mxGeometry x="170" y="280" width="10" height="30" as="geometry" />
        </mxCell>
        <mxCell id="4G4CeqeVtHvaFFHId8Y4-116" value="" style="endArrow=none;dashed=1;html=1;dashPattern=1 3;strokeWidth=2;rounded=0;strokeColor=#7D7D7D;" edge="1" parent="1">
          <mxGeometry width="50" height="50" relative="1" as="geometry">
            <mxPoint x="195.38999999999987" y="305" as="sourcePoint" />
            <mxPoint x="195.38999999999987" y="285" as="targetPoint" />
            <Array as="points">
              <mxPoint x="195.39000000000001" y="305" />
            </Array>
          </mxGeometry>
        </mxCell>
        <mxCell id="4G4CeqeVtHvaFFHId8Y4-117" value="" style="endArrow=none;html=1;rounded=0;strokeColor=#7D7D7D;entryX=0.75;entryY=0;entryDx=0;entryDy=0;exitX=0.75;exitY=1;exitDx=0;exitDy=0;" edge="1" parent="1">
          <mxGeometry width="50" height="50" relative="1" as="geometry">
            <mxPoint x="359.8899999999999" y="330" as="sourcePoint" />
            <mxPoint x="359.8899999999999" y="260" as="targetPoint" />
          </mxGeometry>
        </mxCell>
        <mxCell id="4G4CeqeVtHvaFFHId8Y4-118" value="" style="endArrow=none;html=1;rounded=0;strokeColor=#7D7D7D;entryX=0.75;entryY=0;entryDx=0;entryDy=0;exitX=0.75;exitY=1;exitDx=0;exitDy=0;" edge="1" parent="1">
          <mxGeometry width="50" height="50" relative="1" as="geometry">
            <mxPoint x="368.8899999999999" y="330" as="sourcePoint" />
            <mxPoint x="368.8899999999999" y="260" as="targetPoint" />
          </mxGeometry>
        </mxCell>
        <mxCell id="4G4CeqeVtHvaFFHId8Y4-119" value="" style="endArrow=none;html=1;rounded=0;strokeColor=#7D7D7D;entryX=0.75;entryY=0;entryDx=0;entryDy=0;exitX=0.75;exitY=1;exitDx=0;exitDy=0;" edge="1" parent="1">
          <mxGeometry width="50" height="50" relative="1" as="geometry">
            <mxPoint x="351" y="330" as="sourcePoint" />
            <mxPoint x="351" y="260" as="targetPoint" />
          </mxGeometry>
        </mxCell>
        <mxCell id="4G4CeqeVtHvaFFHId8Y4-120" value="" style="endArrow=none;html=1;rounded=0;strokeColor=#7D7D7D;exitX=0;exitY=0.25;exitDx=0;exitDy=0;entryX=1;entryY=0.25;entryDx=0;entryDy=0;" edge="1" parent="1">
          <mxGeometry width="50" height="50" relative="1" as="geometry">
            <mxPoint x="325" y="286.5" as="sourcePoint" />
            <mxPoint x="395" y="286.5" as="targetPoint" />
          </mxGeometry>
        </mxCell>
        <mxCell id="4G4CeqeVtHvaFFHId8Y4-121" value="" style="endArrow=none;html=1;rounded=0;strokeColor=#7D7D7D;exitX=0;exitY=0.25;exitDx=0;exitDy=0;entryX=1;entryY=0.25;entryDx=0;entryDy=0;" edge="1" parent="1">
          <mxGeometry width="50" height="50" relative="1" as="geometry">
            <mxPoint x="325" y="295.5" as="sourcePoint" />
            <mxPoint x="395" y="295.5" as="targetPoint" />
          </mxGeometry>
        </mxCell>
        <mxCell id="4G4CeqeVtHvaFFHId8Y4-122" value="" style="endArrow=none;html=1;rounded=0;strokeColor=#7D7D7D;exitX=0;exitY=0.25;exitDx=0;exitDy=0;entryX=1;entryY=0.25;entryDx=0;entryDy=0;" edge="1" parent="1">
          <mxGeometry width="50" height="50" relative="1" as="geometry">
            <mxPoint x="325" y="303.5" as="sourcePoint" />
            <mxPoint x="395" y="303.5" as="targetPoint" />
          </mxGeometry>
        </mxCell>
        <mxCell id="4G4CeqeVtHvaFFHId8Y4-123" value="" style="endArrow=classic;html=1;rounded=0;strokeColor=#7D7D7D;" edge="1" parent="1">
          <mxGeometry width="50" height="50" relative="1" as="geometry">
            <mxPoint x="314" y="260" as="sourcePoint" />
            <mxPoint x="314" y="330" as="targetPoint" />
          </mxGeometry>
        </mxCell>
        <mxCell id="4G4CeqeVtHvaFFHId8Y4-124" value="t" style="text;html=1;strokeColor=none;fillColor=none;align=center;verticalAlign=middle;whiteSpace=wrap;rounded=0;" vertex="1" parent="1">
          <mxGeometry x="303" y="280" width="10" height="30" as="geometry" />
        </mxCell>
        <mxCell id="4G4CeqeVtHvaFFHId8Y4-125" value="" style="endArrow=classic;html=1;rounded=0;strokeColor=#7D7D7D;" edge="1" parent="1">
          <mxGeometry width="50" height="50" relative="1" as="geometry">
            <mxPoint x="325" y="340" as="sourcePoint" />
            <mxPoint x="395" y="340" as="targetPoint" />
          </mxGeometry>
        </mxCell>
        <mxCell id="4G4CeqeVtHvaFFHId8Y4-126" value="t" style="text;html=1;strokeColor=none;fillColor=none;align=center;verticalAlign=middle;whiteSpace=wrap;rounded=0;" vertex="1" parent="1">
          <mxGeometry x="355" y="338" width="10" height="30" as="geometry" />
        </mxCell>
        <mxCell id="4G4CeqeVtHvaFFHId8Y4-127" value="" style="rounded=0;whiteSpace=wrap;html=1;strokeColor=#7D7D7D;" vertex="1" parent="1">
          <mxGeometry x="239" y="391" width="50" height="50" as="geometry" />
        </mxCell>
        <mxCell id="4G4CeqeVtHvaFFHId8Y4-128" value="" style="endArrow=classic;html=1;rounded=0;strokeColor=#7D7D7D;" edge="1" parent="1">
          <mxGeometry width="50" height="50" relative="1" as="geometry">
            <mxPoint x="240" y="453" as="sourcePoint" />
            <mxPoint x="290" y="453" as="targetPoint" />
          </mxGeometry>
        </mxCell>
        <mxCell id="4G4CeqeVtHvaFFHId8Y4-129" value="f" style="text;html=1;strokeColor=none;fillColor=none;align=center;verticalAlign=middle;whiteSpace=wrap;rounded=0;" vertex="1" parent="1">
          <mxGeometry x="259" y="453" width="10" height="20" as="geometry" />
        </mxCell>
        <mxCell id="4G4CeqeVtHvaFFHId8Y4-130" value="" style="endArrow=none;html=1;rounded=0;entryX=1;entryY=0.5;entryDx=0;entryDy=0;exitX=0;exitY=0.5;exitDx=0;exitDy=0;strokeColor=#7D7D7D;" edge="1" parent="1" source="4G4CeqeVtHvaFFHId8Y4-127" target="4G4CeqeVtHvaFFHId8Y4-127">
          <mxGeometry width="50" height="50" relative="1" as="geometry">
            <mxPoint x="269" y="420.99999999999994" as="sourcePoint" />
            <mxPoint x="319" y="420.99999999999994" as="targetPoint" />
          </mxGeometry>
        </mxCell>
        <mxCell id="4G4CeqeVtHvaFFHId8Y4-131" value="" style="endArrow=none;html=1;rounded=0;entryX=1;entryY=0.75;entryDx=0;entryDy=0;exitX=0;exitY=0.75;exitDx=0;exitDy=0;strokeColor=#7D7D7D;" edge="1" parent="1" source="4G4CeqeVtHvaFFHId8Y4-127" target="4G4CeqeVtHvaFFHId8Y4-127">
          <mxGeometry width="50" height="50" relative="1" as="geometry">
            <mxPoint x="239" y="431" as="sourcePoint" />
            <mxPoint x="289" y="431" as="targetPoint" />
          </mxGeometry>
        </mxCell>
        <mxCell id="4G4CeqeVtHvaFFHId8Y4-132" value="" style="endArrow=none;html=1;rounded=0;entryX=1;entryY=0.25;entryDx=0;entryDy=0;exitX=0;exitY=0.25;exitDx=0;exitDy=0;strokeColor=#7D7D7D;" edge="1" parent="1" source="4G4CeqeVtHvaFFHId8Y4-127" target="4G4CeqeVtHvaFFHId8Y4-127">
          <mxGeometry width="50" height="50" relative="1" as="geometry">
            <mxPoint x="239" y="411" as="sourcePoint" />
            <mxPoint x="289" y="411" as="targetPoint" />
          </mxGeometry>
        </mxCell>
        <mxCell id="4G4CeqeVtHvaFFHId8Y4-133" value="" style="endArrow=none;html=1;rounded=0;entryX=0.25;entryY=1;entryDx=0;entryDy=0;exitX=0.25;exitY=0;exitDx=0;exitDy=0;strokeColor=#7D7D7D;" edge="1" parent="1" source="4G4CeqeVtHvaFFHId8Y4-127" target="4G4CeqeVtHvaFFHId8Y4-127">
          <mxGeometry width="50" height="50" relative="1" as="geometry">
            <mxPoint x="249" y="413.5" as="sourcePoint" />
            <mxPoint x="299" y="413.5" as="targetPoint" />
          </mxGeometry>
        </mxCell>
        <mxCell id="4G4CeqeVtHvaFFHId8Y4-134" value="" style="endArrow=none;html=1;rounded=0;entryX=0.25;entryY=1;entryDx=0;entryDy=0;exitX=0.25;exitY=0;exitDx=0;exitDy=0;strokeColor=#7D7D7D;" edge="1" parent="1">
          <mxGeometry width="50" height="50" relative="1" as="geometry">
            <mxPoint x="263.8899999999999" y="391" as="sourcePoint" />
            <mxPoint x="263.8899999999999" y="441" as="targetPoint" />
          </mxGeometry>
        </mxCell>
        <mxCell id="4G4CeqeVtHvaFFHId8Y4-135" value="" style="endArrow=none;html=1;rounded=0;entryX=0.75;entryY=1;entryDx=0;entryDy=0;exitX=0.75;exitY=0;exitDx=0;exitDy=0;strokeColor=#7D7D7D;" edge="1" parent="1" source="4G4CeqeVtHvaFFHId8Y4-127" target="4G4CeqeVtHvaFFHId8Y4-127">
          <mxGeometry width="50" height="50" relative="1" as="geometry">
            <mxPoint x="273.89" y="391" as="sourcePoint" />
            <mxPoint x="273.89" y="441" as="targetPoint" />
          </mxGeometry>
        </mxCell>
        <mxCell id="4G4CeqeVtHvaFFHId8Y4-136" value="f" style="text;html=1;strokeColor=none;fillColor=none;align=center;verticalAlign=middle;whiteSpace=wrap;rounded=0;" vertex="1" parent="1">
          <mxGeometry x="219" y="406" width="10" height="20" as="geometry" />
        </mxCell>
        <mxCell id="4G4CeqeVtHvaFFHId8Y4-137" value="" style="endArrow=classic;html=1;rounded=0;strokeColor=#7D7D7D;" edge="1" parent="1">
          <mxGeometry width="50" height="50" relative="1" as="geometry">
            <mxPoint x="230" y="391" as="sourcePoint" />
            <mxPoint x="230" y="441" as="targetPoint" />
          </mxGeometry>
        </mxCell>
        <mxCell id="4G4CeqeVtHvaFFHId8Y4-138" value="" style="rounded=0;whiteSpace=wrap;html=1;strokeColor=#7D7D7D;" vertex="1" parent="1">
          <mxGeometry x="240" y="192.5" width="50" height="12.5" as="geometry" />
        </mxCell>
        <mxCell id="4G4CeqeVtHvaFFHId8Y4-139" value="" style="endArrow=classic;html=1;rounded=0;strokeColor=#7D7D7D;" edge="1" parent="1">
          <mxGeometry width="50" height="50" relative="1" as="geometry">
            <mxPoint x="239" y="215" as="sourcePoint" />
            <mxPoint x="290" y="215" as="targetPoint" />
          </mxGeometry>
        </mxCell>
        <mxCell id="4G4CeqeVtHvaFFHId8Y4-140" value="f" style="text;html=1;strokeColor=none;fillColor=none;align=center;verticalAlign=middle;whiteSpace=wrap;rounded=0;" vertex="1" parent="1">
          <mxGeometry x="259" y="215" width="10" height="20" as="geometry" />
        </mxCell>
        <mxCell id="4G4CeqeVtHvaFFHId8Y4-141" value="" style="endArrow=none;html=1;rounded=0;entryX=0.25;entryY=1;entryDx=0;entryDy=0;exitX=0.25;exitY=0;exitDx=0;exitDy=0;strokeColor=#7D7D7D;" edge="1" parent="1" source="4G4CeqeVtHvaFFHId8Y4-138" target="4G4CeqeVtHvaFFHId8Y4-138">
          <mxGeometry width="50" height="50" relative="1" as="geometry">
            <mxPoint x="249" y="172.5" as="sourcePoint" />
            <mxPoint x="299" y="172.5" as="targetPoint" />
          </mxGeometry>
        </mxCell>
        <mxCell id="4G4CeqeVtHvaFFHId8Y4-142" value="" style="endArrow=none;html=1;rounded=0;entryX=0.5;entryY=1;entryDx=0;entryDy=0;strokeColor=#7D7D7D;exitX=0.5;exitY=0;exitDx=0;exitDy=0;" edge="1" parent="1" source="4G4CeqeVtHvaFFHId8Y4-138" target="4G4CeqeVtHvaFFHId8Y4-138">
          <mxGeometry width="50" height="50" relative="1" as="geometry">
            <mxPoint x="264" y="185" as="sourcePoint" />
            <mxPoint x="263.89" y="200" as="targetPoint" />
          </mxGeometry>
        </mxCell>
        <mxCell id="4G4CeqeVtHvaFFHId8Y4-143" value="" style="endArrow=none;html=1;rounded=0;entryX=0.75;entryY=1;entryDx=0;entryDy=0;exitX=0.75;exitY=0;exitDx=0;exitDy=0;strokeColor=#7D7D7D;" edge="1" parent="1" source="4G4CeqeVtHvaFFHId8Y4-138" target="4G4CeqeVtHvaFFHId8Y4-138">
          <mxGeometry width="50" height="50" relative="1" as="geometry">
            <mxPoint x="273.89" y="150" as="sourcePoint" />
            <mxPoint x="273.89" y="200" as="targetPoint" />
          </mxGeometry>
        </mxCell>
        <mxCell id="4G4CeqeVtHvaFFHId8Y4-144" value="" style="rounded=0;whiteSpace=wrap;html=1;strokeColor=#7D7D7D;" vertex="1" parent="1">
          <mxGeometry x="351" y="402" width="50" height="50" as="geometry" />
        </mxCell>
        <mxCell id="4G4CeqeVtHvaFFHId8Y4-145" value="" style="endArrow=classic;html=1;rounded=0;strokeColor=#7D7D7D;" edge="1" parent="1">
          <mxGeometry width="50" height="50" relative="1" as="geometry">
            <mxPoint x="352" y="464" as="sourcePoint" />
            <mxPoint x="402" y="464" as="targetPoint" />
          </mxGeometry>
        </mxCell>
        <mxCell id="4G4CeqeVtHvaFFHId8Y4-146" value="f" style="text;html=1;strokeColor=none;fillColor=none;align=center;verticalAlign=middle;whiteSpace=wrap;rounded=0;" vertex="1" parent="1">
          <mxGeometry x="371" y="464" width="10" height="20" as="geometry" />
        </mxCell>
        <mxCell id="4G4CeqeVtHvaFFHId8Y4-147" value="" style="endArrow=none;html=1;rounded=0;entryX=1;entryY=0.5;entryDx=0;entryDy=0;exitX=0;exitY=0.5;exitDx=0;exitDy=0;strokeColor=#7D7D7D;" edge="1" parent="1" source="4G4CeqeVtHvaFFHId8Y4-144" target="4G4CeqeVtHvaFFHId8Y4-144">
          <mxGeometry width="50" height="50" relative="1" as="geometry">
            <mxPoint x="381" y="431.99999999999994" as="sourcePoint" />
            <mxPoint x="431" y="431.99999999999994" as="targetPoint" />
          </mxGeometry>
        </mxCell>
        <mxCell id="4G4CeqeVtHvaFFHId8Y4-148" value="" style="endArrow=none;html=1;rounded=0;entryX=1;entryY=0.75;entryDx=0;entryDy=0;exitX=0;exitY=0.75;exitDx=0;exitDy=0;strokeColor=#7D7D7D;" edge="1" parent="1" source="4G4CeqeVtHvaFFHId8Y4-144" target="4G4CeqeVtHvaFFHId8Y4-144">
          <mxGeometry width="50" height="50" relative="1" as="geometry">
            <mxPoint x="351" y="442" as="sourcePoint" />
            <mxPoint x="401" y="442" as="targetPoint" />
          </mxGeometry>
        </mxCell>
        <mxCell id="4G4CeqeVtHvaFFHId8Y4-149" value="" style="endArrow=none;html=1;rounded=0;entryX=1;entryY=0.25;entryDx=0;entryDy=0;exitX=0;exitY=0.25;exitDx=0;exitDy=0;strokeColor=#7D7D7D;" edge="1" parent="1" source="4G4CeqeVtHvaFFHId8Y4-144" target="4G4CeqeVtHvaFFHId8Y4-144">
          <mxGeometry width="50" height="50" relative="1" as="geometry">
            <mxPoint x="351" y="422" as="sourcePoint" />
            <mxPoint x="401" y="422" as="targetPoint" />
          </mxGeometry>
        </mxCell>
        <mxCell id="4G4CeqeVtHvaFFHId8Y4-150" value="" style="endArrow=none;html=1;rounded=0;entryX=0.25;entryY=1;entryDx=0;entryDy=0;exitX=0.25;exitY=0;exitDx=0;exitDy=0;strokeColor=#7D7D7D;" edge="1" parent="1" source="4G4CeqeVtHvaFFHId8Y4-144" target="4G4CeqeVtHvaFFHId8Y4-144">
          <mxGeometry width="50" height="50" relative="1" as="geometry">
            <mxPoint x="361" y="424.5" as="sourcePoint" />
            <mxPoint x="411" y="424.5" as="targetPoint" />
          </mxGeometry>
        </mxCell>
        <mxCell id="4G4CeqeVtHvaFFHId8Y4-151" value="" style="endArrow=none;html=1;rounded=0;entryX=0.25;entryY=1;entryDx=0;entryDy=0;exitX=0.25;exitY=0;exitDx=0;exitDy=0;strokeColor=#7D7D7D;" edge="1" parent="1">
          <mxGeometry width="50" height="50" relative="1" as="geometry">
            <mxPoint x="375.8899999999999" y="402" as="sourcePoint" />
            <mxPoint x="375.8899999999999" y="452" as="targetPoint" />
          </mxGeometry>
        </mxCell>
        <mxCell id="4G4CeqeVtHvaFFHId8Y4-152" value="" style="endArrow=none;html=1;rounded=0;entryX=0.75;entryY=1;entryDx=0;entryDy=0;exitX=0.75;exitY=0;exitDx=0;exitDy=0;strokeColor=#7D7D7D;" edge="1" parent="1" source="4G4CeqeVtHvaFFHId8Y4-144" target="4G4CeqeVtHvaFFHId8Y4-144">
          <mxGeometry width="50" height="50" relative="1" as="geometry">
            <mxPoint x="385.89" y="402" as="sourcePoint" />
            <mxPoint x="385.89" y="452" as="targetPoint" />
          </mxGeometry>
        </mxCell>
        <mxCell id="4G4CeqeVtHvaFFHId8Y4-153" value="f" style="text;html=1;strokeColor=none;fillColor=none;align=center;verticalAlign=middle;whiteSpace=wrap;rounded=0;" vertex="1" parent="1">
          <mxGeometry x="331" y="417" width="10" height="20" as="geometry" />
        </mxCell>
        <mxCell id="4G4CeqeVtHvaFFHId8Y4-154" value="" style="endArrow=classic;html=1;rounded=0;strokeColor=#7D7D7D;" edge="1" parent="1">
          <mxGeometry width="50" height="50" relative="1" as="geometry">
            <mxPoint x="342" y="402" as="sourcePoint" />
            <mxPoint x="342" y="452" as="targetPoint" />
          </mxGeometry>
        </mxCell>
        <mxCell id="4G4CeqeVtHvaFFHId8Y4-155" value="" style="endArrow=classic;html=1;rounded=0;strokeColor=#7D7D7D;" edge="1" parent="1">
          <mxGeometry width="50" height="50" relative="1" as="geometry">
            <mxPoint x="407" y="456" as="sourcePoint" />
            <mxPoint x="420" y="440" as="targetPoint" />
          </mxGeometry>
        </mxCell>
        <mxCell id="4G4CeqeVtHvaFFHId8Y4-156" value="n" style="text;html=1;strokeColor=none;fillColor=none;align=center;verticalAlign=middle;whiteSpace=wrap;rounded=0;" vertex="1" parent="1">
          <mxGeometry x="425" y="437" width="10" height="20" as="geometry" />
        </mxCell>
        <mxCell id="4G4CeqeVtHvaFFHId8Y4-157" value="" style="ellipse;whiteSpace=wrap;html=1;aspect=fixed;fontColor=#004C99;" vertex="1" parent="1">
          <mxGeometry x="500" y="200" width="80" height="80" as="geometry" />
        </mxCell>
        <mxCell id="4G4CeqeVtHvaFFHId8Y4-158" value="" style="endArrow=none;html=1;rounded=0;fontColor=#004C99;strokeWidth=4;" edge="1" parent="1">
          <mxGeometry width="50" height="50" relative="1" as="geometry">
            <mxPoint x="540" y="260" as="sourcePoint" />
            <mxPoint x="540" y="220" as="targetPoint" />
          </mxGeometry>
        </mxCell>
        <mxCell id="4G4CeqeVtHvaFFHId8Y4-159" value="" style="endArrow=none;html=1;rounded=0;fontColor=#004C99;strokeWidth=4;entryX=0.25;entryY=0.5;entryDx=0;entryDy=0;entryPerimeter=0;exitX=0.25;exitY=0.5;exitDx=0;exitDy=0;exitPerimeter=0;" edge="1" parent="1" source="4G4CeqeVtHvaFFHId8Y4-157">
          <mxGeometry width="50" height="50" relative="1" as="geometry">
            <mxPoint x="550" y="230" as="sourcePoint" />
            <mxPoint x="560" y="240" as="targetPoint" />
          </mxGeometry>
        </mxCell>
        <mxCell id="4G4CeqeVtHvaFFHId8Y4-160" value="" style="ellipse;whiteSpace=wrap;html=1;aspect=fixed;fontColor=#004C99;" vertex="1" parent="1">
          <mxGeometry x="500" y="300" width="80" height="80" as="geometry" />
        </mxCell>
        <mxCell id="4G4CeqeVtHvaFFHId8Y4-161" value="" style="endArrow=none;html=1;rounded=0;fontColor=#004C99;strokeWidth=4;entryX=1;entryY=0;entryDx=0;entryDy=0;exitX=0;exitY=1;exitDx=0;exitDy=0;" edge="1" parent="1" source="4G4CeqeVtHvaFFHId8Y4-160" target="4G4CeqeVtHvaFFHId8Y4-160">
          <mxGeometry width="50" height="50" relative="1" as="geometry">
            <mxPoint x="540" y="370" as="sourcePoint" />
            <mxPoint x="540" y="330" as="targetPoint" />
          </mxGeometry>
        </mxCell>
        <mxCell id="4G4CeqeVtHvaFFHId8Y4-162" value="" style="endArrow=none;html=1;rounded=0;fontColor=#004C99;strokeWidth=4;exitX=0;exitY=0;exitDx=0;exitDy=0;entryX=1;entryY=1;entryDx=0;entryDy=0;" edge="1" parent="1" source="4G4CeqeVtHvaFFHId8Y4-160" target="4G4CeqeVtHvaFFHId8Y4-160">
          <mxGeometry width="50" height="50" relative="1" as="geometry">
            <mxPoint x="520" y="359" as="sourcePoint" />
            <mxPoint x="600" y="370" as="targetPoint" />
          </mxGeometry>
        </mxCell>
        <mxCell id="4G4CeqeVtHvaFFHId8Y4-163" value="" style="ellipse;whiteSpace=wrap;html=1;aspect=fixed;fontColor=#004C99;" vertex="1" parent="1">
          <mxGeometry x="500" y="500" width="80" height="80" as="geometry" />
        </mxCell>
        <mxCell id="4G4CeqeVtHvaFFHId8Y4-164" value="" style="ellipse;whiteSpace=wrap;html=1;aspect=fixed;rounded=1;shadow=0;glass=0;labelBackgroundColor=none;sketch=0;fontColor=#333333;fillColor=#000000;strokeWidth=4;" vertex="1" parent="1">
          <mxGeometry x="535" y="535" width="10" height="10" as="geometry" />
        </mxCell>
        <mxCell id="4G4CeqeVtHvaFFHId8Y4-165" value="" style="rounded=0;whiteSpace=wrap;html=1;strokeColor=#d79b00;fillColor=#ffe6cc;" vertex="1" parent="1">
          <mxGeometry x="335.5" y="192.5" width="50" height="12.5" as="geometry" />
        </mxCell>
        <mxCell id="4G4CeqeVtHvaFFHId8Y4-166" value="" style="endArrow=classic;html=1;rounded=0;strokeColor=#d79b00;fillColor=#ffe6cc;" edge="1" parent="1">
          <mxGeometry width="50" height="50" relative="1" as="geometry">
            <mxPoint x="334.5" y="215" as="sourcePoint" />
            <mxPoint x="385.5" y="215" as="targetPoint" />
          </mxGeometry>
        </mxCell>
        <mxCell id="4G4CeqeVtHvaFFHId8Y4-167" value="f" style="text;html=1;strokeColor=none;fillColor=none;align=center;verticalAlign=middle;whiteSpace=wrap;rounded=0;fontColor=#CC6600;" vertex="1" parent="1">
          <mxGeometry x="354.5" y="215" width="10" height="20" as="geometry" />
        </mxCell>
        <mxCell id="4G4CeqeVtHvaFFHId8Y4-168" value="" style="endArrow=none;html=1;rounded=0;entryX=0.25;entryY=1;entryDx=0;entryDy=0;exitX=0.25;exitY=0;exitDx=0;exitDy=0;strokeColor=#d79b00;fillColor=#ffe6cc;" edge="1" parent="1" source="4G4CeqeVtHvaFFHId8Y4-165" target="4G4CeqeVtHvaFFHId8Y4-165">
          <mxGeometry width="50" height="50" relative="1" as="geometry">
            <mxPoint x="344.5" y="172.5" as="sourcePoint" />
            <mxPoint x="394.5" y="172.5" as="targetPoint" />
          </mxGeometry>
        </mxCell>
        <mxCell id="4G4CeqeVtHvaFFHId8Y4-169" value="" style="endArrow=none;html=1;rounded=0;entryX=0.5;entryY=1;entryDx=0;entryDy=0;strokeColor=#d79b00;exitX=0.5;exitY=0;exitDx=0;exitDy=0;fillColor=#ffe6cc;" edge="1" parent="1" source="4G4CeqeVtHvaFFHId8Y4-165" target="4G4CeqeVtHvaFFHId8Y4-165">
          <mxGeometry width="50" height="50" relative="1" as="geometry">
            <mxPoint x="359.5" y="185" as="sourcePoint" />
            <mxPoint x="359.39" y="200" as="targetPoint" />
          </mxGeometry>
        </mxCell>
        <mxCell id="4G4CeqeVtHvaFFHId8Y4-170" value="" style="endArrow=none;html=1;rounded=0;entryX=0.75;entryY=1;entryDx=0;entryDy=0;exitX=0.75;exitY=0;exitDx=0;exitDy=0;strokeColor=#d79b00;fillColor=#ffe6cc;" edge="1" parent="1" source="4G4CeqeVtHvaFFHId8Y4-165" target="4G4CeqeVtHvaFFHId8Y4-165">
          <mxGeometry width="50" height="50" relative="1" as="geometry">
            <mxPoint x="369.39" y="150" as="sourcePoint" />
            <mxPoint x="369.39" y="200" as="targetPoint" />
          </mxGeometry>
        </mxCell>
        <mxCell id="4G4CeqeVtHvaFFHId8Y4-171" value="" style="rounded=0;whiteSpace=wrap;html=1;strokeColor=#d79b00;fillColor=#ffe6cc;" vertex="1" parent="1">
          <mxGeometry x="239" y="495" width="50" height="50" as="geometry" />
        </mxCell>
        <mxCell id="4G4CeqeVtHvaFFHId8Y4-172" value="" style="endArrow=classic;html=1;rounded=0;strokeColor=#d79b00;fillColor=#ffe6cc;" edge="1" parent="1">
          <mxGeometry width="50" height="50" relative="1" as="geometry">
            <mxPoint x="240" y="557" as="sourcePoint" />
            <mxPoint x="290" y="557" as="targetPoint" />
          </mxGeometry>
        </mxCell>
        <mxCell id="4G4CeqeVtHvaFFHId8Y4-173" value="f" style="text;html=1;strokeColor=none;fillColor=none;align=center;verticalAlign=middle;whiteSpace=wrap;rounded=0;fontColor=#CC6600;" vertex="1" parent="1">
          <mxGeometry x="259" y="557" width="10" height="20" as="geometry" />
        </mxCell>
        <mxCell id="4G4CeqeVtHvaFFHId8Y4-174" value="" style="endArrow=none;html=1;rounded=0;entryX=1;entryY=0.5;entryDx=0;entryDy=0;exitX=0;exitY=0.5;exitDx=0;exitDy=0;strokeColor=#d79b00;fillColor=#ffe6cc;" edge="1" parent="1" source="4G4CeqeVtHvaFFHId8Y4-171" target="4G4CeqeVtHvaFFHId8Y4-171">
          <mxGeometry width="50" height="50" relative="1" as="geometry">
            <mxPoint x="269" y="525" as="sourcePoint" />
            <mxPoint x="319" y="525" as="targetPoint" />
          </mxGeometry>
        </mxCell>
        <mxCell id="4G4CeqeVtHvaFFHId8Y4-175" value="" style="endArrow=none;html=1;rounded=0;entryX=1;entryY=0.75;entryDx=0;entryDy=0;exitX=0;exitY=0.75;exitDx=0;exitDy=0;strokeColor=#d79b00;fillColor=#ffe6cc;" edge="1" parent="1" source="4G4CeqeVtHvaFFHId8Y4-171" target="4G4CeqeVtHvaFFHId8Y4-171">
          <mxGeometry width="50" height="50" relative="1" as="geometry">
            <mxPoint x="239" y="535" as="sourcePoint" />
            <mxPoint x="289" y="535" as="targetPoint" />
          </mxGeometry>
        </mxCell>
        <mxCell id="4G4CeqeVtHvaFFHId8Y4-176" value="" style="endArrow=none;html=1;rounded=0;entryX=1;entryY=0.25;entryDx=0;entryDy=0;exitX=0;exitY=0.25;exitDx=0;exitDy=0;strokeColor=#d79b00;fillColor=#ffe6cc;" edge="1" parent="1" source="4G4CeqeVtHvaFFHId8Y4-171" target="4G4CeqeVtHvaFFHId8Y4-171">
          <mxGeometry width="50" height="50" relative="1" as="geometry">
            <mxPoint x="239" y="515" as="sourcePoint" />
            <mxPoint x="289" y="515" as="targetPoint" />
          </mxGeometry>
        </mxCell>
        <mxCell id="4G4CeqeVtHvaFFHId8Y4-177" value="" style="endArrow=none;html=1;rounded=0;entryX=0.25;entryY=1;entryDx=0;entryDy=0;exitX=0.25;exitY=0;exitDx=0;exitDy=0;strokeColor=#d79b00;fillColor=#ffe6cc;" edge="1" parent="1" source="4G4CeqeVtHvaFFHId8Y4-171" target="4G4CeqeVtHvaFFHId8Y4-171">
          <mxGeometry width="50" height="50" relative="1" as="geometry">
            <mxPoint x="249" y="517.5" as="sourcePoint" />
            <mxPoint x="299" y="517.5" as="targetPoint" />
          </mxGeometry>
        </mxCell>
        <mxCell id="4G4CeqeVtHvaFFHId8Y4-178" value="" style="endArrow=none;html=1;rounded=0;entryX=0.25;entryY=1;entryDx=0;entryDy=0;exitX=0.25;exitY=0;exitDx=0;exitDy=0;strokeColor=#d79b00;fillColor=#ffe6cc;" edge="1" parent="1">
          <mxGeometry width="50" height="50" relative="1" as="geometry">
            <mxPoint x="263.8899999999999" y="495" as="sourcePoint" />
            <mxPoint x="263.8899999999999" y="545" as="targetPoint" />
          </mxGeometry>
        </mxCell>
        <mxCell id="4G4CeqeVtHvaFFHId8Y4-179" value="" style="endArrow=none;html=1;rounded=0;entryX=0.75;entryY=1;entryDx=0;entryDy=0;exitX=0.75;exitY=0;exitDx=0;exitDy=0;strokeColor=#d79b00;fillColor=#ffe6cc;" edge="1" parent="1" source="4G4CeqeVtHvaFFHId8Y4-171" target="4G4CeqeVtHvaFFHId8Y4-171">
          <mxGeometry width="50" height="50" relative="1" as="geometry">
            <mxPoint x="273.89" y="495" as="sourcePoint" />
            <mxPoint x="273.89" y="545" as="targetPoint" />
          </mxGeometry>
        </mxCell>
        <mxCell id="4G4CeqeVtHvaFFHId8Y4-180" value="f" style="text;html=1;strokeColor=none;fillColor=none;align=center;verticalAlign=middle;whiteSpace=wrap;rounded=0;fontColor=#CC6600;" vertex="1" parent="1">
          <mxGeometry x="219" y="510" width="10" height="20" as="geometry" />
        </mxCell>
        <mxCell id="4G4CeqeVtHvaFFHId8Y4-181" value="" style="endArrow=classic;html=1;rounded=0;strokeColor=#d79b00;fillColor=#ffe6cc;" edge="1" parent="1">
          <mxGeometry width="50" height="50" relative="1" as="geometry">
            <mxPoint x="230" y="495" as="sourcePoint" />
            <mxPoint x="230" y="545" as="targetPoint" />
          </mxGeometry>
        </mxCell>
        <mxCell id="4G4CeqeVtHvaFFHId8Y4-182" value="" style="rounded=0;whiteSpace=wrap;html=1;strokeColor=#d79b00;fillColor=#ffe6cc;" vertex="1" parent="1">
          <mxGeometry x="129.75" y="490" width="50" height="70" as="geometry" />
        </mxCell>
        <mxCell id="4G4CeqeVtHvaFFHId8Y4-183" value="" style="endArrow=none;html=1;rounded=0;entryX=1;entryY=0.25;entryDx=0;entryDy=0;exitX=0;exitY=0.25;exitDx=0;exitDy=0;strokeColor=#d79b00;fillColor=#ffe6cc;" edge="1" parent="1" source="4G4CeqeVtHvaFFHId8Y4-182" target="4G4CeqeVtHvaFFHId8Y4-182">
          <mxGeometry width="50" height="50" relative="1" as="geometry">
            <mxPoint x="139.75" y="510" as="sourcePoint" />
            <mxPoint x="189.75" y="510" as="targetPoint" />
          </mxGeometry>
        </mxCell>
        <mxCell id="4G4CeqeVtHvaFFHId8Y4-184" value="" style="endArrow=none;html=1;rounded=0;entryX=1;entryY=0.75;entryDx=0;entryDy=0;exitX=0;exitY=0.75;exitDx=0;exitDy=0;strokeColor=#d79b00;fillColor=#ffe6cc;" edge="1" parent="1" source="4G4CeqeVtHvaFFHId8Y4-182" target="4G4CeqeVtHvaFFHId8Y4-182">
          <mxGeometry width="50" height="50" relative="1" as="geometry">
            <mxPoint x="139.75" y="550" as="sourcePoint" />
            <mxPoint x="189.75" y="500" as="targetPoint" />
          </mxGeometry>
        </mxCell>
        <mxCell id="4G4CeqeVtHvaFFHId8Y4-185" value="" style="endArrow=none;html=1;rounded=0;exitX=-0.002;exitY=0.119;exitDx=0;exitDy=0;exitPerimeter=0;entryX=1.005;entryY=0.119;entryDx=0;entryDy=0;entryPerimeter=0;strokeColor=#d79b00;fillColor=#ffe6cc;" edge="1" parent="1" source="4G4CeqeVtHvaFFHId8Y4-182" target="4G4CeqeVtHvaFFHId8Y4-182">
          <mxGeometry width="50" height="50" relative="1" as="geometry">
            <mxPoint x="149.75" y="550" as="sourcePoint" />
            <mxPoint x="199.75" y="500" as="targetPoint" />
          </mxGeometry>
        </mxCell>
        <mxCell id="4G4CeqeVtHvaFFHId8Y4-186" value="" style="endArrow=none;html=1;rounded=0;exitX=0.003;exitY=0.878;exitDx=0;exitDy=0;exitPerimeter=0;entryX=1.001;entryY=0.877;entryDx=0;entryDy=0;entryPerimeter=0;strokeColor=#d79b00;fillColor=#ffe6cc;" edge="1" parent="1" source="4G4CeqeVtHvaFFHId8Y4-182" target="4G4CeqeVtHvaFFHId8Y4-182">
          <mxGeometry width="50" height="50" relative="1" as="geometry">
            <mxPoint x="129.74999999999997" y="550" as="sourcePoint" />
            <mxPoint x="180.09999999999997" y="550" as="targetPoint" />
          </mxGeometry>
        </mxCell>
        <mxCell id="4G4CeqeVtHvaFFHId8Y4-187" value="" style="endArrow=none;dashed=1;html=1;dashPattern=1 3;strokeWidth=2;rounded=0;strokeColor=#d79b00;fillColor=#ffe6cc;" edge="1" parent="1">
          <mxGeometry width="50" height="50" relative="1" as="geometry">
            <mxPoint x="154.67000000000007" y="535" as="sourcePoint" />
            <mxPoint x="154.67000000000007" y="515" as="targetPoint" />
            <Array as="points">
              <mxPoint x="154.67000000000002" y="535" />
            </Array>
          </mxGeometry>
        </mxCell>
        <mxCell id="4G4CeqeVtHvaFFHId8Y4-188" value="" style="endArrow=classic;html=1;rounded=0;strokeColor=#d79b00;fillColor=#ffe6cc;" edge="1" parent="1">
          <mxGeometry width="50" height="50" relative="1" as="geometry">
            <mxPoint x="119.75" y="490" as="sourcePoint" />
            <mxPoint x="119.75" y="560" as="targetPoint" />
          </mxGeometry>
        </mxCell>
        <mxCell id="4G4CeqeVtHvaFFHId8Y4-189" value="" style="endArrow=classic;html=1;rounded=0;strokeColor=#d79b00;fillColor=#ffe6cc;" edge="1" parent="1">
          <mxGeometry width="50" height="50" relative="1" as="geometry">
            <mxPoint x="129.75" y="570" as="sourcePoint" />
            <mxPoint x="179.75" y="570" as="targetPoint" />
          </mxGeometry>
        </mxCell>
        <mxCell id="4G4CeqeVtHvaFFHId8Y4-190" value="t" style="text;html=1;strokeColor=none;fillColor=none;align=center;verticalAlign=middle;whiteSpace=wrap;rounded=0;fontColor=#CC6600;" vertex="1" parent="1">
          <mxGeometry x="108.75" y="510" width="10" height="30" as="geometry" />
        </mxCell>
        <mxCell id="4G4CeqeVtHvaFFHId8Y4-191" value="f" style="text;html=1;strokeColor=none;fillColor=none;align=center;verticalAlign=middle;whiteSpace=wrap;rounded=0;fontColor=#CC6600;" vertex="1" parent="1">
          <mxGeometry x="148.75" y="570" width="10" height="20" as="geometry" />
        </mxCell>
        <mxCell id="4G4CeqeVtHvaFFHId8Y4-192" value="" style="rounded=0;whiteSpace=wrap;html=1;strokeColor=#d79b00;fillColor=#ffe6cc;rotation=-90;" vertex="1" parent="1">
          <mxGeometry x="450" y="143" width="45" height="15" as="geometry" />
        </mxCell>
        <mxCell id="4G4CeqeVtHvaFFHId8Y4-193" value="" style="endArrow=classic;html=1;rounded=0;strokeColor=#d79b00;fillColor=#ffe6cc;" edge="1" parent="1">
          <mxGeometry width="50" height="50" relative="1" as="geometry">
            <mxPoint x="450" y="129.5" as="sourcePoint" />
            <mxPoint x="450" y="171.5" as="targetPoint" />
          </mxGeometry>
        </mxCell>
        <mxCell id="4G4CeqeVtHvaFFHId8Y4-194" value="k" style="text;html=1;strokeColor=none;fillColor=none;align=center;verticalAlign=middle;whiteSpace=wrap;rounded=0;fontColor=#CC6600;" vertex="1" parent="1">
          <mxGeometry x="435" y="143" width="10" height="20" as="geometry" />
        </mxCell>
        <mxCell id="4G4CeqeVtHvaFFHId8Y4-195" value="" style="endArrow=none;html=1;rounded=0;entryX=0.33;entryY=0.021;entryDx=0;entryDy=0;strokeColor=#d79b00;fillColor=#ffe6cc;entryPerimeter=0;exitX=0.33;exitY=1.005;exitDx=0;exitDy=0;exitPerimeter=0;" edge="1" parent="1" source="4G4CeqeVtHvaFFHId8Y4-192" target="4G4CeqeVtHvaFFHId8Y4-192">
          <mxGeometry width="50" height="50" relative="1" as="geometry">
            <mxPoint x="520" y="133" as="sourcePoint" />
            <mxPoint x="499.89" y="143" as="targetPoint" />
          </mxGeometry>
        </mxCell>
        <mxCell id="4G4CeqeVtHvaFFHId8Y4-196" value="" style="endArrow=none;html=1;rounded=0;strokeColor=#d79b00;fillColor=#ffe6cc;exitX=0.665;exitY=0.025;exitDx=0;exitDy=0;exitPerimeter=0;entryX=0.668;entryY=1.027;entryDx=0;entryDy=0;entryPerimeter=0;" edge="1" parent="1" source="4G4CeqeVtHvaFFHId8Y4-192" target="4G4CeqeVtHvaFFHId8Y4-192">
          <mxGeometry width="50" height="50" relative="1" as="geometry">
            <mxPoint x="460" y="133" as="sourcePoint" />
            <mxPoint x="490" y="153" as="targetPoint" />
          </mxGeometry>
        </mxCell>
        <mxCell id="4G4CeqeVtHvaFFHId8Y4-197" value="" style="endArrow=classic;html=1;rounded=0;strokeColor=#d79b00;fillColor=#ffe6cc;" edge="1" parent="1">
          <mxGeometry width="50" height="50" relative="1" as="geometry">
            <mxPoint x="488" y="179" as="sourcePoint" />
            <mxPoint x="501" y="163.0000000000001" as="targetPoint" />
          </mxGeometry>
        </mxCell>
        <mxCell id="4G4CeqeVtHvaFFHId8Y4-198" value="f" style="text;html=1;strokeColor=none;fillColor=none;align=center;verticalAlign=middle;whiteSpace=wrap;rounded=0;fontColor=#CC6600;" vertex="1" parent="1">
          <mxGeometry x="497" y="172.5" width="10" height="20" as="geometry" />
        </mxCell>
        <mxCell id="4G4CeqeVtHvaFFHId8Y4-199" value="" style="whiteSpace=wrap;html=1;aspect=fixed;strokeColor=#7D7D7D;" vertex="1" parent="1">
          <mxGeometry x="642" y="270" width="70" height="70" as="geometry" />
        </mxCell>
        <mxCell id="4G4CeqeVtHvaFFHId8Y4-200" value="" style="endArrow=none;html=1;rounded=0;strokeColor=#7D7D7D;entryX=0.25;entryY=0;entryDx=0;entryDy=0;exitX=0.25;exitY=1;exitDx=0;exitDy=0;" edge="1" parent="1" source="4G4CeqeVtHvaFFHId8Y4-199" target="4G4CeqeVtHvaFFHId8Y4-199">
          <mxGeometry width="50" height="50" relative="1" as="geometry">
            <mxPoint x="652" y="320" as="sourcePoint" />
            <mxPoint x="702" y="270" as="targetPoint" />
          </mxGeometry>
        </mxCell>
        <mxCell id="4G4CeqeVtHvaFFHId8Y4-201" value="" style="endArrow=none;html=1;rounded=0;strokeColor=#7D7D7D;entryX=0.75;entryY=0;entryDx=0;entryDy=0;exitX=0.75;exitY=1;exitDx=0;exitDy=0;" edge="1" parent="1" source="4G4CeqeVtHvaFFHId8Y4-199" target="4G4CeqeVtHvaFFHId8Y4-199">
          <mxGeometry width="50" height="50" relative="1" as="geometry">
            <mxPoint x="752" y="340" as="sourcePoint" />
            <mxPoint x="752" y="260" as="targetPoint" />
          </mxGeometry>
        </mxCell>
        <mxCell id="4G4CeqeVtHvaFFHId8Y4-202" value="" style="endArrow=none;html=1;rounded=0;strokeColor=#7D7D7D;entryX=0.75;entryY=0;entryDx=0;entryDy=0;exitX=0.75;exitY=1;exitDx=0;exitDy=0;startArrow=none;" edge="1" parent="1" source="4G4CeqeVtHvaFFHId8Y4-218">
          <mxGeometry width="50" height="50" relative="1" as="geometry">
            <mxPoint x="651" y="340" as="sourcePoint" />
            <mxPoint x="651" y="270" as="targetPoint" />
          </mxGeometry>
        </mxCell>
        <mxCell id="4G4CeqeVtHvaFFHId8Y4-203" value="" style="endArrow=none;html=1;rounded=0;strokeColor=#7D7D7D;entryX=0.75;entryY=0;entryDx=0;entryDy=0;exitX=0.75;exitY=1;exitDx=0;exitDy=0;" edge="1" parent="1">
          <mxGeometry width="50" height="50" relative="1" as="geometry">
            <mxPoint x="703" y="340" as="sourcePoint" />
            <mxPoint x="703" y="270" as="targetPoint" />
          </mxGeometry>
        </mxCell>
        <mxCell id="4G4CeqeVtHvaFFHId8Y4-204" value="" style="endArrow=none;html=1;rounded=0;strokeColor=#7D7D7D;exitX=0;exitY=0.25;exitDx=0;exitDy=0;entryX=1;entryY=0.25;entryDx=0;entryDy=0;" edge="1" parent="1" source="4G4CeqeVtHvaFFHId8Y4-199" target="4G4CeqeVtHvaFFHId8Y4-199">
          <mxGeometry width="50" height="50" relative="1" as="geometry">
            <mxPoint x="652" y="300" as="sourcePoint" />
            <mxPoint x="702" y="250" as="targetPoint" />
          </mxGeometry>
        </mxCell>
        <mxCell id="4G4CeqeVtHvaFFHId8Y4-205" value="" style="endArrow=none;html=1;rounded=0;strokeColor=#7D7D7D;exitX=0;exitY=0.25;exitDx=0;exitDy=0;entryX=1;entryY=0.25;entryDx=0;entryDy=0;" edge="1" parent="1">
          <mxGeometry width="50" height="50" relative="1" as="geometry">
            <mxPoint x="642" y="279" as="sourcePoint" />
            <mxPoint x="712" y="279" as="targetPoint" />
          </mxGeometry>
        </mxCell>
        <mxCell id="4G4CeqeVtHvaFFHId8Y4-206" value="" style="endArrow=none;html=1;rounded=0;strokeColor=#7D7D7D;exitX=0;exitY=0.75;exitDx=0;exitDy=0;entryX=1;entryY=0.75;entryDx=0;entryDy=0;" edge="1" parent="1" source="4G4CeqeVtHvaFFHId8Y4-199" target="4G4CeqeVtHvaFFHId8Y4-199">
          <mxGeometry width="50" height="50" relative="1" as="geometry">
            <mxPoint x="642" y="330" as="sourcePoint" />
            <mxPoint x="712" y="330" as="targetPoint" />
          </mxGeometry>
        </mxCell>
        <mxCell id="4G4CeqeVtHvaFFHId8Y4-207" value="" style="endArrow=none;html=1;rounded=0;strokeColor=#7D7D7D;exitX=0;exitY=0.75;exitDx=0;exitDy=0;entryX=1;entryY=0.75;entryDx=0;entryDy=0;" edge="1" parent="1">
          <mxGeometry width="50" height="50" relative="1" as="geometry">
            <mxPoint x="642" y="331" as="sourcePoint" />
            <mxPoint x="712" y="331" as="targetPoint" />
          </mxGeometry>
        </mxCell>
        <mxCell id="4G4CeqeVtHvaFFHId8Y4-208" value="" style="endArrow=none;html=1;rounded=0;strokeColor=#7D7D7D;entryX=0.75;entryY=0;entryDx=0;entryDy=0;exitX=0.75;exitY=1;exitDx=0;exitDy=0;" edge="1" parent="1">
          <mxGeometry width="50" height="50" relative="1" as="geometry">
            <mxPoint x="676.8899999999999" y="340" as="sourcePoint" />
            <mxPoint x="676.8899999999999" y="270" as="targetPoint" />
          </mxGeometry>
        </mxCell>
        <mxCell id="4G4CeqeVtHvaFFHId8Y4-209" value="" style="endArrow=none;html=1;rounded=0;strokeColor=#7D7D7D;entryX=0.75;entryY=0;entryDx=0;entryDy=0;exitX=0.75;exitY=1;exitDx=0;exitDy=0;" edge="1" parent="1">
          <mxGeometry width="50" height="50" relative="1" as="geometry">
            <mxPoint x="685.8899999999999" y="340" as="sourcePoint" />
            <mxPoint x="685.8899999999999" y="270" as="targetPoint" />
          </mxGeometry>
        </mxCell>
        <mxCell id="4G4CeqeVtHvaFFHId8Y4-210" value="" style="endArrow=none;html=1;rounded=0;strokeColor=#7D7D7D;entryX=0.75;entryY=0;entryDx=0;entryDy=0;exitX=0.75;exitY=1;exitDx=0;exitDy=0;" edge="1" parent="1">
          <mxGeometry width="50" height="50" relative="1" as="geometry">
            <mxPoint x="668" y="340" as="sourcePoint" />
            <mxPoint x="668" y="270" as="targetPoint" />
          </mxGeometry>
        </mxCell>
        <mxCell id="4G4CeqeVtHvaFFHId8Y4-211" value="" style="endArrow=none;html=1;rounded=0;strokeColor=#7D7D7D;exitX=0;exitY=0.25;exitDx=0;exitDy=0;entryX=1;entryY=0.25;entryDx=0;entryDy=0;" edge="1" parent="1">
          <mxGeometry width="50" height="50" relative="1" as="geometry">
            <mxPoint x="642" y="296.5" as="sourcePoint" />
            <mxPoint x="712" y="296.5" as="targetPoint" />
          </mxGeometry>
        </mxCell>
        <mxCell id="4G4CeqeVtHvaFFHId8Y4-212" value="" style="endArrow=none;html=1;rounded=0;strokeColor=#7D7D7D;exitX=0;exitY=0.25;exitDx=0;exitDy=0;entryX=1;entryY=0.25;entryDx=0;entryDy=0;" edge="1" parent="1">
          <mxGeometry width="50" height="50" relative="1" as="geometry">
            <mxPoint x="642" y="305.5" as="sourcePoint" />
            <mxPoint x="712" y="305.5" as="targetPoint" />
          </mxGeometry>
        </mxCell>
        <mxCell id="4G4CeqeVtHvaFFHId8Y4-213" value="" style="endArrow=none;html=1;rounded=0;strokeColor=#7D7D7D;exitX=0;exitY=0.25;exitDx=0;exitDy=0;entryX=1;entryY=0.25;entryDx=0;entryDy=0;" edge="1" parent="1">
          <mxGeometry width="50" height="50" relative="1" as="geometry">
            <mxPoint x="642" y="313.5" as="sourcePoint" />
            <mxPoint x="712" y="313.5" as="targetPoint" />
          </mxGeometry>
        </mxCell>
        <mxCell id="4G4CeqeVtHvaFFHId8Y4-214" value="" style="endArrow=classic;html=1;rounded=0;strokeColor=#7D7D7D;" edge="1" parent="1">
          <mxGeometry width="50" height="50" relative="1" as="geometry">
            <mxPoint x="631" y="270" as="sourcePoint" />
            <mxPoint x="631" y="340" as="targetPoint" />
          </mxGeometry>
        </mxCell>
        <mxCell id="4G4CeqeVtHvaFFHId8Y4-215" value="t" style="text;html=1;strokeColor=none;fillColor=none;align=center;verticalAlign=middle;whiteSpace=wrap;rounded=0;" vertex="1" parent="1">
          <mxGeometry x="620" y="290" width="10" height="30" as="geometry" />
        </mxCell>
        <mxCell id="4G4CeqeVtHvaFFHId8Y4-216" value="" style="endArrow=classic;html=1;rounded=0;strokeColor=#7D7D7D;" edge="1" parent="1">
          <mxGeometry width="50" height="50" relative="1" as="geometry">
            <mxPoint x="642" y="350" as="sourcePoint" />
            <mxPoint x="712" y="350" as="targetPoint" />
          </mxGeometry>
        </mxCell>
        <mxCell id="4G4CeqeVtHvaFFHId8Y4-217" value="" style="rounded=0;whiteSpace=wrap;html=1;shadow=0;glass=0;labelBackgroundColor=none;sketch=0;fontColor=#ffffff;strokeWidth=2;fillColor=#647687;strokeColor=none;" vertex="1" parent="1">
          <mxGeometry x="642" y="270" width="10" height="70" as="geometry" />
        </mxCell>
        <mxCell id="4G4CeqeVtHvaFFHId8Y4-218" value="" style="rounded=0;whiteSpace=wrap;html=1;shadow=0;glass=0;labelBackgroundColor=none;sketch=0;fontColor=#ffffff;strokeWidth=2;fillColor=#647687;strokeColor=none;" vertex="1" parent="1">
          <mxGeometry x="650" y="279" width="10" height="61" as="geometry" />
        </mxCell>
        <mxCell id="4G4CeqeVtHvaFFHId8Y4-219" value="" style="rounded=0;whiteSpace=wrap;html=1;shadow=0;glass=0;labelBackgroundColor=none;sketch=0;fontColor=#ffffff;strokeWidth=2;fillColor=#647687;strokeColor=none;" vertex="1" parent="1">
          <mxGeometry x="658" y="287" width="10" height="53" as="geometry" />
        </mxCell>
        <mxCell id="4G4CeqeVtHvaFFHId8Y4-220" value="" style="rounded=0;whiteSpace=wrap;html=1;shadow=0;glass=0;labelBackgroundColor=none;sketch=0;fontColor=#ffffff;strokeWidth=2;fillColor=#647687;strokeColor=none;" vertex="1" parent="1">
          <mxGeometry x="667" y="297" width="10" height="43" as="geometry" />
        </mxCell>
        <mxCell id="4G4CeqeVtHvaFFHId8Y4-221" value="" style="rounded=0;whiteSpace=wrap;html=1;shadow=0;glass=0;labelBackgroundColor=none;sketch=0;fontColor=#ffffff;strokeWidth=2;fillColor=#647687;strokeColor=none;" vertex="1" parent="1">
          <mxGeometry x="676" y="306" width="10" height="34" as="geometry" />
        </mxCell>
        <mxCell id="4G4CeqeVtHvaFFHId8Y4-222" value="" style="rounded=0;whiteSpace=wrap;html=1;shadow=0;glass=0;labelBackgroundColor=none;sketch=0;fontColor=#ffffff;strokeWidth=2;fillColor=#647687;strokeColor=none;" vertex="1" parent="1">
          <mxGeometry x="685" y="314" width="10" height="26" as="geometry" />
        </mxCell>
        <mxCell id="4G4CeqeVtHvaFFHId8Y4-223" value="" style="rounded=0;whiteSpace=wrap;html=1;shadow=0;glass=0;labelBackgroundColor=none;sketch=0;fontColor=#ffffff;strokeWidth=2;fillColor=#647687;strokeColor=none;" vertex="1" parent="1">
          <mxGeometry x="693" y="323" width="10" height="17" as="geometry" />
        </mxCell>
        <mxCell id="4G4CeqeVtHvaFFHId8Y4-224" value="" style="rounded=0;whiteSpace=wrap;html=1;shadow=0;glass=0;labelBackgroundColor=none;sketch=0;fontColor=#ffffff;strokeWidth=2;fillColor=#647687;strokeColor=none;" vertex="1" parent="1">
          <mxGeometry x="702" y="331" width="10" height="9" as="geometry" />
        </mxCell>
        <mxCell id="4G4CeqeVtHvaFFHId8Y4-225" value="t" style="text;html=1;strokeColor=none;fillColor=none;align=center;verticalAlign=middle;whiteSpace=wrap;rounded=0;" vertex="1" parent="1">
          <mxGeometry x="672" y="346" width="10" height="30" as="geometry" />
        </mxCell>
        <mxCell id="4G4CeqeVtHvaFFHId8Y4-226" value="" style="rounded=0;whiteSpace=wrap;html=1;strokeColor=#7D7D7D;" vertex="1" parent="1">
          <mxGeometry x="238.75" y="72.5" width="21.25" height="70" as="geometry" />
        </mxCell>
        <mxCell id="4G4CeqeVtHvaFFHId8Y4-227" value="" style="endArrow=none;html=1;rounded=0;entryX=1;entryY=0.25;entryDx=0;entryDy=0;exitX=0;exitY=0.25;exitDx=0;exitDy=0;strokeColor=#7D7D7D;" edge="1" parent="1" source="4G4CeqeVtHvaFFHId8Y4-226" target="4G4CeqeVtHvaFFHId8Y4-226">
          <mxGeometry width="50" height="50" relative="1" as="geometry">
            <mxPoint x="248.75" y="92.5" as="sourcePoint" />
            <mxPoint x="298.75" y="92.5" as="targetPoint" />
          </mxGeometry>
        </mxCell>
        <mxCell id="4G4CeqeVtHvaFFHId8Y4-228" value="" style="endArrow=none;html=1;rounded=0;entryX=1;entryY=0.75;entryDx=0;entryDy=0;exitX=0;exitY=0.75;exitDx=0;exitDy=0;strokeColor=#7D7D7D;" edge="1" parent="1" source="4G4CeqeVtHvaFFHId8Y4-226" target="4G4CeqeVtHvaFFHId8Y4-226">
          <mxGeometry width="50" height="50" relative="1" as="geometry">
            <mxPoint x="248.75" y="132.5" as="sourcePoint" />
            <mxPoint x="298.75" y="82.5" as="targetPoint" />
          </mxGeometry>
        </mxCell>
        <mxCell id="4G4CeqeVtHvaFFHId8Y4-229" value="" style="endArrow=none;html=1;rounded=0;exitX=-0.002;exitY=0.119;exitDx=0;exitDy=0;exitPerimeter=0;entryX=1.005;entryY=0.119;entryDx=0;entryDy=0;entryPerimeter=0;strokeColor=#7D7D7D;" edge="1" parent="1" source="4G4CeqeVtHvaFFHId8Y4-226" target="4G4CeqeVtHvaFFHId8Y4-226">
          <mxGeometry width="50" height="50" relative="1" as="geometry">
            <mxPoint x="258.75" y="132.5" as="sourcePoint" />
            <mxPoint x="308.75" y="82.5" as="targetPoint" />
          </mxGeometry>
        </mxCell>
        <mxCell id="4G4CeqeVtHvaFFHId8Y4-230" value="" style="endArrow=none;html=1;rounded=0;exitX=0.003;exitY=0.878;exitDx=0;exitDy=0;exitPerimeter=0;entryX=1.001;entryY=0.877;entryDx=0;entryDy=0;entryPerimeter=0;strokeColor=#7D7D7D;" edge="1" parent="1" source="4G4CeqeVtHvaFFHId8Y4-226" target="4G4CeqeVtHvaFFHId8Y4-226">
          <mxGeometry width="50" height="50" relative="1" as="geometry">
            <mxPoint x="238.74999999999997" y="132.50000000000006" as="sourcePoint" />
            <mxPoint x="289.09999999999997" y="132.50000000000006" as="targetPoint" />
          </mxGeometry>
        </mxCell>
        <mxCell id="4G4CeqeVtHvaFFHId8Y4-231" value="" style="endArrow=none;dashed=1;html=1;dashPattern=1 3;strokeWidth=2;rounded=0;strokeColor=#7D7D7D;" edge="1" parent="1">
          <mxGeometry width="50" height="50" relative="1" as="geometry">
            <mxPoint x="249.1800000000003" y="117.5" as="sourcePoint" />
            <mxPoint x="249.1800000000003" y="97.5" as="targetPoint" />
            <Array as="points">
              <mxPoint x="249.18" y="117.5" />
            </Array>
          </mxGeometry>
        </mxCell>
        <mxCell id="4G4CeqeVtHvaFFHId8Y4-232" value="" style="endArrow=classic;html=1;rounded=0;strokeColor=#7D7D7D;" edge="1" parent="1">
          <mxGeometry width="50" height="50" relative="1" as="geometry">
            <mxPoint x="228.75" y="72.5" as="sourcePoint" />
            <mxPoint x="228.75" y="142.5" as="targetPoint" />
          </mxGeometry>
        </mxCell>
        <mxCell id="4G4CeqeVtHvaFFHId8Y4-233" value="" style="endArrow=classic;html=1;rounded=0;strokeColor=#7D7D7D;" edge="1" parent="1">
          <mxGeometry width="50" height="50" relative="1" as="geometry">
            <mxPoint x="240" y="154" as="sourcePoint" />
            <mxPoint x="260" y="154" as="targetPoint" />
          </mxGeometry>
        </mxCell>
        <mxCell id="4G4CeqeVtHvaFFHId8Y4-234" value="t" style="text;html=1;strokeColor=none;fillColor=none;align=center;verticalAlign=middle;whiteSpace=wrap;rounded=0;" vertex="1" parent="1">
          <mxGeometry x="217.75" y="92.5" width="10" height="30" as="geometry" />
        </mxCell>
        <mxCell id="4G4CeqeVtHvaFFHId8Y4-235" value="f/n" style="text;html=1;strokeColor=none;fillColor=none;align=center;verticalAlign=middle;whiteSpace=wrap;rounded=0;" vertex="1" parent="1">
          <mxGeometry x="243.34" y="158" width="10" height="20" as="geometry" />
        </mxCell>
        <mxCell id="4G4CeqeVtHvaFFHId8Y4-236" value="" style="endArrow=classic;html=1;rounded=0;strokeColor=#7D7D7D;" edge="1" parent="1">
          <mxGeometry width="50" height="50" relative="1" as="geometry">
            <mxPoint x="269" y="151.72000000000014" as="sourcePoint" />
            <mxPoint x="282" y="135.72000000000003" as="targetPoint" />
          </mxGeometry>
        </mxCell>
        <mxCell id="4G4CeqeVtHvaFFHId8Y4-237" value="n" style="text;html=1;strokeColor=none;fillColor=none;align=center;verticalAlign=middle;whiteSpace=wrap;rounded=0;" vertex="1" parent="1">
          <mxGeometry x="280" y="138" width="10" height="20" as="geometry" />
        </mxCell>
        <mxCell id="4G4CeqeVtHvaFFHId8Y4-238" value="" style="rounded=0;whiteSpace=wrap;html=1;strokeColor=#d79b00;fillColor=#ffe6cc;" vertex="1" parent="1">
          <mxGeometry x="249" y="654" width="50" height="50" as="geometry" />
        </mxCell>
        <mxCell id="4G4CeqeVtHvaFFHId8Y4-239" value="" style="endArrow=classic;html=1;rounded=0;strokeColor=#d79b00;fillColor=#ffe6cc;" edge="1" parent="1">
          <mxGeometry width="50" height="50" relative="1" as="geometry">
            <mxPoint x="250" y="716" as="sourcePoint" />
            <mxPoint x="300" y="716" as="targetPoint" />
          </mxGeometry>
        </mxCell>
        <mxCell id="4G4CeqeVtHvaFFHId8Y4-240" value="f" style="text;html=1;strokeColor=none;fillColor=none;align=center;verticalAlign=middle;whiteSpace=wrap;rounded=0;fontColor=#CC6600;" vertex="1" parent="1">
          <mxGeometry x="269" y="716" width="10" height="20" as="geometry" />
        </mxCell>
        <mxCell id="4G4CeqeVtHvaFFHId8Y4-241" value="" style="endArrow=none;html=1;rounded=0;entryX=1;entryY=0.5;entryDx=0;entryDy=0;exitX=0;exitY=0.5;exitDx=0;exitDy=0;strokeColor=#d79b00;fillColor=#ffe6cc;" edge="1" parent="1" source="4G4CeqeVtHvaFFHId8Y4-238" target="4G4CeqeVtHvaFFHId8Y4-238">
          <mxGeometry width="50" height="50" relative="1" as="geometry">
            <mxPoint x="279" y="684" as="sourcePoint" />
            <mxPoint x="329" y="684" as="targetPoint" />
          </mxGeometry>
        </mxCell>
        <mxCell id="4G4CeqeVtHvaFFHId8Y4-242" value="" style="endArrow=none;html=1;rounded=0;entryX=1;entryY=0.75;entryDx=0;entryDy=0;exitX=0;exitY=0.75;exitDx=0;exitDy=0;strokeColor=#d79b00;fillColor=#ffe6cc;" edge="1" parent="1" source="4G4CeqeVtHvaFFHId8Y4-238" target="4G4CeqeVtHvaFFHId8Y4-238">
          <mxGeometry width="50" height="50" relative="1" as="geometry">
            <mxPoint x="249" y="694" as="sourcePoint" />
            <mxPoint x="299" y="694" as="targetPoint" />
          </mxGeometry>
        </mxCell>
        <mxCell id="4G4CeqeVtHvaFFHId8Y4-243" value="" style="endArrow=none;html=1;rounded=0;entryX=1;entryY=0.25;entryDx=0;entryDy=0;exitX=0;exitY=0.25;exitDx=0;exitDy=0;strokeColor=#d79b00;fillColor=#ffe6cc;" edge="1" parent="1" source="4G4CeqeVtHvaFFHId8Y4-238" target="4G4CeqeVtHvaFFHId8Y4-238">
          <mxGeometry width="50" height="50" relative="1" as="geometry">
            <mxPoint x="249" y="674" as="sourcePoint" />
            <mxPoint x="299" y="674" as="targetPoint" />
          </mxGeometry>
        </mxCell>
        <mxCell id="4G4CeqeVtHvaFFHId8Y4-244" value="" style="endArrow=none;html=1;rounded=0;entryX=0.25;entryY=1;entryDx=0;entryDy=0;exitX=0.25;exitY=0;exitDx=0;exitDy=0;strokeColor=#d79b00;fillColor=#ffe6cc;" edge="1" parent="1" source="4G4CeqeVtHvaFFHId8Y4-238" target="4G4CeqeVtHvaFFHId8Y4-238">
          <mxGeometry width="50" height="50" relative="1" as="geometry">
            <mxPoint x="259" y="676.5" as="sourcePoint" />
            <mxPoint x="309" y="676.5" as="targetPoint" />
          </mxGeometry>
        </mxCell>
        <mxCell id="4G4CeqeVtHvaFFHId8Y4-245" value="" style="endArrow=none;html=1;rounded=0;entryX=0.25;entryY=1;entryDx=0;entryDy=0;exitX=0.25;exitY=0;exitDx=0;exitDy=0;strokeColor=#d79b00;fillColor=#ffe6cc;" edge="1" parent="1">
          <mxGeometry width="50" height="50" relative="1" as="geometry">
            <mxPoint x="273.8899999999999" y="654" as="sourcePoint" />
            <mxPoint x="273.8899999999999" y="704" as="targetPoint" />
          </mxGeometry>
        </mxCell>
        <mxCell id="4G4CeqeVtHvaFFHId8Y4-246" value="" style="endArrow=none;html=1;rounded=0;entryX=0.75;entryY=1;entryDx=0;entryDy=0;exitX=0.75;exitY=0;exitDx=0;exitDy=0;strokeColor=#d79b00;fillColor=#ffe6cc;" edge="1" parent="1" source="4G4CeqeVtHvaFFHId8Y4-238" target="4G4CeqeVtHvaFFHId8Y4-238">
          <mxGeometry width="50" height="50" relative="1" as="geometry">
            <mxPoint x="283.89" y="654" as="sourcePoint" />
            <mxPoint x="283.89" y="704" as="targetPoint" />
          </mxGeometry>
        </mxCell>
        <mxCell id="4G4CeqeVtHvaFFHId8Y4-247" value="f" style="text;html=1;strokeColor=none;fillColor=none;align=center;verticalAlign=middle;whiteSpace=wrap;rounded=0;fontColor=#CC6600;" vertex="1" parent="1">
          <mxGeometry x="229" y="669" width="10" height="20" as="geometry" />
        </mxCell>
        <mxCell id="4G4CeqeVtHvaFFHId8Y4-248" value="" style="endArrow=classic;html=1;rounded=0;strokeColor=#d79b00;fillColor=#ffe6cc;" edge="1" parent="1">
          <mxGeometry width="50" height="50" relative="1" as="geometry">
            <mxPoint x="240" y="654" as="sourcePoint" />
            <mxPoint x="240" y="704" as="targetPoint" />
          </mxGeometry>
        </mxCell>
        <mxCell id="4G4CeqeVtHvaFFHId8Y4-249" value="" style="endArrow=classic;html=1;rounded=0;strokeColor=#d79b00;fillColor=#ffe6cc;" edge="1" parent="1">
          <mxGeometry width="50" height="50" relative="1" as="geometry">
            <mxPoint x="306" y="710" as="sourcePoint" />
            <mxPoint x="319" y="694.0000000000002" as="targetPoint" />
          </mxGeometry>
        </mxCell>
        <mxCell id="4G4CeqeVtHvaFFHId8Y4-250" value="n" style="text;html=1;strokeColor=none;fillColor=none;align=center;verticalAlign=middle;whiteSpace=wrap;rounded=0;fontColor=#CC6600;" vertex="1" parent="1">
          <mxGeometry x="315" y="703.5" width="10" height="20" as="geometry" />
        </mxCell>
        <mxCell id="4G4CeqeVtHvaFFHId8Y4-251" value="" style="rounded=0;whiteSpace=wrap;html=1;strokeColor=#d79b00;fillColor=#ffe6cc;" vertex="1" parent="1">
          <mxGeometry x="394" y="664" width="26" height="50" as="geometry" />
        </mxCell>
        <mxCell id="4G4CeqeVtHvaFFHId8Y4-252" value="" style="endArrow=classic;html=1;rounded=0;strokeColor=#d79b00;fillColor=#ffe6cc;" edge="1" parent="1">
          <mxGeometry width="50" height="50" relative="1" as="geometry">
            <mxPoint x="395" y="726" as="sourcePoint" />
            <mxPoint x="420" y="726" as="targetPoint" />
          </mxGeometry>
        </mxCell>
        <mxCell id="4G4CeqeVtHvaFFHId8Y4-253" value="f/n" style="text;html=1;strokeColor=none;fillColor=none;align=center;verticalAlign=middle;whiteSpace=wrap;rounded=0;fontColor=#CC6600;" vertex="1" parent="1">
          <mxGeometry x="401" y="730.5" width="10" height="20" as="geometry" />
        </mxCell>
        <mxCell id="4G4CeqeVtHvaFFHId8Y4-254" value="" style="endArrow=none;html=1;rounded=0;entryX=1;entryY=0.5;entryDx=0;entryDy=0;exitX=0;exitY=0.5;exitDx=0;exitDy=0;strokeColor=#d79b00;fillColor=#ffe6cc;" edge="1" parent="1" source="4G4CeqeVtHvaFFHId8Y4-251" target="4G4CeqeVtHvaFFHId8Y4-251">
          <mxGeometry width="50" height="50" relative="1" as="geometry">
            <mxPoint x="424" y="694" as="sourcePoint" />
            <mxPoint x="474" y="694" as="targetPoint" />
          </mxGeometry>
        </mxCell>
        <mxCell id="4G4CeqeVtHvaFFHId8Y4-255" value="" style="endArrow=none;html=1;rounded=0;entryX=1;entryY=0.75;entryDx=0;entryDy=0;exitX=0;exitY=0.75;exitDx=0;exitDy=0;strokeColor=#d79b00;fillColor=#ffe6cc;" edge="1" parent="1" source="4G4CeqeVtHvaFFHId8Y4-251" target="4G4CeqeVtHvaFFHId8Y4-251">
          <mxGeometry width="50" height="50" relative="1" as="geometry">
            <mxPoint x="394" y="704" as="sourcePoint" />
            <mxPoint x="444" y="704" as="targetPoint" />
          </mxGeometry>
        </mxCell>
        <mxCell id="4G4CeqeVtHvaFFHId8Y4-256" value="" style="endArrow=none;html=1;rounded=0;entryX=1;entryY=0.25;entryDx=0;entryDy=0;exitX=0;exitY=0.25;exitDx=0;exitDy=0;strokeColor=#d79b00;fillColor=#ffe6cc;" edge="1" parent="1" source="4G4CeqeVtHvaFFHId8Y4-251" target="4G4CeqeVtHvaFFHId8Y4-251">
          <mxGeometry width="50" height="50" relative="1" as="geometry">
            <mxPoint x="394" y="684" as="sourcePoint" />
            <mxPoint x="444" y="684" as="targetPoint" />
          </mxGeometry>
        </mxCell>
        <mxCell id="4G4CeqeVtHvaFFHId8Y4-257" value="" style="endArrow=none;html=1;rounded=0;entryX=0.5;entryY=1;entryDx=0;entryDy=0;strokeColor=#d79b00;fillColor=#ffe6cc;exitX=0.5;exitY=0;exitDx=0;exitDy=0;" edge="1" parent="1" source="4G4CeqeVtHvaFFHId8Y4-251" target="4G4CeqeVtHvaFFHId8Y4-251">
          <mxGeometry width="50" height="50" relative="1" as="geometry">
            <mxPoint x="420" y="664" as="sourcePoint" />
            <mxPoint x="418.8899999999999" y="714" as="targetPoint" />
          </mxGeometry>
        </mxCell>
        <mxCell id="4G4CeqeVtHvaFFHId8Y4-258" value="f" style="text;html=1;strokeColor=none;fillColor=none;align=center;verticalAlign=middle;whiteSpace=wrap;rounded=0;fontColor=#CC6600;" vertex="1" parent="1">
          <mxGeometry x="374" y="679" width="10" height="20" as="geometry" />
        </mxCell>
        <mxCell id="4G4CeqeVtHvaFFHId8Y4-259" value="" style="endArrow=classic;html=1;rounded=0;strokeColor=#d79b00;fillColor=#ffe6cc;" edge="1" parent="1">
          <mxGeometry width="50" height="50" relative="1" as="geometry">
            <mxPoint x="385" y="664" as="sourcePoint" />
            <mxPoint x="385" y="714" as="targetPoint" />
          </mxGeometry>
        </mxCell>
        <mxCell id="4G4CeqeVtHvaFFHId8Y4-260" value="" style="endArrow=classic;html=1;rounded=0;strokeColor=#d79b00;fillColor=#ffe6cc;" edge="1" parent="1">
          <mxGeometry width="50" height="50" relative="1" as="geometry">
            <mxPoint x="426" y="722.5" as="sourcePoint" />
            <mxPoint x="439" y="706.5000000000002" as="targetPoint" />
          </mxGeometry>
        </mxCell>
        <mxCell id="4G4CeqeVtHvaFFHId8Y4-261" value="n" style="text;html=1;strokeColor=none;fillColor=none;align=center;verticalAlign=middle;whiteSpace=wrap;rounded=0;fontColor=#CC6600;" vertex="1" parent="1">
          <mxGeometry x="435" y="716" width="10" height="20" as="geometry" />
        </mxCell>
        <mxCell id="4G4CeqeVtHvaFFHId8Y4-262" value="" style="whiteSpace=wrap;html=1;aspect=fixed;strokeColor=#7D7D7D;" vertex="1" parent="1">
          <mxGeometry x="666" y="426" width="70" height="70" as="geometry" />
        </mxCell>
        <mxCell id="4G4CeqeVtHvaFFHId8Y4-263" value="" style="endArrow=none;html=1;rounded=0;strokeColor=#7D7D7D;entryX=0.25;entryY=0;entryDx=0;entryDy=0;exitX=0.25;exitY=1;exitDx=0;exitDy=0;" edge="1" parent="1" source="4G4CeqeVtHvaFFHId8Y4-262" target="4G4CeqeVtHvaFFHId8Y4-262">
          <mxGeometry width="50" height="50" relative="1" as="geometry">
            <mxPoint x="676" y="476" as="sourcePoint" />
            <mxPoint x="726" y="426" as="targetPoint" />
          </mxGeometry>
        </mxCell>
        <mxCell id="4G4CeqeVtHvaFFHId8Y4-264" value="" style="endArrow=none;html=1;rounded=0;strokeColor=#7D7D7D;entryX=0.75;entryY=0;entryDx=0;entryDy=0;exitX=0.75;exitY=1;exitDx=0;exitDy=0;" edge="1" parent="1" source="4G4CeqeVtHvaFFHId8Y4-262" target="4G4CeqeVtHvaFFHId8Y4-262">
          <mxGeometry width="50" height="50" relative="1" as="geometry">
            <mxPoint x="776" y="496" as="sourcePoint" />
            <mxPoint x="776" y="416" as="targetPoint" />
          </mxGeometry>
        </mxCell>
        <mxCell id="4G4CeqeVtHvaFFHId8Y4-265" value="" style="endArrow=none;html=1;rounded=0;strokeColor=#7D7D7D;entryX=0.75;entryY=0;entryDx=0;entryDy=0;exitX=0.75;exitY=1;exitDx=0;exitDy=0;" edge="1" parent="1">
          <mxGeometry width="50" height="50" relative="1" as="geometry">
            <mxPoint x="675" y="496" as="sourcePoint" />
            <mxPoint x="675" y="426" as="targetPoint" />
          </mxGeometry>
        </mxCell>
        <mxCell id="4G4CeqeVtHvaFFHId8Y4-266" value="" style="endArrow=none;html=1;rounded=0;strokeColor=#7D7D7D;entryX=0.75;entryY=0;entryDx=0;entryDy=0;exitX=0.75;exitY=1;exitDx=0;exitDy=0;" edge="1" parent="1">
          <mxGeometry width="50" height="50" relative="1" as="geometry">
            <mxPoint x="727" y="496" as="sourcePoint" />
            <mxPoint x="727" y="426" as="targetPoint" />
          </mxGeometry>
        </mxCell>
        <mxCell id="4G4CeqeVtHvaFFHId8Y4-267" value="" style="endArrow=none;html=1;rounded=0;strokeColor=#7D7D7D;exitX=0;exitY=0.25;exitDx=0;exitDy=0;entryX=1;entryY=0.25;entryDx=0;entryDy=0;" edge="1" parent="1" source="4G4CeqeVtHvaFFHId8Y4-262" target="4G4CeqeVtHvaFFHId8Y4-262">
          <mxGeometry width="50" height="50" relative="1" as="geometry">
            <mxPoint x="676" y="456" as="sourcePoint" />
            <mxPoint x="726" y="406" as="targetPoint" />
          </mxGeometry>
        </mxCell>
        <mxCell id="4G4CeqeVtHvaFFHId8Y4-268" value="" style="endArrow=none;html=1;rounded=0;strokeColor=#7D7D7D;exitX=0;exitY=0.25;exitDx=0;exitDy=0;entryX=1;entryY=0.25;entryDx=0;entryDy=0;" edge="1" parent="1">
          <mxGeometry width="50" height="50" relative="1" as="geometry">
            <mxPoint x="666" y="435" as="sourcePoint" />
            <mxPoint x="736" y="435" as="targetPoint" />
          </mxGeometry>
        </mxCell>
        <mxCell id="4G4CeqeVtHvaFFHId8Y4-269" value="" style="endArrow=none;html=1;rounded=0;strokeColor=#7D7D7D;exitX=0;exitY=0.75;exitDx=0;exitDy=0;entryX=1;entryY=0.75;entryDx=0;entryDy=0;" edge="1" parent="1" source="4G4CeqeVtHvaFFHId8Y4-262" target="4G4CeqeVtHvaFFHId8Y4-262">
          <mxGeometry width="50" height="50" relative="1" as="geometry">
            <mxPoint x="666" y="486" as="sourcePoint" />
            <mxPoint x="736" y="486" as="targetPoint" />
          </mxGeometry>
        </mxCell>
        <mxCell id="4G4CeqeVtHvaFFHId8Y4-270" value="" style="endArrow=none;html=1;rounded=0;strokeColor=#7D7D7D;exitX=0;exitY=0.75;exitDx=0;exitDy=0;entryX=1;entryY=0.75;entryDx=0;entryDy=0;" edge="1" parent="1">
          <mxGeometry width="50" height="50" relative="1" as="geometry">
            <mxPoint x="666" y="487" as="sourcePoint" />
            <mxPoint x="736" y="487" as="targetPoint" />
          </mxGeometry>
        </mxCell>
        <mxCell id="4G4CeqeVtHvaFFHId8Y4-271" value="" style="endArrow=none;html=1;rounded=0;strokeColor=#7D7D7D;entryX=0.75;entryY=0;entryDx=0;entryDy=0;exitX=0.75;exitY=1;exitDx=0;exitDy=0;" edge="1" parent="1">
          <mxGeometry width="50" height="50" relative="1" as="geometry">
            <mxPoint x="700.8899999999999" y="496" as="sourcePoint" />
            <mxPoint x="700.8899999999999" y="426" as="targetPoint" />
          </mxGeometry>
        </mxCell>
        <mxCell id="4G4CeqeVtHvaFFHId8Y4-272" value="" style="endArrow=none;html=1;rounded=0;strokeColor=#7D7D7D;entryX=0.75;entryY=0;entryDx=0;entryDy=0;exitX=0.75;exitY=1;exitDx=0;exitDy=0;" edge="1" parent="1">
          <mxGeometry width="50" height="50" relative="1" as="geometry">
            <mxPoint x="709.8899999999999" y="496" as="sourcePoint" />
            <mxPoint x="709.8899999999999" y="426" as="targetPoint" />
          </mxGeometry>
        </mxCell>
        <mxCell id="4G4CeqeVtHvaFFHId8Y4-273" value="" style="endArrow=none;html=1;rounded=0;strokeColor=#7D7D7D;entryX=0.75;entryY=0;entryDx=0;entryDy=0;exitX=0.75;exitY=1;exitDx=0;exitDy=0;" edge="1" parent="1">
          <mxGeometry width="50" height="50" relative="1" as="geometry">
            <mxPoint x="692" y="496" as="sourcePoint" />
            <mxPoint x="692" y="426" as="targetPoint" />
          </mxGeometry>
        </mxCell>
        <mxCell id="4G4CeqeVtHvaFFHId8Y4-274" value="" style="endArrow=none;html=1;rounded=0;strokeColor=#7D7D7D;exitX=0;exitY=0.25;exitDx=0;exitDy=0;entryX=1;entryY=0.25;entryDx=0;entryDy=0;" edge="1" parent="1">
          <mxGeometry width="50" height="50" relative="1" as="geometry">
            <mxPoint x="666" y="452.5" as="sourcePoint" />
            <mxPoint x="736" y="452.5" as="targetPoint" />
          </mxGeometry>
        </mxCell>
        <mxCell id="4G4CeqeVtHvaFFHId8Y4-275" value="" style="endArrow=none;html=1;rounded=0;strokeColor=#7D7D7D;exitX=0;exitY=0.25;exitDx=0;exitDy=0;entryX=1;entryY=0.25;entryDx=0;entryDy=0;" edge="1" parent="1">
          <mxGeometry width="50" height="50" relative="1" as="geometry">
            <mxPoint x="666" y="461.5" as="sourcePoint" />
            <mxPoint x="736" y="461.5" as="targetPoint" />
          </mxGeometry>
        </mxCell>
        <mxCell id="4G4CeqeVtHvaFFHId8Y4-276" value="" style="endArrow=none;html=1;rounded=0;strokeColor=#7D7D7D;exitX=0;exitY=0.25;exitDx=0;exitDy=0;entryX=1;entryY=0.25;entryDx=0;entryDy=0;" edge="1" parent="1">
          <mxGeometry width="50" height="50" relative="1" as="geometry">
            <mxPoint x="666" y="469.5" as="sourcePoint" />
            <mxPoint x="736" y="469.5" as="targetPoint" />
          </mxGeometry>
        </mxCell>
        <mxCell id="4G4CeqeVtHvaFFHId8Y4-277" value="" style="endArrow=classic;html=1;rounded=0;strokeColor=#7D7D7D;" edge="1" parent="1">
          <mxGeometry width="50" height="50" relative="1" as="geometry">
            <mxPoint x="655" y="426" as="sourcePoint" />
            <mxPoint x="655" y="496" as="targetPoint" />
          </mxGeometry>
        </mxCell>
        <mxCell id="4G4CeqeVtHvaFFHId8Y4-278" value="t" style="text;html=1;strokeColor=none;fillColor=none;align=center;verticalAlign=middle;whiteSpace=wrap;rounded=0;" vertex="1" parent="1">
          <mxGeometry x="644" y="446" width="10" height="30" as="geometry" />
        </mxCell>
        <mxCell id="4G4CeqeVtHvaFFHId8Y4-279" value="" style="endArrow=classic;html=1;rounded=0;strokeColor=#7D7D7D;" edge="1" parent="1">
          <mxGeometry width="50" height="50" relative="1" as="geometry">
            <mxPoint x="666" y="506" as="sourcePoint" />
            <mxPoint x="736" y="506" as="targetPoint" />
          </mxGeometry>
        </mxCell>
        <mxCell id="4G4CeqeVtHvaFFHId8Y4-280" value="t" style="text;html=1;strokeColor=none;fillColor=none;align=center;verticalAlign=middle;whiteSpace=wrap;rounded=0;" vertex="1" parent="1">
          <mxGeometry x="696" y="504" width="10" height="30" as="geometry" />
        </mxCell>
        <mxCell id="4G4CeqeVtHvaFFHId8Y4-281" value="" style="endArrow=classic;html=1;rounded=0;strokeColor=#7D7D7D;" edge="1" parent="1">
          <mxGeometry width="50" height="50" relative="1" as="geometry">
            <mxPoint x="742" y="506" as="sourcePoint" />
            <mxPoint x="755" y="490" as="targetPoint" />
          </mxGeometry>
        </mxCell>
        <mxCell id="4G4CeqeVtHvaFFHId8Y4-282" value="n" style="text;html=1;strokeColor=none;fillColor=none;align=center;verticalAlign=middle;whiteSpace=wrap;rounded=0;" vertex="1" parent="1">
          <mxGeometry x="751" y="499" width="10" height="20" as="geometry" />
        </mxCell>
        <mxCell id="4G4CeqeVtHvaFFHId8Y4-283" value="" style="whiteSpace=wrap;html=1;aspect=fixed;strokeColor=#7D7D7D;" vertex="1" parent="1">
          <mxGeometry x="636" y="48.72" width="70" height="70" as="geometry" />
        </mxCell>
        <mxCell id="4G4CeqeVtHvaFFHId8Y4-284" value="" style="endArrow=none;html=1;rounded=0;strokeColor=#7D7D7D;entryX=0.25;entryY=0;entryDx=0;entryDy=0;exitX=0.25;exitY=1;exitDx=0;exitDy=0;" edge="1" parent="1" source="4G4CeqeVtHvaFFHId8Y4-283" target="4G4CeqeVtHvaFFHId8Y4-283">
          <mxGeometry width="50" height="50" relative="1" as="geometry">
            <mxPoint x="646" y="98.72" as="sourcePoint" />
            <mxPoint x="696" y="48.72" as="targetPoint" />
          </mxGeometry>
        </mxCell>
        <mxCell id="4G4CeqeVtHvaFFHId8Y4-285" value="" style="endArrow=none;html=1;rounded=0;strokeColor=#7D7D7D;entryX=0.75;entryY=0;entryDx=0;entryDy=0;exitX=0.75;exitY=1;exitDx=0;exitDy=0;" edge="1" parent="1" source="4G4CeqeVtHvaFFHId8Y4-283" target="4G4CeqeVtHvaFFHId8Y4-283">
          <mxGeometry width="50" height="50" relative="1" as="geometry">
            <mxPoint x="746" y="118.72" as="sourcePoint" />
            <mxPoint x="746" y="38.72" as="targetPoint" />
          </mxGeometry>
        </mxCell>
        <mxCell id="4G4CeqeVtHvaFFHId8Y4-286" value="" style="endArrow=none;html=1;rounded=0;strokeColor=#7D7D7D;entryX=0.75;entryY=0;entryDx=0;entryDy=0;exitX=0.75;exitY=1;exitDx=0;exitDy=0;" edge="1" parent="1">
          <mxGeometry width="50" height="50" relative="1" as="geometry">
            <mxPoint x="645" y="118.72000000000003" as="sourcePoint" />
            <mxPoint x="645" y="48.72000000000003" as="targetPoint" />
          </mxGeometry>
        </mxCell>
        <mxCell id="4G4CeqeVtHvaFFHId8Y4-287" value="" style="endArrow=none;html=1;rounded=0;strokeColor=#7D7D7D;entryX=0.75;entryY=0;entryDx=0;entryDy=0;exitX=0.75;exitY=1;exitDx=0;exitDy=0;" edge="1" parent="1">
          <mxGeometry width="50" height="50" relative="1" as="geometry">
            <mxPoint x="697" y="118.72000000000003" as="sourcePoint" />
            <mxPoint x="697" y="48.72000000000003" as="targetPoint" />
          </mxGeometry>
        </mxCell>
        <mxCell id="4G4CeqeVtHvaFFHId8Y4-288" value="" style="endArrow=none;html=1;rounded=0;strokeColor=#7D7D7D;exitX=0;exitY=0.25;exitDx=0;exitDy=0;entryX=1;entryY=0.25;entryDx=0;entryDy=0;" edge="1" parent="1" source="4G4CeqeVtHvaFFHId8Y4-283" target="4G4CeqeVtHvaFFHId8Y4-283">
          <mxGeometry width="50" height="50" relative="1" as="geometry">
            <mxPoint x="646" y="78.72" as="sourcePoint" />
            <mxPoint x="696" y="28.72" as="targetPoint" />
          </mxGeometry>
        </mxCell>
        <mxCell id="4G4CeqeVtHvaFFHId8Y4-289" value="" style="endArrow=none;html=1;rounded=0;strokeColor=#7D7D7D;exitX=0;exitY=0.25;exitDx=0;exitDy=0;entryX=1;entryY=0.25;entryDx=0;entryDy=0;" edge="1" parent="1">
          <mxGeometry width="50" height="50" relative="1" as="geometry">
            <mxPoint x="636" y="57.72000000000003" as="sourcePoint" />
            <mxPoint x="706" y="57.72000000000003" as="targetPoint" />
          </mxGeometry>
        </mxCell>
        <mxCell id="4G4CeqeVtHvaFFHId8Y4-290" value="" style="endArrow=none;html=1;rounded=0;strokeColor=#7D7D7D;exitX=0;exitY=0.75;exitDx=0;exitDy=0;entryX=1;entryY=0.75;entryDx=0;entryDy=0;" edge="1" parent="1" source="4G4CeqeVtHvaFFHId8Y4-283" target="4G4CeqeVtHvaFFHId8Y4-283">
          <mxGeometry width="50" height="50" relative="1" as="geometry">
            <mxPoint x="636" y="108.72" as="sourcePoint" />
            <mxPoint x="706" y="108.72" as="targetPoint" />
          </mxGeometry>
        </mxCell>
        <mxCell id="4G4CeqeVtHvaFFHId8Y4-291" value="" style="endArrow=none;html=1;rounded=0;strokeColor=#7D7D7D;exitX=0;exitY=0.75;exitDx=0;exitDy=0;entryX=1;entryY=0.75;entryDx=0;entryDy=0;" edge="1" parent="1">
          <mxGeometry width="50" height="50" relative="1" as="geometry">
            <mxPoint x="636" y="109.72000000000003" as="sourcePoint" />
            <mxPoint x="706" y="109.72000000000003" as="targetPoint" />
          </mxGeometry>
        </mxCell>
        <mxCell id="4G4CeqeVtHvaFFHId8Y4-292" value="" style="endArrow=none;html=1;rounded=0;strokeColor=#7D7D7D;entryX=0.75;entryY=0;entryDx=0;entryDy=0;exitX=0.75;exitY=1;exitDx=0;exitDy=0;" edge="1" parent="1">
          <mxGeometry width="50" height="50" relative="1" as="geometry">
            <mxPoint x="670.8899999999999" y="118.72000000000003" as="sourcePoint" />
            <mxPoint x="670.8899999999999" y="48.72000000000003" as="targetPoint" />
          </mxGeometry>
        </mxCell>
        <mxCell id="4G4CeqeVtHvaFFHId8Y4-293" value="" style="endArrow=none;html=1;rounded=0;strokeColor=#7D7D7D;entryX=0.75;entryY=0;entryDx=0;entryDy=0;exitX=0.75;exitY=1;exitDx=0;exitDy=0;" edge="1" parent="1">
          <mxGeometry width="50" height="50" relative="1" as="geometry">
            <mxPoint x="679.8899999999999" y="118.72000000000003" as="sourcePoint" />
            <mxPoint x="679.8899999999999" y="48.72000000000003" as="targetPoint" />
          </mxGeometry>
        </mxCell>
        <mxCell id="4G4CeqeVtHvaFFHId8Y4-294" value="" style="endArrow=none;html=1;rounded=0;strokeColor=#7D7D7D;entryX=0.75;entryY=0;entryDx=0;entryDy=0;exitX=0.75;exitY=1;exitDx=0;exitDy=0;" edge="1" parent="1">
          <mxGeometry width="50" height="50" relative="1" as="geometry">
            <mxPoint x="662" y="118.72000000000003" as="sourcePoint" />
            <mxPoint x="662" y="48.72000000000003" as="targetPoint" />
          </mxGeometry>
        </mxCell>
        <mxCell id="4G4CeqeVtHvaFFHId8Y4-295" value="" style="endArrow=none;html=1;rounded=0;strokeColor=#7D7D7D;exitX=0;exitY=0.25;exitDx=0;exitDy=0;entryX=1;entryY=0.25;entryDx=0;entryDy=0;" edge="1" parent="1">
          <mxGeometry width="50" height="50" relative="1" as="geometry">
            <mxPoint x="636" y="75.22000000000003" as="sourcePoint" />
            <mxPoint x="706" y="75.22000000000003" as="targetPoint" />
          </mxGeometry>
        </mxCell>
        <mxCell id="4G4CeqeVtHvaFFHId8Y4-296" value="" style="endArrow=none;html=1;rounded=0;strokeColor=#7D7D7D;exitX=0;exitY=0.25;exitDx=0;exitDy=0;entryX=1;entryY=0.25;entryDx=0;entryDy=0;" edge="1" parent="1">
          <mxGeometry width="50" height="50" relative="1" as="geometry">
            <mxPoint x="636" y="84.22000000000003" as="sourcePoint" />
            <mxPoint x="706" y="84.22000000000003" as="targetPoint" />
          </mxGeometry>
        </mxCell>
        <mxCell id="4G4CeqeVtHvaFFHId8Y4-297" value="" style="endArrow=none;html=1;rounded=0;strokeColor=#7D7D7D;exitX=0;exitY=0.25;exitDx=0;exitDy=0;entryX=1;entryY=0.25;entryDx=0;entryDy=0;" edge="1" parent="1">
          <mxGeometry width="50" height="50" relative="1" as="geometry">
            <mxPoint x="636" y="92.22000000000003" as="sourcePoint" />
            <mxPoint x="706" y="92.22000000000003" as="targetPoint" />
          </mxGeometry>
        </mxCell>
        <mxCell id="4G4CeqeVtHvaFFHId8Y4-298" value="" style="endArrow=classic;html=1;rounded=0;strokeColor=#7D7D7D;" edge="1" parent="1">
          <mxGeometry width="50" height="50" relative="1" as="geometry">
            <mxPoint x="625" y="48.72000000000003" as="sourcePoint" />
            <mxPoint x="625" y="118.72000000000003" as="targetPoint" />
          </mxGeometry>
        </mxCell>
        <mxCell id="4G4CeqeVtHvaFFHId8Y4-299" value="t" style="text;html=1;strokeColor=none;fillColor=none;align=center;verticalAlign=middle;whiteSpace=wrap;rounded=0;" vertex="1" parent="1">
          <mxGeometry x="614" y="68.72" width="10" height="30" as="geometry" />
        </mxCell>
        <mxCell id="4G4CeqeVtHvaFFHId8Y4-300" value="" style="endArrow=classic;html=1;rounded=0;strokeColor=#7D7D7D;" edge="1" parent="1">
          <mxGeometry width="50" height="50" relative="1" as="geometry">
            <mxPoint x="636" y="128.72000000000003" as="sourcePoint" />
            <mxPoint x="706" y="128.72000000000003" as="targetPoint" />
          </mxGeometry>
        </mxCell>
        <mxCell id="4G4CeqeVtHvaFFHId8Y4-301" value="t" style="text;html=1;strokeColor=none;fillColor=none;align=center;verticalAlign=middle;whiteSpace=wrap;rounded=0;" vertex="1" parent="1">
          <mxGeometry x="666" y="126.72" width="10" height="30" as="geometry" />
        </mxCell>
        <mxCell id="4G4CeqeVtHvaFFHId8Y4-302" value="" style="rounded=0;whiteSpace=wrap;html=1;fillColor=#B3B3B3;strokeColor=none;" vertex="1" parent="1">
          <mxGeometry x="645.5" y="49" width="60" height="8.5" as="geometry" />
        </mxCell>
        <mxCell id="4G4CeqeVtHvaFFHId8Y4-303" value="" style="rounded=0;whiteSpace=wrap;html=1;fillColor=#B3B3B3;strokeColor=none;" vertex="1" parent="1">
          <mxGeometry x="654" y="50" width="51.5" height="16" as="geometry" />
        </mxCell>
        <mxCell id="4G4CeqeVtHvaFFHId8Y4-304" value="" style="rounded=0;whiteSpace=wrap;html=1;fillColor=#B3B3B3;strokeColor=none;" vertex="1" parent="1">
          <mxGeometry x="662" y="60" width="43.5" height="15" as="geometry" />
        </mxCell>
        <mxCell id="4G4CeqeVtHvaFFHId8Y4-305" value="" style="rounded=0;whiteSpace=wrap;html=1;fillColor=#B3B3B3;strokeColor=none;" vertex="1" parent="1">
          <mxGeometry x="671" y="68.72" width="34.5" height="15" as="geometry" />
        </mxCell>
        <mxCell id="4G4CeqeVtHvaFFHId8Y4-306" value="" style="rounded=0;whiteSpace=wrap;html=1;fillColor=#B3B3B3;strokeColor=none;" vertex="1" parent="1">
          <mxGeometry x="680" y="77" width="25.5" height="15" as="geometry" />
        </mxCell>
        <mxCell id="4G4CeqeVtHvaFFHId8Y4-307" value="" style="rounded=0;whiteSpace=wrap;html=1;fillColor=#B3B3B3;strokeColor=none;" vertex="1" parent="1">
          <mxGeometry x="689" y="86" width="16.5" height="15" as="geometry" />
        </mxCell>
        <mxCell id="4G4CeqeVtHvaFFHId8Y4-308" value="" style="rounded=0;whiteSpace=wrap;html=1;fillColor=#B3B3B3;strokeColor=none;" vertex="1" parent="1">
          <mxGeometry x="697" y="94.5" width="8.5" height="15" as="geometry" />
        </mxCell>
        <mxCell id="YV0ZVL2tN4TzSwFUrhcD-1" value="" style="rounded=0;whiteSpace=wrap;html=1;strokeColor=#7D7D7D;" vertex="1" parent="1">
          <mxGeometry x="703" y="623.5" width="147" height="70" as="geometry" />
        </mxCell>
        <mxCell id="YV0ZVL2tN4TzSwFUrhcD-2" value="" style="endArrow=none;html=1;rounded=0;entryX=1;entryY=0.25;entryDx=0;entryDy=0;exitX=0;exitY=0.25;exitDx=0;exitDy=0;strokeColor=#7D7D7D;" edge="1" parent="1" source="YV0ZVL2tN4TzSwFUrhcD-1" target="YV0ZVL2tN4TzSwFUrhcD-1">
          <mxGeometry width="50" height="50" relative="1" as="geometry">
            <mxPoint x="713" y="643.5" as="sourcePoint" />
            <mxPoint x="763" y="643.5" as="targetPoint" />
          </mxGeometry>
        </mxCell>
        <mxCell id="YV0ZVL2tN4TzSwFUrhcD-3" value="" style="endArrow=none;html=1;rounded=0;entryX=1;entryY=0.75;entryDx=0;entryDy=0;exitX=0;exitY=0.75;exitDx=0;exitDy=0;strokeColor=#7D7D7D;" edge="1" parent="1" source="YV0ZVL2tN4TzSwFUrhcD-1" target="YV0ZVL2tN4TzSwFUrhcD-1">
          <mxGeometry width="50" height="50" relative="1" as="geometry">
            <mxPoint x="713" y="683.5" as="sourcePoint" />
            <mxPoint x="763" y="633.5" as="targetPoint" />
          </mxGeometry>
        </mxCell>
        <mxCell id="YV0ZVL2tN4TzSwFUrhcD-4" value="" style="endArrow=none;html=1;rounded=0;exitX=-0.002;exitY=0.119;exitDx=0;exitDy=0;exitPerimeter=0;entryX=1.005;entryY=0.119;entryDx=0;entryDy=0;entryPerimeter=0;strokeColor=#7D7D7D;" edge="1" parent="1" source="YV0ZVL2tN4TzSwFUrhcD-1" target="YV0ZVL2tN4TzSwFUrhcD-1">
          <mxGeometry width="50" height="50" relative="1" as="geometry">
            <mxPoint x="723" y="683.5" as="sourcePoint" />
            <mxPoint x="773" y="633.5" as="targetPoint" />
          </mxGeometry>
        </mxCell>
        <mxCell id="YV0ZVL2tN4TzSwFUrhcD-5" value="" style="endArrow=none;html=1;rounded=0;exitX=0.003;exitY=0.878;exitDx=0;exitDy=0;exitPerimeter=0;entryX=1.001;entryY=0.877;entryDx=0;entryDy=0;entryPerimeter=0;strokeColor=#7D7D7D;" edge="1" parent="1" source="YV0ZVL2tN4TzSwFUrhcD-1" target="YV0ZVL2tN4TzSwFUrhcD-1">
          <mxGeometry width="50" height="50" relative="1" as="geometry">
            <mxPoint x="703" y="683.5" as="sourcePoint" />
            <mxPoint x="753.3499999999999" y="683.5" as="targetPoint" />
          </mxGeometry>
        </mxCell>
        <mxCell id="YV0ZVL2tN4TzSwFUrhcD-6" value="" style="endArrow=none;dashed=1;html=1;dashPattern=1 3;strokeWidth=2;rounded=0;strokeColor=#7D7D7D;" edge="1" parent="1">
          <mxGeometry width="50" height="50" relative="1" as="geometry">
            <mxPoint x="776.0000000000001" y="668.5" as="sourcePoint" />
            <mxPoint x="776.0000000000001" y="648.5" as="targetPoint" />
            <Array as="points">
              <mxPoint x="776.0000000000001" y="668.5" />
            </Array>
          </mxGeometry>
        </mxCell>
        <mxCell id="YV0ZVL2tN4TzSwFUrhcD-7" value="" style="endArrow=classic;html=1;rounded=0;strokeColor=#7D7D7D;" edge="1" parent="1">
          <mxGeometry width="50" height="50" relative="1" as="geometry">
            <mxPoint x="693" y="623.5" as="sourcePoint" />
            <mxPoint x="693" y="693.5" as="targetPoint" />
          </mxGeometry>
        </mxCell>
        <mxCell id="YV0ZVL2tN4TzSwFUrhcD-8" value="" style="endArrow=classic;html=1;rounded=0;strokeColor=#7D7D7D;" edge="1" parent="1">
          <mxGeometry width="50" height="50" relative="1" as="geometry">
            <mxPoint x="703" y="703.5" as="sourcePoint" />
            <mxPoint x="850" y="704" as="targetPoint" />
          </mxGeometry>
        </mxCell>
        <mxCell id="YV0ZVL2tN4TzSwFUrhcD-9" value="t" style="text;html=1;strokeColor=none;fillColor=none;align=center;verticalAlign=middle;whiteSpace=wrap;rounded=0;" vertex="1" parent="1">
          <mxGeometry x="682" y="643.5" width="10" height="30" as="geometry" />
        </mxCell>
        <mxCell id="YV0ZVL2tN4TzSwFUrhcD-10" value="f" style="text;html=1;strokeColor=none;fillColor=none;align=center;verticalAlign=middle;whiteSpace=wrap;rounded=0;" vertex="1" parent="1">
          <mxGeometry x="771.5" y="704" width="10" height="20" as="geometry" />
        </mxCell>
      </root>
    </mxGraphModel>
  </diagram>
  <diagram id="FRbrRVSJjpzCVcLSyWYp" name="General">
    <mxGraphModel dx="1422" dy="800" grid="1" gridSize="10" guides="1" tooltips="1" connect="1" arrows="1" fold="1" page="1" pageScale="1" pageWidth="1100" pageHeight="850" math="0" shadow="0">
      <root>
        <mxCell id="0" />
        <mxCell id="1" parent="0" />
        <mxCell id="jZsmn4iYEsbIGbM0aHem-5" style="edgeStyle=orthogonalEdgeStyle;rounded=0;orthogonalLoop=1;jettySize=auto;html=1;exitX=1;exitY=0.25;exitDx=0;exitDy=0;entryX=1;entryY=0.5;entryDx=0;entryDy=0;" edge="1" parent="1" source="jZsmn4iYEsbIGbM0aHem-1" target="jZsmn4iYEsbIGbM0aHem-2">
          <mxGeometry relative="1" as="geometry" />
        </mxCell>
        <mxCell id="jZsmn4iYEsbIGbM0aHem-1" value="" style="shape=image;verticalLabelPosition=bottom;labelBackgroundColor=default;verticalAlign=top;aspect=fixed;imageAspect=0;image=data:image/svg+xml,PHN2ZyB4bWxucz0iaHR0cDovL3d3dy53My5vcmcvMjAwMC9zdmciIHhtbG5zOnhsaW5rPSJodHRwOi8vd3d3LnczLm9yZy8xOTk5L3hsaW5rIiB2ZXJzaW9uPSIxLjEiIHdpZHRoPSI4MHB4IiBoZWlnaHQ9IjEwOHB4IiB2aWV3Qm94PSItMC41IC0wLjUgODAgMTA4Ij48ZGVmcy8+PGc+PHJlY3QgeD0iMjEiIHk9IjciIHdpZHRoPSI1MCIgaGVpZ2h0PSI3MCIgZmlsbD0icmdiKDI1NSwgMjU1LCAyNTUpIiBzdHJva2U9IiM3ZDdkN2QiIHBvaW50ZXItZXZlbnRzPSJhbGwiLz48cGF0aCBkPSJNIDIxIDI0LjUgTCA3MSAyNC41IiBmaWxsPSJub25lIiBzdHJva2U9IiM3ZDdkN2QiIHN0cm9rZS1taXRlcmxpbWl0PSIxMCIgcG9pbnRlci1ldmVudHM9InN0cm9rZSIvPjxwYXRoIGQ9Ik0gMjEgNTkuNSBMIDcxIDU5LjUiIGZpbGw9Im5vbmUiIHN0cm9rZT0iIzdkN2Q3ZCIgc3Ryb2tlLW1pdGVybGltaXQ9IjEwIiBwb2ludGVyLWV2ZW50cz0ic3Ryb2tlIi8+PHBhdGggZD0iTSAyMC45IDE1LjMzIEwgNzEuMjUgMTUuMzMiIGZpbGw9Im5vbmUiIHN0cm9rZT0iIzdkN2Q3ZCIgc3Ryb2tlLW1pdGVybGltaXQ9IjEwIiBwb2ludGVyLWV2ZW50cz0ic3Ryb2tlIi8+PHBhdGggZD0iTSAyMS4xNSA2OC40NiBMIDcxLjA1IDY4LjM5IiBmaWxsPSJub25lIiBzdHJva2U9IiM3ZDdkN2QiIHN0cm9rZS1taXRlcmxpbWl0PSIxMCIgcG9pbnRlci1ldmVudHM9InN0cm9rZSIvPjxwYXRoIGQ9Ik0gNDUuOTIgNTIgTCA0NS45MiAzMiIgZmlsbD0ibm9uZSIgc3Ryb2tlPSIjN2Q3ZDdkIiBzdHJva2Utd2lkdGg9IjIiIHN0cm9rZS1taXRlcmxpbWl0PSIxMCIgc3Ryb2tlLWRhc2hhcnJheT0iMiA2IiBwb2ludGVyLWV2ZW50cz0ic3Ryb2tlIi8+PHBhdGggZD0iTSAxMSA3IEwgMTEgNzAuNjMiIGZpbGw9Im5vbmUiIHN0cm9rZT0iIzdkN2Q3ZCIgc3Ryb2tlLW1pdGVybGltaXQ9IjEwIiBwb2ludGVyLWV2ZW50cz0ic3Ryb2tlIi8+PHBhdGggZD0iTSAxMSA3NS44OCBMIDcuNSA2OC44OCBMIDExIDcwLjYzIEwgMTQuNSA2OC44OCBaIiBmaWxsPSIjN2Q3ZDdkIiBzdHJva2U9IiM3ZDdkN2QiIHN0cm9rZS1taXRlcmxpbWl0PSIxMCIgcG9pbnRlci1ldmVudHM9ImFsbCIvPjxwYXRoIGQ9Ik0gMjEgODcgTCA2NC42MyA4NyIgZmlsbD0ibm9uZSIgc3Ryb2tlPSIjN2Q3ZDdkIiBzdHJva2UtbWl0ZXJsaW1pdD0iMTAiIHBvaW50ZXItZXZlbnRzPSJzdHJva2UiLz48cGF0aCBkPSJNIDY5Ljg4IDg3IEwgNjIuODggOTAuNSBMIDY0LjYzIDg3IEwgNjIuODggODMuNSBaIiBmaWxsPSIjN2Q3ZDdkIiBzdHJva2U9IiM3ZDdkN2QiIHN0cm9rZS1taXRlcmxpbWl0PSIxMCIgcG9pbnRlci1ldmVudHM9ImFsbCIvPjxyZWN0IHg9IjAiIHk9IjI3IiB3aWR0aD0iMTAiIGhlaWdodD0iMzAiIGZpbGw9Im5vbmUiIHN0cm9rZT0ibm9uZSIgcG9pbnRlci1ldmVudHM9ImFsbCIvPjxnIHRyYW5zZm9ybT0idHJhbnNsYXRlKC0wLjUgLTAuNSkiPjxzd2l0Y2g+PGZvcmVpZ25PYmplY3QgcG9pbnRlci1ldmVudHM9Im5vbmUiIHdpZHRoPSIxMDAlIiBoZWlnaHQ9IjEwMCUiIHJlcXVpcmVkRmVhdHVyZXM9Imh0dHA6Ly93d3cudzMub3JnL1RSL1NWRzExL2ZlYXR1cmUjRXh0ZW5zaWJpbGl0eSIgc3R5bGU9Im92ZXJmbG93OiB2aXNpYmxlOyB0ZXh0LWFsaWduOiBsZWZ0OyI+PGRpdiB4bWxucz0iaHR0cDovL3d3dy53My5vcmcvMTk5OS94aHRtbCIgc3R5bGU9ImRpc3BsYXk6IGZsZXg7IGFsaWduLWl0ZW1zOiB1bnNhZmUgY2VudGVyOyBqdXN0aWZ5LWNvbnRlbnQ6IHVuc2FmZSBjZW50ZXI7IHdpZHRoOiA4cHg7IGhlaWdodDogMXB4OyBwYWRkaW5nLXRvcDogNDJweDsgbWFyZ2luLWxlZnQ6IDFweDsiPjxkaXYgZGF0YS1kcmF3aW8tY29sb3JzPSJjb2xvcjogcmdiKDAsIDAsIDApOyAiIHN0eWxlPSJib3gtc2l6aW5nOiBib3JkZXItYm94OyBmb250LXNpemU6IDBweDsgdGV4dC1hbGlnbjogY2VudGVyOyI+PGRpdiBzdHlsZT0iZGlzcGxheTogaW5saW5lLWJsb2NrOyBmb250LXNpemU6IDEycHg7IGZvbnQtZmFtaWx5OiBIZWx2ZXRpY2E7IGNvbG9yOiByZ2IoMCwgMCwgMCk7IGxpbmUtaGVpZ2h0OiAxLjI7IHBvaW50ZXItZXZlbnRzOiBhbGw7IHdoaXRlLXNwYWNlOiBub3JtYWw7IG92ZXJmbG93LXdyYXA6IG5vcm1hbDsiPnQ8L2Rpdj48L2Rpdj48L2Rpdj48L2ZvcmVpZ25PYmplY3Q+PHRleHQgeD0iNSIgeT0iNDYiIGZpbGw9InJnYigwLCAwLCAwKSIgZm9udC1mYW1pbHk9IkhlbHZldGljYSIgZm9udC1zaXplPSIxMnB4IiB0ZXh0LWFuY2hvcj0ibWlkZGxlIj50PC90ZXh0Pjwvc3dpdGNoPjwvZz48cmVjdCB4PSI0MCIgeT0iODciIHdpZHRoPSIxMCIgaGVpZ2h0PSIyMCIgZmlsbD0ibm9uZSIgc3Ryb2tlPSJub25lIiBwb2ludGVyLWV2ZW50cz0iYWxsIi8+PGcgdHJhbnNmb3JtPSJ0cmFuc2xhdGUoLTAuNSAtMC41KSI+PHN3aXRjaD48Zm9yZWlnbk9iamVjdCBwb2ludGVyLWV2ZW50cz0ibm9uZSIgd2lkdGg9IjEwMCUiIGhlaWdodD0iMTAwJSIgcmVxdWlyZWRGZWF0dXJlcz0iaHR0cDovL3d3dy53My5vcmcvVFIvU1ZHMTEvZmVhdHVyZSNFeHRlbnNpYmlsaXR5IiBzdHlsZT0ib3ZlcmZsb3c6IHZpc2libGU7IHRleHQtYWxpZ246IGxlZnQ7Ij48ZGl2IHhtbG5zPSJodHRwOi8vd3d3LnczLm9yZy8xOTk5L3hodG1sIiBzdHlsZT0iZGlzcGxheTogZmxleDsgYWxpZ24taXRlbXM6IHVuc2FmZSBjZW50ZXI7IGp1c3RpZnktY29udGVudDogdW5zYWZlIGNlbnRlcjsgd2lkdGg6IDhweDsgaGVpZ2h0OiAxcHg7IHBhZGRpbmctdG9wOiA5N3B4OyBtYXJnaW4tbGVmdDogNDFweDsiPjxkaXYgZGF0YS1kcmF3aW8tY29sb3JzPSJjb2xvcjogcmdiKDAsIDAsIDApOyAiIHN0eWxlPSJib3gtc2l6aW5nOiBib3JkZXItYm94OyBmb250LXNpemU6IDBweDsgdGV4dC1hbGlnbjogY2VudGVyOyI+PGRpdiBzdHlsZT0iZGlzcGxheTogaW5saW5lLWJsb2NrOyBmb250LXNpemU6IDEycHg7IGZvbnQtZmFtaWx5OiBIZWx2ZXRpY2E7IGNvbG9yOiByZ2IoMCwgMCwgMCk7IGxpbmUtaGVpZ2h0OiAxLjI7IHBvaW50ZXItZXZlbnRzOiBhbGw7IHdoaXRlLXNwYWNlOiBub3JtYWw7IG92ZXJmbG93LXdyYXA6IG5vcm1hbDsiPmY8L2Rpdj48L2Rpdj48L2Rpdj48L2ZvcmVpZ25PYmplY3Q+PHRleHQgeD0iNDUiIHk9IjEwMSIgZmlsbD0icmdiKDAsIDAsIDApIiBmb250LWZhbWlseT0iSGVsdmV0aWNhIiBmb250LXNpemU9IjEycHgiIHRleHQtYW5jaG9yPSJtaWRkbGUiPmY8L3RleHQ+PC9zd2l0Y2g+PC9nPjwvZz48c3dpdGNoPjxnIHJlcXVpcmVkRmVhdHVyZXM9Imh0dHA6Ly93d3cudzMub3JnL1RSL1NWRzExL2ZlYXR1cmUjRXh0ZW5zaWJpbGl0eSIvPjxhIHRyYW5zZm9ybT0idHJhbnNsYXRlKDAsLTUpIiB4bGluazpocmVmPSJodHRwczovL3d3dy5kaWFncmFtcy5uZXQvZG9jL2ZhcS9zdmctZXhwb3J0LXRleHQtcHJvYmxlbXMiIHRhcmdldD0iX2JsYW5rIj48dGV4dCB0ZXh0LWFuY2hvcj0ibWlkZGxlIiBmb250LXNpemU9IjEwcHgiIHg9IjUwJSIgeT0iMTAwJSI+VGV4dCBpcyBub3QgU1ZHIC0gY2Fubm90IGRpc3BsYXk8L3RleHQ+PC9hPjwvc3dpdGNoPjwvc3ZnPg==;" vertex="1" parent="1">
          <mxGeometry x="30" y="350" width="80" height="108" as="geometry" />
        </mxCell>
        <mxCell id="jZsmn4iYEsbIGbM0aHem-8" style="edgeStyle=orthogonalEdgeStyle;rounded=0;orthogonalLoop=1;jettySize=auto;html=1;exitX=0;exitY=0.5;exitDx=0;exitDy=0;entryX=1;entryY=0.5;entryDx=0;entryDy=0;" edge="1" parent="1" source="jZsmn4iYEsbIGbM0aHem-2" target="jZsmn4iYEsbIGbM0aHem-6">
          <mxGeometry relative="1" as="geometry" />
        </mxCell>
        <mxCell id="jZsmn4iYEsbIGbM0aHem-2" value="Feed Forward&lt;br&gt;&amp;nbsp;Module" style="rounded=0;whiteSpace=wrap;html=1;shadow=0;glass=0;labelBackgroundColor=none;sketch=0;fontSize=15;strokeColor=#6c8ebf;strokeWidth=0;fillColor=#EFF4FC;direction=south;horizontal=0;rotation=90;" vertex="1" parent="1">
          <mxGeometry x="201" y="285.5" width="67" height="182" as="geometry" />
        </mxCell>
        <mxCell id="jZsmn4iYEsbIGbM0aHem-9" style="edgeStyle=orthogonalEdgeStyle;rounded=0;orthogonalLoop=1;jettySize=auto;html=1;exitX=0;exitY=0.5;exitDx=0;exitDy=0;entryX=1;entryY=0.5;entryDx=0;entryDy=0;" edge="1" parent="1" source="jZsmn4iYEsbIGbM0aHem-6" target="jZsmn4iYEsbIGbM0aHem-7">
          <mxGeometry relative="1" as="geometry" />
        </mxCell>
        <mxCell id="jZsmn4iYEsbIGbM0aHem-6" value="Multi-Head Self Attention&lt;br&gt;Module" style="rounded=0;whiteSpace=wrap;html=1;shadow=0;glass=0;labelBackgroundColor=none;sketch=0;fontSize=15;strokeColor=#6c8ebf;strokeWidth=0;fillColor=#EFF4FC;direction=south;horizontal=0;rotation=90;" vertex="1" parent="1">
          <mxGeometry x="411" y="285.5" width="69" height="181" as="geometry" />
        </mxCell>
        <mxCell id="jZsmn4iYEsbIGbM0aHem-11" style="edgeStyle=orthogonalEdgeStyle;rounded=0;orthogonalLoop=1;jettySize=auto;html=1;exitX=0;exitY=0.5;exitDx=0;exitDy=0;entryX=1;entryY=0.5;entryDx=0;entryDy=0;" edge="1" parent="1" source="jZsmn4iYEsbIGbM0aHem-7" target="jZsmn4iYEsbIGbM0aHem-10">
          <mxGeometry relative="1" as="geometry" />
        </mxCell>
        <mxCell id="jZsmn4iYEsbIGbM0aHem-7" value="Convolution&lt;br&gt;Module" style="rounded=0;whiteSpace=wrap;html=1;shadow=0;glass=0;labelBackgroundColor=none;sketch=0;fontSize=15;strokeColor=#6c8ebf;strokeWidth=0;fillColor=#EFF4FC;direction=south;horizontal=0;rotation=90;" vertex="1" parent="1">
          <mxGeometry x="620" y="285.5" width="69" height="181" as="geometry" />
        </mxCell>
        <mxCell id="jZsmn4iYEsbIGbM0aHem-14" style="edgeStyle=orthogonalEdgeStyle;rounded=0;orthogonalLoop=1;jettySize=auto;html=1;exitX=0;exitY=0.5;exitDx=0;exitDy=0;entryX=0;entryY=0.25;entryDx=0;entryDy=0;" edge="1" parent="1" source="jZsmn4iYEsbIGbM0aHem-10" target="jZsmn4iYEsbIGbM0aHem-12">
          <mxGeometry relative="1" as="geometry" />
        </mxCell>
        <mxCell id="jZsmn4iYEsbIGbM0aHem-10" value="Feed Forward&lt;br&gt;&amp;nbsp;Module" style="rounded=0;whiteSpace=wrap;html=1;shadow=0;glass=0;labelBackgroundColor=none;sketch=0;fontSize=15;strokeColor=#6c8ebf;strokeWidth=0;fillColor=#EFF4FC;direction=south;horizontal=0;rotation=90;" vertex="1" parent="1">
          <mxGeometry x="830" y="285.5" width="67" height="182" as="geometry" />
        </mxCell>
        <mxCell id="jZsmn4iYEsbIGbM0aHem-12" value="" style="shape=image;verticalLabelPosition=bottom;labelBackgroundColor=default;verticalAlign=top;aspect=fixed;imageAspect=0;image=data:image/svg+xml,PHN2ZyB4bWxucz0iaHR0cDovL3d3dy53My5vcmcvMjAwMC9zdmciIHhtbG5zOnhsaW5rPSJodHRwOi8vd3d3LnczLm9yZy8xOTk5L3hsaW5rIiB2ZXJzaW9uPSIxLjEiIHdpZHRoPSI4MHB4IiBoZWlnaHQ9IjEwOHB4IiB2aWV3Qm94PSItMC41IC0wLjUgODAgMTA4Ij48ZGVmcy8+PGc+PHJlY3QgeD0iMjEiIHk9IjciIHdpZHRoPSI1MCIgaGVpZ2h0PSI3MCIgZmlsbD0icmdiKDI1NSwgMjU1LCAyNTUpIiBzdHJva2U9IiM3ZDdkN2QiIHBvaW50ZXItZXZlbnRzPSJhbGwiLz48cGF0aCBkPSJNIDIxIDI0LjUgTCA3MSAyNC41IiBmaWxsPSJub25lIiBzdHJva2U9IiM3ZDdkN2QiIHN0cm9rZS1taXRlcmxpbWl0PSIxMCIgcG9pbnRlci1ldmVudHM9InN0cm9rZSIvPjxwYXRoIGQ9Ik0gMjEgNTkuNSBMIDcxIDU5LjUiIGZpbGw9Im5vbmUiIHN0cm9rZT0iIzdkN2Q3ZCIgc3Ryb2tlLW1pdGVybGltaXQ9IjEwIiBwb2ludGVyLWV2ZW50cz0ic3Ryb2tlIi8+PHBhdGggZD0iTSAyMC45IDE1LjMzIEwgNzEuMjUgMTUuMzMiIGZpbGw9Im5vbmUiIHN0cm9rZT0iIzdkN2Q3ZCIgc3Ryb2tlLW1pdGVybGltaXQ9IjEwIiBwb2ludGVyLWV2ZW50cz0ic3Ryb2tlIi8+PHBhdGggZD0iTSAyMS4xNSA2OC40NiBMIDcxLjA1IDY4LjM5IiBmaWxsPSJub25lIiBzdHJva2U9IiM3ZDdkN2QiIHN0cm9rZS1taXRlcmxpbWl0PSIxMCIgcG9pbnRlci1ldmVudHM9InN0cm9rZSIvPjxwYXRoIGQ9Ik0gNDUuOTIgNTIgTCA0NS45MiAzMiIgZmlsbD0ibm9uZSIgc3Ryb2tlPSIjN2Q3ZDdkIiBzdHJva2Utd2lkdGg9IjIiIHN0cm9rZS1taXRlcmxpbWl0PSIxMCIgc3Ryb2tlLWRhc2hhcnJheT0iMiA2IiBwb2ludGVyLWV2ZW50cz0ic3Ryb2tlIi8+PHBhdGggZD0iTSAxMSA3IEwgMTEgNzAuNjMiIGZpbGw9Im5vbmUiIHN0cm9rZT0iIzdkN2Q3ZCIgc3Ryb2tlLW1pdGVybGltaXQ9IjEwIiBwb2ludGVyLWV2ZW50cz0ic3Ryb2tlIi8+PHBhdGggZD0iTSAxMSA3NS44OCBMIDcuNSA2OC44OCBMIDExIDcwLjYzIEwgMTQuNSA2OC44OCBaIiBmaWxsPSIjN2Q3ZDdkIiBzdHJva2U9IiM3ZDdkN2QiIHN0cm9rZS1taXRlcmxpbWl0PSIxMCIgcG9pbnRlci1ldmVudHM9ImFsbCIvPjxwYXRoIGQ9Ik0gMjEgODcgTCA2NC42MyA4NyIgZmlsbD0ibm9uZSIgc3Ryb2tlPSIjN2Q3ZDdkIiBzdHJva2UtbWl0ZXJsaW1pdD0iMTAiIHBvaW50ZXItZXZlbnRzPSJzdHJva2UiLz48cGF0aCBkPSJNIDY5Ljg4IDg3IEwgNjIuODggOTAuNSBMIDY0LjYzIDg3IEwgNjIuODggODMuNSBaIiBmaWxsPSIjN2Q3ZDdkIiBzdHJva2U9IiM3ZDdkN2QiIHN0cm9rZS1taXRlcmxpbWl0PSIxMCIgcG9pbnRlci1ldmVudHM9ImFsbCIvPjxyZWN0IHg9IjAiIHk9IjI3IiB3aWR0aD0iMTAiIGhlaWdodD0iMzAiIGZpbGw9Im5vbmUiIHN0cm9rZT0ibm9uZSIgcG9pbnRlci1ldmVudHM9ImFsbCIvPjxnIHRyYW5zZm9ybT0idHJhbnNsYXRlKC0wLjUgLTAuNSkiPjxzd2l0Y2g+PGZvcmVpZ25PYmplY3QgcG9pbnRlci1ldmVudHM9Im5vbmUiIHdpZHRoPSIxMDAlIiBoZWlnaHQ9IjEwMCUiIHJlcXVpcmVkRmVhdHVyZXM9Imh0dHA6Ly93d3cudzMub3JnL1RSL1NWRzExL2ZlYXR1cmUjRXh0ZW5zaWJpbGl0eSIgc3R5bGU9Im92ZXJmbG93OiB2aXNpYmxlOyB0ZXh0LWFsaWduOiBsZWZ0OyI+PGRpdiB4bWxucz0iaHR0cDovL3d3dy53My5vcmcvMTk5OS94aHRtbCIgc3R5bGU9ImRpc3BsYXk6IGZsZXg7IGFsaWduLWl0ZW1zOiB1bnNhZmUgY2VudGVyOyBqdXN0aWZ5LWNvbnRlbnQ6IHVuc2FmZSBjZW50ZXI7IHdpZHRoOiA4cHg7IGhlaWdodDogMXB4OyBwYWRkaW5nLXRvcDogNDJweDsgbWFyZ2luLWxlZnQ6IDFweDsiPjxkaXYgZGF0YS1kcmF3aW8tY29sb3JzPSJjb2xvcjogcmdiKDAsIDAsIDApOyAiIHN0eWxlPSJib3gtc2l6aW5nOiBib3JkZXItYm94OyBmb250LXNpemU6IDBweDsgdGV4dC1hbGlnbjogY2VudGVyOyI+PGRpdiBzdHlsZT0iZGlzcGxheTogaW5saW5lLWJsb2NrOyBmb250LXNpemU6IDEycHg7IGZvbnQtZmFtaWx5OiBIZWx2ZXRpY2E7IGNvbG9yOiByZ2IoMCwgMCwgMCk7IGxpbmUtaGVpZ2h0OiAxLjI7IHBvaW50ZXItZXZlbnRzOiBhbGw7IHdoaXRlLXNwYWNlOiBub3JtYWw7IG92ZXJmbG93LXdyYXA6IG5vcm1hbDsiPnQ8L2Rpdj48L2Rpdj48L2Rpdj48L2ZvcmVpZ25PYmplY3Q+PHRleHQgeD0iNSIgeT0iNDYiIGZpbGw9InJnYigwLCAwLCAwKSIgZm9udC1mYW1pbHk9IkhlbHZldGljYSIgZm9udC1zaXplPSIxMnB4IiB0ZXh0LWFuY2hvcj0ibWlkZGxlIj50PC90ZXh0Pjwvc3dpdGNoPjwvZz48cmVjdCB4PSI0MCIgeT0iODciIHdpZHRoPSIxMCIgaGVpZ2h0PSIyMCIgZmlsbD0ibm9uZSIgc3Ryb2tlPSJub25lIiBwb2ludGVyLWV2ZW50cz0iYWxsIi8+PGcgdHJhbnNmb3JtPSJ0cmFuc2xhdGUoLTAuNSAtMC41KSI+PHN3aXRjaD48Zm9yZWlnbk9iamVjdCBwb2ludGVyLWV2ZW50cz0ibm9uZSIgd2lkdGg9IjEwMCUiIGhlaWdodD0iMTAwJSIgcmVxdWlyZWRGZWF0dXJlcz0iaHR0cDovL3d3dy53My5vcmcvVFIvU1ZHMTEvZmVhdHVyZSNFeHRlbnNpYmlsaXR5IiBzdHlsZT0ib3ZlcmZsb3c6IHZpc2libGU7IHRleHQtYWxpZ246IGxlZnQ7Ij48ZGl2IHhtbG5zPSJodHRwOi8vd3d3LnczLm9yZy8xOTk5L3hodG1sIiBzdHlsZT0iZGlzcGxheTogZmxleDsgYWxpZ24taXRlbXM6IHVuc2FmZSBjZW50ZXI7IGp1c3RpZnktY29udGVudDogdW5zYWZlIGNlbnRlcjsgd2lkdGg6IDhweDsgaGVpZ2h0OiAxcHg7IHBhZGRpbmctdG9wOiA5N3B4OyBtYXJnaW4tbGVmdDogNDFweDsiPjxkaXYgZGF0YS1kcmF3aW8tY29sb3JzPSJjb2xvcjogcmdiKDAsIDAsIDApOyAiIHN0eWxlPSJib3gtc2l6aW5nOiBib3JkZXItYm94OyBmb250LXNpemU6IDBweDsgdGV4dC1hbGlnbjogY2VudGVyOyI+PGRpdiBzdHlsZT0iZGlzcGxheTogaW5saW5lLWJsb2NrOyBmb250LXNpemU6IDEycHg7IGZvbnQtZmFtaWx5OiBIZWx2ZXRpY2E7IGNvbG9yOiByZ2IoMCwgMCwgMCk7IGxpbmUtaGVpZ2h0OiAxLjI7IHBvaW50ZXItZXZlbnRzOiBhbGw7IHdoaXRlLXNwYWNlOiBub3JtYWw7IG92ZXJmbG93LXdyYXA6IG5vcm1hbDsiPmY8L2Rpdj48L2Rpdj48L2Rpdj48L2ZvcmVpZ25PYmplY3Q+PHRleHQgeD0iNDUiIHk9IjEwMSIgZmlsbD0icmdiKDAsIDAsIDApIiBmb250LWZhbWlseT0iSGVsdmV0aWNhIiBmb250LXNpemU9IjEycHgiIHRleHQtYW5jaG9yPSJtaWRkbGUiPmY8L3RleHQ+PC9zd2l0Y2g+PC9nPjwvZz48c3dpdGNoPjxnIHJlcXVpcmVkRmVhdHVyZXM9Imh0dHA6Ly93d3cudzMub3JnL1RSL1NWRzExL2ZlYXR1cmUjRXh0ZW5zaWJpbGl0eSIvPjxhIHRyYW5zZm9ybT0idHJhbnNsYXRlKDAsLTUpIiB4bGluazpocmVmPSJodHRwczovL3d3dy5kaWFncmFtcy5uZXQvZG9jL2ZhcS9zdmctZXhwb3J0LXRleHQtcHJvYmxlbXMiIHRhcmdldD0iX2JsYW5rIj48dGV4dCB0ZXh0LWFuY2hvcj0ibWlkZGxlIiBmb250LXNpemU9IjEwcHgiIHg9IjUwJSIgeT0iMTAwJSI+VGV4dCBpcyBub3QgU1ZHIC0gY2Fubm90IGRpc3BsYXk8L3RleHQ+PC9hPjwvc3dpdGNoPjwvc3ZnPg==;" vertex="1" parent="1">
          <mxGeometry x="986" y="350" width="80" height="108" as="geometry" />
        </mxCell>
      </root>
    </mxGraphModel>
  </diagram>
  <diagram id="BUdWj5FhHDPRlbAeCblE" name="Feed Forward Module">
    <mxGraphModel dx="1422" dy="739" grid="1" gridSize="10" guides="1" tooltips="1" connect="1" arrows="1" fold="1" page="1" pageScale="1" pageWidth="1100" pageHeight="850" math="0" shadow="0">
      <root>
        <mxCell id="0" />
        <mxCell id="1" parent="0" />
        <mxCell id="oEV8yw9dI1nG9jWNAyUc-1" value="" style="shape=image;verticalLabelPosition=bottom;labelBackgroundColor=default;verticalAlign=top;aspect=fixed;imageAspect=0;image=data:image/svg+xml,PHN2ZyB4bWxucz0iaHR0cDovL3d3dy53My5vcmcvMjAwMC9zdmciIHhtbG5zOnhsaW5rPSJodHRwOi8vd3d3LnczLm9yZy8xOTk5L3hsaW5rIiB2ZXJzaW9uPSIxLjEiIHdpZHRoPSI4MHB4IiBoZWlnaHQ9IjEwOHB4IiB2aWV3Qm94PSItMC41IC0wLjUgODAgMTA4Ij48ZGVmcy8+PGc+PHJlY3QgeD0iMjEiIHk9IjciIHdpZHRoPSI1MCIgaGVpZ2h0PSI3MCIgZmlsbD0icmdiKDI1NSwgMjU1LCAyNTUpIiBzdHJva2U9IiM3ZDdkN2QiIHBvaW50ZXItZXZlbnRzPSJhbGwiLz48cGF0aCBkPSJNIDIxIDI0LjUgTCA3MSAyNC41IiBmaWxsPSJub25lIiBzdHJva2U9IiM3ZDdkN2QiIHN0cm9rZS1taXRlcmxpbWl0PSIxMCIgcG9pbnRlci1ldmVudHM9InN0cm9rZSIvPjxwYXRoIGQ9Ik0gMjEgNTkuNSBMIDcxIDU5LjUiIGZpbGw9Im5vbmUiIHN0cm9rZT0iIzdkN2Q3ZCIgc3Ryb2tlLW1pdGVybGltaXQ9IjEwIiBwb2ludGVyLWV2ZW50cz0ic3Ryb2tlIi8+PHBhdGggZD0iTSAyMC45IDE1LjMzIEwgNzEuMjUgMTUuMzMiIGZpbGw9Im5vbmUiIHN0cm9rZT0iIzdkN2Q3ZCIgc3Ryb2tlLW1pdGVybGltaXQ9IjEwIiBwb2ludGVyLWV2ZW50cz0ic3Ryb2tlIi8+PHBhdGggZD0iTSAyMS4xNSA2OC40NiBMIDcxLjA1IDY4LjM5IiBmaWxsPSJub25lIiBzdHJva2U9IiM3ZDdkN2QiIHN0cm9rZS1taXRlcmxpbWl0PSIxMCIgcG9pbnRlci1ldmVudHM9InN0cm9rZSIvPjxwYXRoIGQ9Ik0gNDUuOTIgNTIgTCA0NS45MiAzMiIgZmlsbD0ibm9uZSIgc3Ryb2tlPSIjN2Q3ZDdkIiBzdHJva2Utd2lkdGg9IjIiIHN0cm9rZS1taXRlcmxpbWl0PSIxMCIgc3Ryb2tlLWRhc2hhcnJheT0iMiA2IiBwb2ludGVyLWV2ZW50cz0ic3Ryb2tlIi8+PHBhdGggZD0iTSAxMSA3IEwgMTEgNzAuNjMiIGZpbGw9Im5vbmUiIHN0cm9rZT0iIzdkN2Q3ZCIgc3Ryb2tlLW1pdGVybGltaXQ9IjEwIiBwb2ludGVyLWV2ZW50cz0ic3Ryb2tlIi8+PHBhdGggZD0iTSAxMSA3NS44OCBMIDcuNSA2OC44OCBMIDExIDcwLjYzIEwgMTQuNSA2OC44OCBaIiBmaWxsPSIjN2Q3ZDdkIiBzdHJva2U9IiM3ZDdkN2QiIHN0cm9rZS1taXRlcmxpbWl0PSIxMCIgcG9pbnRlci1ldmVudHM9ImFsbCIvPjxwYXRoIGQ9Ik0gMjEgODcgTCA2NC42MyA4NyIgZmlsbD0ibm9uZSIgc3Ryb2tlPSIjN2Q3ZDdkIiBzdHJva2UtbWl0ZXJsaW1pdD0iMTAiIHBvaW50ZXItZXZlbnRzPSJzdHJva2UiLz48cGF0aCBkPSJNIDY5Ljg4IDg3IEwgNjIuODggOTAuNSBMIDY0LjYzIDg3IEwgNjIuODggODMuNSBaIiBmaWxsPSIjN2Q3ZDdkIiBzdHJva2U9IiM3ZDdkN2QiIHN0cm9rZS1taXRlcmxpbWl0PSIxMCIgcG9pbnRlci1ldmVudHM9ImFsbCIvPjxyZWN0IHg9IjAiIHk9IjI3IiB3aWR0aD0iMTAiIGhlaWdodD0iMzAiIGZpbGw9Im5vbmUiIHN0cm9rZT0ibm9uZSIgcG9pbnRlci1ldmVudHM9ImFsbCIvPjxnIHRyYW5zZm9ybT0idHJhbnNsYXRlKC0wLjUgLTAuNSkiPjxzd2l0Y2g+PGZvcmVpZ25PYmplY3QgcG9pbnRlci1ldmVudHM9Im5vbmUiIHdpZHRoPSIxMDAlIiBoZWlnaHQ9IjEwMCUiIHJlcXVpcmVkRmVhdHVyZXM9Imh0dHA6Ly93d3cudzMub3JnL1RSL1NWRzExL2ZlYXR1cmUjRXh0ZW5zaWJpbGl0eSIgc3R5bGU9Im92ZXJmbG93OiB2aXNpYmxlOyB0ZXh0LWFsaWduOiBsZWZ0OyI+PGRpdiB4bWxucz0iaHR0cDovL3d3dy53My5vcmcvMTk5OS94aHRtbCIgc3R5bGU9ImRpc3BsYXk6IGZsZXg7IGFsaWduLWl0ZW1zOiB1bnNhZmUgY2VudGVyOyBqdXN0aWZ5LWNvbnRlbnQ6IHVuc2FmZSBjZW50ZXI7IHdpZHRoOiA4cHg7IGhlaWdodDogMXB4OyBwYWRkaW5nLXRvcDogNDJweDsgbWFyZ2luLWxlZnQ6IDFweDsiPjxkaXYgZGF0YS1kcmF3aW8tY29sb3JzPSJjb2xvcjogcmdiKDAsIDAsIDApOyAiIHN0eWxlPSJib3gtc2l6aW5nOiBib3JkZXItYm94OyBmb250LXNpemU6IDBweDsgdGV4dC1hbGlnbjogY2VudGVyOyI+PGRpdiBzdHlsZT0iZGlzcGxheTogaW5saW5lLWJsb2NrOyBmb250LXNpemU6IDEycHg7IGZvbnQtZmFtaWx5OiBIZWx2ZXRpY2E7IGNvbG9yOiByZ2IoMCwgMCwgMCk7IGxpbmUtaGVpZ2h0OiAxLjI7IHBvaW50ZXItZXZlbnRzOiBhbGw7IHdoaXRlLXNwYWNlOiBub3JtYWw7IG92ZXJmbG93LXdyYXA6IG5vcm1hbDsiPnQ8L2Rpdj48L2Rpdj48L2Rpdj48L2ZvcmVpZ25PYmplY3Q+PHRleHQgeD0iNSIgeT0iNDYiIGZpbGw9InJnYigwLCAwLCAwKSIgZm9udC1mYW1pbHk9IkhlbHZldGljYSIgZm9udC1zaXplPSIxMnB4IiB0ZXh0LWFuY2hvcj0ibWlkZGxlIj50PC90ZXh0Pjwvc3dpdGNoPjwvZz48cmVjdCB4PSI0MCIgeT0iODciIHdpZHRoPSIxMCIgaGVpZ2h0PSIyMCIgZmlsbD0ibm9uZSIgc3Ryb2tlPSJub25lIiBwb2ludGVyLWV2ZW50cz0iYWxsIi8+PGcgdHJhbnNmb3JtPSJ0cmFuc2xhdGUoLTAuNSAtMC41KSI+PHN3aXRjaD48Zm9yZWlnbk9iamVjdCBwb2ludGVyLWV2ZW50cz0ibm9uZSIgd2lkdGg9IjEwMCUiIGhlaWdodD0iMTAwJSIgcmVxdWlyZWRGZWF0dXJlcz0iaHR0cDovL3d3dy53My5vcmcvVFIvU1ZHMTEvZmVhdHVyZSNFeHRlbnNpYmlsaXR5IiBzdHlsZT0ib3ZlcmZsb3c6IHZpc2libGU7IHRleHQtYWxpZ246IGxlZnQ7Ij48ZGl2IHhtbG5zPSJodHRwOi8vd3d3LnczLm9yZy8xOTk5L3hodG1sIiBzdHlsZT0iZGlzcGxheTogZmxleDsgYWxpZ24taXRlbXM6IHVuc2FmZSBjZW50ZXI7IGp1c3RpZnktY29udGVudDogdW5zYWZlIGNlbnRlcjsgd2lkdGg6IDhweDsgaGVpZ2h0OiAxcHg7IHBhZGRpbmctdG9wOiA5N3B4OyBtYXJnaW4tbGVmdDogNDFweDsiPjxkaXYgZGF0YS1kcmF3aW8tY29sb3JzPSJjb2xvcjogcmdiKDAsIDAsIDApOyAiIHN0eWxlPSJib3gtc2l6aW5nOiBib3JkZXItYm94OyBmb250LXNpemU6IDBweDsgdGV4dC1hbGlnbjogY2VudGVyOyI+PGRpdiBzdHlsZT0iZGlzcGxheTogaW5saW5lLWJsb2NrOyBmb250LXNpemU6IDEycHg7IGZvbnQtZmFtaWx5OiBIZWx2ZXRpY2E7IGNvbG9yOiByZ2IoMCwgMCwgMCk7IGxpbmUtaGVpZ2h0OiAxLjI7IHBvaW50ZXItZXZlbnRzOiBhbGw7IHdoaXRlLXNwYWNlOiBub3JtYWw7IG92ZXJmbG93LXdyYXA6IG5vcm1hbDsiPmY8L2Rpdj48L2Rpdj48L2Rpdj48L2ZvcmVpZ25PYmplY3Q+PHRleHQgeD0iNDUiIHk9IjEwMSIgZmlsbD0icmdiKDAsIDAsIDApIiBmb250LWZhbWlseT0iSGVsdmV0aWNhIiBmb250LXNpemU9IjEycHgiIHRleHQtYW5jaG9yPSJtaWRkbGUiPmY8L3RleHQ+PC9zd2l0Y2g+PC9nPjwvZz48c3dpdGNoPjxnIHJlcXVpcmVkRmVhdHVyZXM9Imh0dHA6Ly93d3cudzMub3JnL1RSL1NWRzExL2ZlYXR1cmUjRXh0ZW5zaWJpbGl0eSIvPjxhIHRyYW5zZm9ybT0idHJhbnNsYXRlKDAsLTUpIiB4bGluazpocmVmPSJodHRwczovL3d3dy5kaWFncmFtcy5uZXQvZG9jL2ZhcS9zdmctZXhwb3J0LXRleHQtcHJvYmxlbXMiIHRhcmdldD0iX2JsYW5rIj48dGV4dCB0ZXh0LWFuY2hvcj0ibWlkZGxlIiBmb250LXNpemU9IjEwcHgiIHg9IjUwJSIgeT0iMTAwJSI+VGV4dCBpcyBub3QgU1ZHIC0gY2Fubm90IGRpc3BsYXk8L3RleHQ+PC9hPjwvc3dpdGNoPjwvc3ZnPg==;" vertex="1" parent="1">
          <mxGeometry x="50" y="330" width="80" height="108" as="geometry" />
        </mxCell>
        <mxCell id="cR1s5Nb1Dl8oFBiwTlWR-1" value="" style="shape=image;verticalLabelPosition=bottom;labelBackgroundColor=default;verticalAlign=top;aspect=fixed;imageAspect=0;image=data:image/svg+xml,PHN2ZyB4bWxucz0iaHR0cDovL3d3dy53My5vcmcvMjAwMC9zdmciIHhtbG5zOnhsaW5rPSJodHRwOi8vd3d3LnczLm9yZy8xOTk5L3hsaW5rIiB2ZXJzaW9uPSIxLjEiIHdpZHRoPSIxNzdweCIgaGVpZ2h0PSIxMDlweCIgdmlld0JveD0iLTAuNSAtMC41IDE3NyAxMDkiIHN0eWxlPSJiYWNrZ3JvdW5kLWNvbG9yOiByZ2IoMjU1LCAyNTUsIDI1NSk7Ij48ZGVmcy8+PGc+PHJlY3QgeD0iMjEiIHk9IjYuNSIgd2lkdGg9IjE0NyIgaGVpZ2h0PSI3MCIgZmlsbD0icmdiKDI1NSwgMjU1LCAyNTUpIiBzdHJva2U9IiM3ZDdkN2QiIHBvaW50ZXItZXZlbnRzPSJhbGwiLz48cGF0aCBkPSJNIDIxIDI0IEwgMTY4IDI0IiBmaWxsPSJub25lIiBzdHJva2U9IiM3ZDdkN2QiIHN0cm9rZS1taXRlcmxpbWl0PSIxMCIgcG9pbnRlci1ldmVudHM9InN0cm9rZSIvPjxwYXRoIGQ9Ik0gMjEgNTkgTCAxNjggNTkiIGZpbGw9Im5vbmUiIHN0cm9rZT0iIzdkN2Q3ZCIgc3Ryb2tlLW1pdGVybGltaXQ9IjEwIiBwb2ludGVyLWV2ZW50cz0ic3Ryb2tlIi8+PHBhdGggZD0iTSAyMC43MSAxNC44MyBMIDE2OC43MyAxNC44MyIgZmlsbD0ibm9uZSIgc3Ryb2tlPSIjN2Q3ZDdkIiBzdHJva2UtbWl0ZXJsaW1pdD0iMTAiIHBvaW50ZXItZXZlbnRzPSJzdHJva2UiLz48cGF0aCBkPSJNIDIxLjQ0IDY3Ljk2IEwgMTY4LjE1IDY3Ljg5IiBmaWxsPSJub25lIiBzdHJva2U9IiM3ZDdkN2QiIHN0cm9rZS1taXRlcmxpbWl0PSIxMCIgcG9pbnRlci1ldmVudHM9InN0cm9rZSIvPjxwYXRoIGQ9Ik0gOTQgNTEuNSBMIDk0IDMxLjUiIGZpbGw9Im5vbmUiIHN0cm9rZT0iIzdkN2Q3ZCIgc3Ryb2tlLXdpZHRoPSIyIiBzdHJva2UtbWl0ZXJsaW1pdD0iMTAiIHN0cm9rZS1kYXNoYXJyYXk9IjIgNiIgcG9pbnRlci1ldmVudHM9InN0cm9rZSIvPjxwYXRoIGQ9Ik0gMTEgNi41IEwgMTEgNzAuMTMiIGZpbGw9Im5vbmUiIHN0cm9rZT0iIzdkN2Q3ZCIgc3Ryb2tlLW1pdGVybGltaXQ9IjEwIiBwb2ludGVyLWV2ZW50cz0ic3Ryb2tlIi8+PHBhdGggZD0iTSAxMSA3NS4zOCBMIDcuNSA2OC4zOCBMIDExIDcwLjEzIEwgMTQuNSA2OC4zOCBaIiBmaWxsPSIjN2Q3ZDdkIiBzdHJva2U9IiM3ZDdkN2QiIHN0cm9rZS1taXRlcmxpbWl0PSIxMCIgcG9pbnRlci1ldmVudHM9ImFsbCIvPjxwYXRoIGQ9Ik0gMjEgODYuNSBMIDE2MS42MyA4Ni45OCIgZmlsbD0ibm9uZSIgc3Ryb2tlPSIjN2Q3ZDdkIiBzdHJva2UtbWl0ZXJsaW1pdD0iMTAiIHBvaW50ZXItZXZlbnRzPSJzdHJva2UiLz48cGF0aCBkPSJNIDE2Ni44OCA4NyBMIDE1OS44NyA5MC40NyBMIDE2MS42MyA4Ni45OCBMIDE1OS44OSA4My40NyBaIiBmaWxsPSIjN2Q3ZDdkIiBzdHJva2U9IiM3ZDdkN2QiIHN0cm9rZS1taXRlcmxpbWl0PSIxMCIgcG9pbnRlci1ldmVudHM9ImFsbCIvPjxyZWN0IHg9IjAiIHk9IjI2LjUiIHdpZHRoPSIxMCIgaGVpZ2h0PSIzMCIgZmlsbD0ibm9uZSIgc3Ryb2tlPSJub25lIiBwb2ludGVyLWV2ZW50cz0iYWxsIi8+PGcgdHJhbnNmb3JtPSJ0cmFuc2xhdGUoLTAuNSAtMC41KSI+PHN3aXRjaD48Zm9yZWlnbk9iamVjdCBwb2ludGVyLWV2ZW50cz0ibm9uZSIgd2lkdGg9IjEwMCUiIGhlaWdodD0iMTAwJSIgcmVxdWlyZWRGZWF0dXJlcz0iaHR0cDovL3d3dy53My5vcmcvVFIvU1ZHMTEvZmVhdHVyZSNFeHRlbnNpYmlsaXR5IiBzdHlsZT0ib3ZlcmZsb3c6IHZpc2libGU7IHRleHQtYWxpZ246IGxlZnQ7Ij48ZGl2IHhtbG5zPSJodHRwOi8vd3d3LnczLm9yZy8xOTk5L3hodG1sIiBzdHlsZT0iZGlzcGxheTogZmxleDsgYWxpZ24taXRlbXM6IHVuc2FmZSBjZW50ZXI7IGp1c3RpZnktY29udGVudDogdW5zYWZlIGNlbnRlcjsgd2lkdGg6IDhweDsgaGVpZ2h0OiAxcHg7IHBhZGRpbmctdG9wOiA0MnB4OyBtYXJnaW4tbGVmdDogMXB4OyI+PGRpdiBkYXRhLWRyYXdpby1jb2xvcnM9ImNvbG9yOiByZ2IoMCwgMCwgMCk7ICIgc3R5bGU9ImJveC1zaXppbmc6IGJvcmRlci1ib3g7IGZvbnQtc2l6ZTogMHB4OyB0ZXh0LWFsaWduOiBjZW50ZXI7Ij48ZGl2IHN0eWxlPSJkaXNwbGF5OiBpbmxpbmUtYmxvY2s7IGZvbnQtc2l6ZTogMTJweDsgZm9udC1mYW1pbHk6IEhlbHZldGljYTsgY29sb3I6IHJnYigwLCAwLCAwKTsgbGluZS1oZWlnaHQ6IDEuMjsgcG9pbnRlci1ldmVudHM6IGFsbDsgd2hpdGUtc3BhY2U6IG5vcm1hbDsgb3ZlcmZsb3ctd3JhcDogbm9ybWFsOyI+dDwvZGl2PjwvZGl2PjwvZGl2PjwvZm9yZWlnbk9iamVjdD48dGV4dCB4PSI1IiB5PSI0NSIgZmlsbD0icmdiKDAsIDAsIDApIiBmb250LWZhbWlseT0iSGVsdmV0aWNhIiBmb250LXNpemU9IjEycHgiIHRleHQtYW5jaG9yPSJtaWRkbGUiPnQ8L3RleHQ+PC9zd2l0Y2g+PC9nPjxyZWN0IHg9Ijg5LjUiIHk9Ijg3IiB3aWR0aD0iMTAiIGhlaWdodD0iMjAiIGZpbGw9Im5vbmUiIHN0cm9rZT0ibm9uZSIgcG9pbnRlci1ldmVudHM9ImFsbCIvPjxnIHRyYW5zZm9ybT0idHJhbnNsYXRlKC0wLjUgLTAuNSkiPjxzd2l0Y2g+PGZvcmVpZ25PYmplY3QgcG9pbnRlci1ldmVudHM9Im5vbmUiIHdpZHRoPSIxMDAlIiBoZWlnaHQ9IjEwMCUiIHJlcXVpcmVkRmVhdHVyZXM9Imh0dHA6Ly93d3cudzMub3JnL1RSL1NWRzExL2ZlYXR1cmUjRXh0ZW5zaWJpbGl0eSIgc3R5bGU9Im92ZXJmbG93OiB2aXNpYmxlOyB0ZXh0LWFsaWduOiBsZWZ0OyI+PGRpdiB4bWxucz0iaHR0cDovL3d3dy53My5vcmcvMTk5OS94aHRtbCIgc3R5bGU9ImRpc3BsYXk6IGZsZXg7IGFsaWduLWl0ZW1zOiB1bnNhZmUgY2VudGVyOyBqdXN0aWZ5LWNvbnRlbnQ6IHVuc2FmZSBjZW50ZXI7IHdpZHRoOiA4cHg7IGhlaWdodDogMXB4OyBwYWRkaW5nLXRvcDogOTdweDsgbWFyZ2luLWxlZnQ6IDkxcHg7Ij48ZGl2IGRhdGEtZHJhd2lvLWNvbG9ycz0iY29sb3I6IHJnYigwLCAwLCAwKTsgIiBzdHlsZT0iYm94LXNpemluZzogYm9yZGVyLWJveDsgZm9udC1zaXplOiAwcHg7IHRleHQtYWxpZ246IGNlbnRlcjsiPjxkaXYgc3R5bGU9ImRpc3BsYXk6IGlubGluZS1ibG9jazsgZm9udC1zaXplOiAxMnB4OyBmb250LWZhbWlseTogSGVsdmV0aWNhOyBjb2xvcjogcmdiKDAsIDAsIDApOyBsaW5lLWhlaWdodDogMS4yOyBwb2ludGVyLWV2ZW50czogYWxsOyB3aGl0ZS1zcGFjZTogbm9ybWFsOyBvdmVyZmxvdy13cmFwOiBub3JtYWw7Ij5mPC9kaXY+PC9kaXY+PC9kaXY+PC9mb3JlaWduT2JqZWN0Pjx0ZXh0IHg9Ijk1IiB5PSIxMDEiIGZpbGw9InJnYigwLCAwLCAwKSIgZm9udC1mYW1pbHk9IkhlbHZldGljYSIgZm9udC1zaXplPSIxMnB4IiB0ZXh0LWFuY2hvcj0ibWlkZGxlIj5mPC90ZXh0Pjwvc3dpdGNoPjwvZz48L2c+PHN3aXRjaD48ZyByZXF1aXJlZEZlYXR1cmVzPSJodHRwOi8vd3d3LnczLm9yZy9UUi9TVkcxMS9mZWF0dXJlI0V4dGVuc2liaWxpdHkiLz48YSB0cmFuc2Zvcm09InRyYW5zbGF0ZSgwLC01KSIgeGxpbms6aHJlZj0iaHR0cHM6Ly93d3cuZGlhZ3JhbXMubmV0L2RvYy9mYXEvc3ZnLWV4cG9ydC10ZXh0LXByb2JsZW1zIiB0YXJnZXQ9Il9ibGFuayI+PHRleHQgdGV4dC1hbmNob3I9Im1pZGRsZSIgZm9udC1zaXplPSIxMHB4IiB4PSI1MCUiIHk9IjEwMCUiPlRleHQgaXMgbm90IFNWRyAtIGNhbm5vdCBkaXNwbGF5PC90ZXh0PjwvYT48L3N3aXRjaD48L3N2Zz4=;" vertex="1" parent="1">
          <mxGeometry x="410" y="330" width="177" height="109" as="geometry" />
        </mxCell>
        <mxCell id="cR1s5Nb1Dl8oFBiwTlWR-2" value="" style="shape=image;verticalLabelPosition=bottom;labelBackgroundColor=default;verticalAlign=top;aspect=fixed;imageAspect=0;image=data:image/svg+xml,PHN2ZyB4bWxucz0iaHR0cDovL3d3dy53My5vcmcvMjAwMC9zdmciIHhtbG5zOnhsaW5rPSJodHRwOi8vd3d3LnczLm9yZy8xOTk5L3hsaW5rIiB2ZXJzaW9uPSIxLjEiIHdpZHRoPSI4MHB4IiBoZWlnaHQ9IjEwOHB4IiB2aWV3Qm94PSItMC41IC0wLjUgODAgMTA4Ij48ZGVmcy8+PGc+PHJlY3QgeD0iMjEiIHk9IjciIHdpZHRoPSI1MCIgaGVpZ2h0PSI3MCIgZmlsbD0icmdiKDI1NSwgMjU1LCAyNTUpIiBzdHJva2U9IiM3ZDdkN2QiIHBvaW50ZXItZXZlbnRzPSJhbGwiLz48cGF0aCBkPSJNIDIxIDI0LjUgTCA3MSAyNC41IiBmaWxsPSJub25lIiBzdHJva2U9IiM3ZDdkN2QiIHN0cm9rZS1taXRlcmxpbWl0PSIxMCIgcG9pbnRlci1ldmVudHM9InN0cm9rZSIvPjxwYXRoIGQ9Ik0gMjEgNTkuNSBMIDcxIDU5LjUiIGZpbGw9Im5vbmUiIHN0cm9rZT0iIzdkN2Q3ZCIgc3Ryb2tlLW1pdGVybGltaXQ9IjEwIiBwb2ludGVyLWV2ZW50cz0ic3Ryb2tlIi8+PHBhdGggZD0iTSAyMC45IDE1LjMzIEwgNzEuMjUgMTUuMzMiIGZpbGw9Im5vbmUiIHN0cm9rZT0iIzdkN2Q3ZCIgc3Ryb2tlLW1pdGVybGltaXQ9IjEwIiBwb2ludGVyLWV2ZW50cz0ic3Ryb2tlIi8+PHBhdGggZD0iTSAyMS4xNSA2OC40NiBMIDcxLjA1IDY4LjM5IiBmaWxsPSJub25lIiBzdHJva2U9IiM3ZDdkN2QiIHN0cm9rZS1taXRlcmxpbWl0PSIxMCIgcG9pbnRlci1ldmVudHM9InN0cm9rZSIvPjxwYXRoIGQ9Ik0gNDUuOTIgNTIgTCA0NS45MiAzMiIgZmlsbD0ibm9uZSIgc3Ryb2tlPSIjN2Q3ZDdkIiBzdHJva2Utd2lkdGg9IjIiIHN0cm9rZS1taXRlcmxpbWl0PSIxMCIgc3Ryb2tlLWRhc2hhcnJheT0iMiA2IiBwb2ludGVyLWV2ZW50cz0ic3Ryb2tlIi8+PHBhdGggZD0iTSAxMSA3IEwgMTEgNzAuNjMiIGZpbGw9Im5vbmUiIHN0cm9rZT0iIzdkN2Q3ZCIgc3Ryb2tlLW1pdGVybGltaXQ9IjEwIiBwb2ludGVyLWV2ZW50cz0ic3Ryb2tlIi8+PHBhdGggZD0iTSAxMSA3NS44OCBMIDcuNSA2OC44OCBMIDExIDcwLjYzIEwgMTQuNSA2OC44OCBaIiBmaWxsPSIjN2Q3ZDdkIiBzdHJva2U9IiM3ZDdkN2QiIHN0cm9rZS1taXRlcmxpbWl0PSIxMCIgcG9pbnRlci1ldmVudHM9ImFsbCIvPjxwYXRoIGQ9Ik0gMjEgODcgTCA2NC42MyA4NyIgZmlsbD0ibm9uZSIgc3Ryb2tlPSIjN2Q3ZDdkIiBzdHJva2UtbWl0ZXJsaW1pdD0iMTAiIHBvaW50ZXItZXZlbnRzPSJzdHJva2UiLz48cGF0aCBkPSJNIDY5Ljg4IDg3IEwgNjIuODggOTAuNSBMIDY0LjYzIDg3IEwgNjIuODggODMuNSBaIiBmaWxsPSIjN2Q3ZDdkIiBzdHJva2U9IiM3ZDdkN2QiIHN0cm9rZS1taXRlcmxpbWl0PSIxMCIgcG9pbnRlci1ldmVudHM9ImFsbCIvPjxyZWN0IHg9IjAiIHk9IjI3IiB3aWR0aD0iMTAiIGhlaWdodD0iMzAiIGZpbGw9Im5vbmUiIHN0cm9rZT0ibm9uZSIgcG9pbnRlci1ldmVudHM9ImFsbCIvPjxnIHRyYW5zZm9ybT0idHJhbnNsYXRlKC0wLjUgLTAuNSkiPjxzd2l0Y2g+PGZvcmVpZ25PYmplY3QgcG9pbnRlci1ldmVudHM9Im5vbmUiIHdpZHRoPSIxMDAlIiBoZWlnaHQ9IjEwMCUiIHJlcXVpcmVkRmVhdHVyZXM9Imh0dHA6Ly93d3cudzMub3JnL1RSL1NWRzExL2ZlYXR1cmUjRXh0ZW5zaWJpbGl0eSIgc3R5bGU9Im92ZXJmbG93OiB2aXNpYmxlOyB0ZXh0LWFsaWduOiBsZWZ0OyI+PGRpdiB4bWxucz0iaHR0cDovL3d3dy53My5vcmcvMTk5OS94aHRtbCIgc3R5bGU9ImRpc3BsYXk6IGZsZXg7IGFsaWduLWl0ZW1zOiB1bnNhZmUgY2VudGVyOyBqdXN0aWZ5LWNvbnRlbnQ6IHVuc2FmZSBjZW50ZXI7IHdpZHRoOiA4cHg7IGhlaWdodDogMXB4OyBwYWRkaW5nLXRvcDogNDJweDsgbWFyZ2luLWxlZnQ6IDFweDsiPjxkaXYgZGF0YS1kcmF3aW8tY29sb3JzPSJjb2xvcjogcmdiKDAsIDAsIDApOyAiIHN0eWxlPSJib3gtc2l6aW5nOiBib3JkZXItYm94OyBmb250LXNpemU6IDBweDsgdGV4dC1hbGlnbjogY2VudGVyOyI+PGRpdiBzdHlsZT0iZGlzcGxheTogaW5saW5lLWJsb2NrOyBmb250LXNpemU6IDEycHg7IGZvbnQtZmFtaWx5OiBIZWx2ZXRpY2E7IGNvbG9yOiByZ2IoMCwgMCwgMCk7IGxpbmUtaGVpZ2h0OiAxLjI7IHBvaW50ZXItZXZlbnRzOiBhbGw7IHdoaXRlLXNwYWNlOiBub3JtYWw7IG92ZXJmbG93LXdyYXA6IG5vcm1hbDsiPnQ8L2Rpdj48L2Rpdj48L2Rpdj48L2ZvcmVpZ25PYmplY3Q+PHRleHQgeD0iNSIgeT0iNDYiIGZpbGw9InJnYigwLCAwLCAwKSIgZm9udC1mYW1pbHk9IkhlbHZldGljYSIgZm9udC1zaXplPSIxMnB4IiB0ZXh0LWFuY2hvcj0ibWlkZGxlIj50PC90ZXh0Pjwvc3dpdGNoPjwvZz48cmVjdCB4PSI0MCIgeT0iODciIHdpZHRoPSIxMCIgaGVpZ2h0PSIyMCIgZmlsbD0ibm9uZSIgc3Ryb2tlPSJub25lIiBwb2ludGVyLWV2ZW50cz0iYWxsIi8+PGcgdHJhbnNmb3JtPSJ0cmFuc2xhdGUoLTAuNSAtMC41KSI+PHN3aXRjaD48Zm9yZWlnbk9iamVjdCBwb2ludGVyLWV2ZW50cz0ibm9uZSIgd2lkdGg9IjEwMCUiIGhlaWdodD0iMTAwJSIgcmVxdWlyZWRGZWF0dXJlcz0iaHR0cDovL3d3dy53My5vcmcvVFIvU1ZHMTEvZmVhdHVyZSNFeHRlbnNpYmlsaXR5IiBzdHlsZT0ib3ZlcmZsb3c6IHZpc2libGU7IHRleHQtYWxpZ246IGxlZnQ7Ij48ZGl2IHhtbG5zPSJodHRwOi8vd3d3LnczLm9yZy8xOTk5L3hodG1sIiBzdHlsZT0iZGlzcGxheTogZmxleDsgYWxpZ24taXRlbXM6IHVuc2FmZSBjZW50ZXI7IGp1c3RpZnktY29udGVudDogdW5zYWZlIGNlbnRlcjsgd2lkdGg6IDhweDsgaGVpZ2h0OiAxcHg7IHBhZGRpbmctdG9wOiA5N3B4OyBtYXJnaW4tbGVmdDogNDFweDsiPjxkaXYgZGF0YS1kcmF3aW8tY29sb3JzPSJjb2xvcjogcmdiKDAsIDAsIDApOyAiIHN0eWxlPSJib3gtc2l6aW5nOiBib3JkZXItYm94OyBmb250LXNpemU6IDBweDsgdGV4dC1hbGlnbjogY2VudGVyOyI+PGRpdiBzdHlsZT0iZGlzcGxheTogaW5saW5lLWJsb2NrOyBmb250LXNpemU6IDEycHg7IGZvbnQtZmFtaWx5OiBIZWx2ZXRpY2E7IGNvbG9yOiByZ2IoMCwgMCwgMCk7IGxpbmUtaGVpZ2h0OiAxLjI7IHBvaW50ZXItZXZlbnRzOiBhbGw7IHdoaXRlLXNwYWNlOiBub3JtYWw7IG92ZXJmbG93LXdyYXA6IG5vcm1hbDsiPmY8L2Rpdj48L2Rpdj48L2Rpdj48L2ZvcmVpZ25PYmplY3Q+PHRleHQgeD0iNDUiIHk9IjEwMSIgZmlsbD0icmdiKDAsIDAsIDApIiBmb250LWZhbWlseT0iSGVsdmV0aWNhIiBmb250LXNpemU9IjEycHgiIHRleHQtYW5jaG9yPSJtaWRkbGUiPmY8L3RleHQ+PC9zd2l0Y2g+PC9nPjwvZz48c3dpdGNoPjxnIHJlcXVpcmVkRmVhdHVyZXM9Imh0dHA6Ly93d3cudzMub3JnL1RSL1NWRzExL2ZlYXR1cmUjRXh0ZW5zaWJpbGl0eSIvPjxhIHRyYW5zZm9ybT0idHJhbnNsYXRlKDAsLTUpIiB4bGluazpocmVmPSJodHRwczovL3d3dy5kaWFncmFtcy5uZXQvZG9jL2ZhcS9zdmctZXhwb3J0LXRleHQtcHJvYmxlbXMiIHRhcmdldD0iX2JsYW5rIj48dGV4dCB0ZXh0LWFuY2hvcj0ibWlkZGxlIiBmb250LXNpemU9IjEwcHgiIHg9IjUwJSIgeT0iMTAwJSI+VGV4dCBpcyBub3QgU1ZHIC0gY2Fubm90IGRpc3BsYXk8L3RleHQ+PC9hPjwvc3dpdGNoPjwvc3ZnPg==;" vertex="1" parent="1">
          <mxGeometry x="780" y="330" width="80" height="108" as="geometry" />
        </mxCell>
      </root>
    </mxGraphModel>
  </diagram>
</mxfile>
